<svg width="18" height="18" viewBox="0 0 18 18" fill="none" xmlns="http://www.w3.org/2000/svg">
<path d="M16.5 5.99981V8.99981M7.6875 4.12481H5.1C3.83988 4.12481 3.20982 4.12481 2.72852 4.37005C2.30516 4.58576 1.96095 4.92997 1.74523 5.35333C1.5 5.83464 1.5 6.46469 1.5 7.72481L1.5 8.62481C1.5 9.32372 1.5 9.67318 1.61418 9.94884C1.76642 10.3164 2.05843 10.6084 2.42597 10.7606C2.70163 10.8748 3.05109 10.8748 3.75 10.8748V14.0623C3.75 14.2364 3.75 14.3235 3.75722 14.3968C3.82737 15.109 4.39081 15.6724 5.10298 15.7426C5.17631 15.7498 5.26338 15.7498 5.4375 15.7498C5.61163 15.7498 5.69869 15.7498 5.77203 15.7426C6.48419 15.6724 7.04764 15.109 7.11778 14.3968C7.125 14.3235 7.125 14.2364 7.125 14.0623V10.8748H7.6875C9.01232 10.8748 10.6329 11.585 11.8832 12.2665C12.6126 12.6642 12.9773 12.863 13.2162 12.8337C13.4377 12.8066 13.6052 12.7071 13.735 12.5256C13.875 12.3299 13.875 11.9383 13.875 11.1551V3.84453C13.875 3.06131 13.875 2.6697 13.735 2.47398C13.6052 2.29249 13.4377 2.19304 13.2162 2.16591C12.9773 2.13665 12.6126 2.33546 11.8832 2.73308C10.6329 3.41465 9.01232 4.12481 7.6875 4.12481Z" stroke="#222C27" stroke-width="1.5" stroke-linecap="round" stroke-linejoin="round"/>
</svg>
