<svg width="20" height="20" viewBox="0 0 20 20" fill="none" xmlns="http://www.w3.org/2000/svg">
<path d="M10.1667 9.83254L8.99164 11.0075C8.34164 11.6575 8.34164 12.7159 8.99164 13.3659C9.64164 14.0159 10.7 14.0159 11.35 13.3659L13.2 11.5159C14.5 10.2159 14.5 8.10755 13.2 6.79922C11.9 5.49922 9.79165 5.49922 8.48332 6.79922L6.46667 8.81587C5.35 9.93254 5.35 11.7409 6.46667 12.8575" stroke="#666974" stroke-width="1.5" stroke-linecap="round" stroke-linejoin="round"/>
<path d="M10 18.3327C14.6024 18.3327 18.3333 14.6017 18.3333 9.99935C18.3333 5.39698 14.6024 1.66602 10 1.66602C5.39763 1.66602 1.66667 5.39698 1.66667 9.99935C1.66667 14.6017 5.39763 18.3327 10 18.3327Z" stroke="#666974" stroke-width="1.5" stroke-linecap="round" stroke-linejoin="round"/>
</svg>
