<svg width="17" height="16" viewBox="0 0 17 16" fill="none" xmlns="http://www.w3.org/2000/svg">
<path d="M12.6249 11.1655C12.5183 11.1655 12.4183 11.1322 12.3249 11.0655C12.1049 10.8989 12.0583 10.5855 12.2249 10.3655C13.2716 8.97221 13.2716 7.02555 12.2249 5.63221C12.0583 5.41221 12.1049 5.09888 12.3249 4.93221C12.5449 4.76555 12.8583 4.81221 13.0249 5.03221C14.3316 6.77888 14.3316 9.21888 13.0249 10.9655C12.9249 11.0989 12.7783 11.1655 12.6249 11.1655Z" fill="#4534B8"/>
<path d="M13.845 12.8348C13.7384 12.8348 13.6384 12.8015 13.545 12.7348C13.325 12.5682 13.2784 12.2548 13.445 12.0348C15.225 9.66148 15.225 6.34148 13.445 3.96815C13.2784 3.74815 13.325 3.43482 13.545 3.26815C13.765 3.10148 14.0784 3.14815 14.245 3.36815C16.2917 6.09482 16.2917 9.90815 14.245 12.6348C14.1517 12.7682 13.9984 12.8348 13.845 12.8348Z" fill="#4534B8"/>
<path d="M9.97171 2.52112C9.22504 2.10778 8.27171 2.21445 7.29837 2.82112L5.35171 4.04112C5.21837 4.12112 5.06504 4.16778 4.91171 4.16778H4.29171H3.95837C2.34504 4.16778 1.45837 5.05445 1.45837 6.66778V9.33445C1.45837 10.9478 2.34504 11.8345 3.95837 11.8345H4.29171H4.91171C5.06504 11.8345 5.21837 11.8811 5.35171 11.9611L7.29837 13.1811C7.88504 13.5478 8.45837 13.7278 8.99171 13.7278C9.33837 13.7278 9.67171 13.6478 9.97171 13.4811C10.7117 13.0678 11.125 12.2078 11.125 11.0611V4.94112C11.125 3.79445 10.7117 2.93445 9.97171 2.52112Z" fill="#4534B8"/>
</svg>
