<svg width="17" height="16" viewBox="0 0 17 16" fill="none" xmlns="http://www.w3.org/2000/svg">
<path d="M1.45833 6.66783V9.3345C1.45833 10.6678 2.12499 11.3345 3.45833 11.3345H4.41166C4.65833 11.3345 4.90499 11.4078 5.11833 11.5345L7.06499 12.7545C8.745 13.8078 10.125 13.0412 10.125 11.0612V4.94116C10.125 2.95449 8.745 2.19449 7.06499 3.24783L5.11833 4.46783C4.90499 4.59449 4.65833 4.66783 4.41166 4.66783H3.45833C2.12499 4.66783 1.45833 5.33449 1.45833 6.66783Z" stroke="#C0C0C3"/>
<path d="M12.125 5.33203C13.3117 6.91203 13.3117 9.08536 12.125 10.6654" stroke="#C0C0C3" stroke-linecap="round" stroke-linejoin="round"/>
<path d="M13.345 3.66797C15.2717 6.23464 15.2717 9.76797 13.345 12.3346" stroke="#C0C0C3" stroke-linecap="round" stroke-linejoin="round"/>
</svg>
