<svg width="16" height="16" viewBox="0 0 16 16" fill="none" xmlns="http://www.w3.org/2000/svg">
<path d="M8.59334 3.91992H3.40665C2.26665 3.91992 1.33333 4.85325 1.33333 5.99325V13.5666C1.33333 14.5333 2.02666 14.9466 2.87333 14.4732L5.49332 13.0132C5.77332 12.8599 6.22666 12.8599 6.5 13.0132L9.11999 14.4732C9.96666 14.9466 10.66 14.5333 10.66 13.5666V5.99325C10.6667 4.85325 9.73334 3.91992 8.59334 3.91992Z" stroke="#494850" stroke-linecap="round" stroke-linejoin="round"/>
<path d="M10.6667 5.99325V13.5666C10.6667 14.5333 9.97333 14.9399 9.12666 14.4732L6.50667 13.0132C6.22667 12.8599 5.77332 12.8599 5.49332 13.0132L2.87333 14.4732C2.02666 14.9399 1.33333 14.5333 1.33333 13.5666V5.99325C1.33333 4.85325 2.26665 3.91992 3.40665 3.91992H8.59334C9.73334 3.91992 10.6667 4.85325 10.6667 5.99325Z" stroke="#494850" stroke-linecap="round" stroke-linejoin="round"/>
<path d="M14.6667 3.40682V10.9802C14.6667 11.9468 13.9733 12.3535 13.1267 11.8868L10.6667 10.5135V5.99349C10.6667 4.85349 9.73334 3.92017 8.59334 3.92017H5.33333V3.40682C5.33333 2.26682 6.26665 1.3335 7.40665 1.3335H12.5933C13.7333 1.3335 14.6667 2.26682 14.6667 3.40682Z" stroke="#494850" stroke-linecap="round" stroke-linejoin="round"/>
</svg>
