<svg width="16" height="16" viewBox="0 0 16 16" fill="none" xmlns="http://www.w3.org/2000/svg">
<path d="M8.59337 3.91992H3.40671C2.26671 3.91992 1.33337 4.85325 1.33337 5.99326V13.5666C1.33337 14.5333 2.02671 14.9466 2.87337 14.4733L5.49337 13.0133C5.77337 12.8599 6.22671 12.8599 6.50004 13.0133L9.12004 14.4733C9.97337 14.9399 10.6667 14.5333 10.6667 13.5666V5.99326C10.6667 4.85325 9.73337 3.91992 8.59337 3.91992Z" fill="#4534B8"/>
<path d="M14.6666 3.40683V10.9802C14.6666 11.9468 13.9733 12.3535 13.1266 11.8868L11.84 11.1668C11.7333 11.1068 11.6666 10.9935 11.6666 10.8735V5.9935C11.6666 4.30016 10.2866 2.92016 8.59331 2.92016H5.87998C5.63331 2.92016 5.45998 2.66016 5.57331 2.44683C5.91998 1.78683 6.61331 1.3335 7.40664 1.3335H12.5933C13.7333 1.3335 14.6666 2.26683 14.6666 3.40683Z" fill="#4534B8"/>
</svg>
