<svg width="18" height="18" viewBox="0 0 18 18" fill="none" xmlns="http://www.w3.org/2000/svg">
<path d="M16.5 17.0625H1.5C1.1925 17.0625 0.9375 16.8075 0.9375 16.5C0.9375 16.1925 1.1925 15.9375 1.5 15.9375H16.5C16.8075 15.9375 17.0625 16.1925 17.0625 16.5C17.0625 16.8075 16.8075 17.0625 16.5 17.0625Z" fill="#8F8E93"/>
<path d="M15.6675 17.0625C15.36 17.0625 15.105 16.8075 15.105 16.5V9.75C15.105 8.82 14.235 8.0625 13.17 8.0625H4.83002C3.76502 8.0625 2.89502 8.82 2.89502 9.75V16.5C2.89502 16.8075 2.64002 17.0625 2.33252 17.0625C2.02502 17.0625 1.77002 16.8075 1.77002 16.5V9.75C1.77002 8.1975 3.14252 6.9375 4.83002 6.9375H13.1625C14.85 6.9375 16.2225 8.1975 16.2225 9.75V16.5C16.23 16.8075 15.975 17.0625 15.6675 17.0625Z" fill="#8F8E93"/>
<path d="M13.83 8.0625C13.5225 8.0625 13.2675 7.8075 13.2675 7.5V5.3775C13.2675 4.7925 12.705 4.3125 12.0225 4.3125H5.98504C5.29504 4.3125 4.74004 4.7925 4.74004 5.3775V7.5C4.74004 7.8075 4.48504 8.0625 4.17754 8.0625C3.87004 8.0625 3.60754 7.8075 3.60754 7.5V5.3775C3.60754 4.17 4.67254 3.1875 5.97754 3.1875H12.015C13.32 3.1875 14.385 4.17 14.385 5.3775V7.5C14.3925 7.8075 14.1375 8.0625 13.83 8.0625Z" fill="#8F8E93"/>
<path d="M12.9975 13.3116C12.1275 13.3116 11.4225 12.6066 11.4225 11.7366V11.5041C11.4225 11.2566 11.22 11.0541 10.9725 11.0541C10.725 11.0541 10.5225 11.2566 10.5225 11.5041V11.7366C10.5225 12.6066 9.81752 13.3116 8.94753 13.3116C8.07752 13.3116 7.37252 12.6066 7.37252 11.7366V11.5041C7.37252 11.2566 7.17002 11.0541 6.92252 11.0541C6.67502 11.0541 6.47252 11.2566 6.47252 11.5041V11.7366C6.47252 12.6066 5.76752 13.3116 4.89752 13.3116C4.02752 13.3116 3.32252 12.6066 3.32252 11.7366V11.4891C3.32252 11.2491 3.12752 11.0466 2.88002 11.0391H2.60252C2.29502 11.0316 2.04002 10.7766 2.04752 10.4691C2.05502 10.1616 2.30252 9.91406 2.61002 9.91406H2.61752H2.89502C3.75002 9.92906 4.44752 10.6341 4.44752 11.4891V11.7366C4.44752 11.9841 4.65002 12.1866 4.89752 12.1866C5.14502 12.1866 5.34752 11.9841 5.34752 11.7366V11.5041C5.34752 10.6341 6.05252 9.92906 6.92252 9.92906C7.79252 9.92906 8.49752 10.6341 8.49752 11.5041V11.7366C8.49752 11.9841 8.70002 12.1866 8.94753 12.1866C9.19502 12.1866 9.39752 11.9841 9.39752 11.7366V11.5041C9.39752 10.6341 10.1025 9.92906 10.9725 9.92906C11.8425 9.92906 12.5475 10.6341 12.5475 11.5041V11.7366C12.5475 11.9841 12.75 12.1866 12.9975 12.1866C13.245 12.1866 13.4475 11.9841 13.4475 11.7366V11.5041C13.4475 10.6341 14.1525 9.92906 15.0225 9.92906H15.36C15.6675 9.92906 15.9225 10.1841 15.9225 10.4916C15.9225 10.7991 15.6675 11.0541 15.36 11.0541H15.0225C14.775 11.0541 14.5725 11.2566 14.5725 11.5041V11.7366C14.5725 12.6066 13.8675 13.3116 12.9975 13.3116Z" fill="#8F8E93"/>
<path d="M6 4.3125C5.6925 4.3125 5.4375 4.0575 5.4375 3.75V2.25C5.4375 1.9425 5.6925 1.6875 6 1.6875C6.3075 1.6875 6.5625 1.9425 6.5625 2.25V3.75C6.5625 4.0575 6.3075 4.3125 6 4.3125Z" fill="#8F8E93"/>
<path d="M12 4.3125C11.6925 4.3125 11.4375 4.0575 11.4375 3.75V2.25C11.4375 1.9425 11.6925 1.6875 12 1.6875C12.3075 1.6875 12.5625 1.9425 12.5625 2.25V3.75C12.5625 4.0575 12.3075 4.3125 12 4.3125Z" fill="#8F8E93"/>
<path d="M9 4.3125C8.6925 4.3125 8.4375 4.0575 8.4375 3.75V1.5C8.4375 1.1925 8.6925 0.9375 9 0.9375C9.3075 0.9375 9.5625 1.1925 9.5625 1.5V3.75C9.5625 4.0575 9.3075 4.3125 9 4.3125Z" fill="#8F8E93"/>
</svg>
