<svg width="33" height="32" viewBox="0 0 33 32" fill="none" xmlns="http://www.w3.org/2000/svg">
<path d="M23.4871 30.3332H9.51373C5.78039 30.3332 3.40706 28.1065 3.19373 24.3865L2.50039 13.3865C2.39373 11.7198 2.96706 10.1198 4.11373 8.9065C5.24706 7.69317 6.84706 6.99984 8.50039 6.99984C8.92706 6.99984 9.34039 6.7465 9.54039 6.3465L10.5004 4.43984C11.2871 2.87984 13.2604 1.6665 14.9804 1.6665H18.0337C19.7537 1.6665 21.7137 2.87984 22.5004 4.4265L23.4604 6.37317C23.6604 6.7465 24.0604 6.99984 24.5004 6.99984C26.1537 6.99984 27.7537 7.69317 28.8871 8.9065C30.0337 10.1332 30.6071 11.7198 30.5004 13.3865L29.8071 24.3998C29.5671 28.1732 27.2604 30.3332 23.4871 30.3332ZM14.9804 3.6665C13.9937 3.6665 12.7404 4.43984 12.2871 5.33317L11.3271 7.25317C10.7671 8.33317 9.68706 8.99984 8.50039 8.99984C7.38039 8.99984 6.34039 9.45317 5.56706 10.2665C4.80706 11.0798 4.42039 12.1465 4.50039 13.2532L5.19373 24.2665C5.35373 26.9598 6.80706 28.3332 9.51373 28.3332H23.4871C26.1804 28.3332 27.6337 26.9598 27.8071 24.2665L28.5004 13.2532C28.5671 12.1465 28.1937 11.0798 27.4337 10.2665C26.6604 9.45317 25.6204 8.99984 24.5004 8.99984C23.3137 8.99984 22.2337 8.33317 21.6737 7.27984L20.7004 5.33317C20.2604 4.45317 19.0071 3.67984 18.0204 3.67984H14.9804V3.6665Z" fill="#828282"/>
<path d="M18.5 11.6665H14.5C13.9533 11.6665 13.5 11.2132 13.5 10.6665C13.5 10.1198 13.9533 9.6665 14.5 9.6665H18.5C19.0467 9.6665 19.5 10.1198 19.5 10.6665C19.5 11.2132 19.0467 11.6665 18.5 11.6665Z" fill="#828282"/>
<path d="M16.5001 25.0002C13.5534 25.0002 11.1667 22.6135 11.1667 19.6668C11.1667 16.7202 13.5534 14.3335 16.5001 14.3335C19.4467 14.3335 21.8334 16.7202 21.8334 19.6668C21.8334 22.6135 19.4467 25.0002 16.5001 25.0002ZM16.5001 16.3335C14.6601 16.3335 13.1667 17.8268 13.1667 19.6668C13.1667 21.5068 14.6601 23.0002 16.5001 23.0002C18.3401 23.0002 19.8334 21.5068 19.8334 19.6668C19.8334 17.8268 18.3401 16.3335 16.5001 16.3335Z" fill="#828282"/>
</svg>
