<svg width="26" height="26" viewBox="0 0 26 26" fill="none" xmlns="http://www.w3.org/2000/svg">
<path d="M19.0666 6.93507C18.4498 6.93507 17.8836 6.58118 17.6005 6.03518L16.8725 4.56907C16.4074 3.64896 15.1941 2.89062 14.1627 2.89062H11.8473C10.8058 2.89062 9.5925 3.64896 9.12739 4.56907L8.39939 6.03518C8.11628 6.58118 7.55006 6.93507 6.93328 6.93507C4.73917 6.93507 3.00006 8.7854 3.14161 10.9694L3.66739 19.3212C3.78872 21.4041 4.91106 23.1128 7.70173 23.1128H18.2982C21.0888 23.1128 22.2011 21.4041 22.3325 19.3212L22.8583 10.9694C22.9998 8.7854 21.2607 6.93507 19.0666 6.93507ZM11.4833 8.19896H14.5166C14.9312 8.19896 15.2749 8.54274 15.2749 8.95729C15.2749 9.37185 14.9312 9.71563 14.5166 9.71563H11.4833C11.0687 9.71563 10.7249 9.37185 10.7249 8.95729C10.7249 8.54274 11.0687 8.19896 11.4833 8.19896ZM12.9999 19.1897C11.1193 19.1897 9.58239 17.663 9.58239 15.7722C9.58239 13.8814 11.1092 12.3546 12.9999 12.3546C14.8907 12.3546 16.4175 13.8814 16.4175 15.7722C16.4175 17.663 14.8806 19.1897 12.9999 19.1897Z" fill="white"/>
</svg>
