<svg width="16" height="16" viewBox="0 0 16 16" fill="none" xmlns="http://www.w3.org/2000/svg">
<mask id="mask0_3324_14292" style="mask-type:alpha" maskUnits="userSpaceOnUse" x="0" y="0" width="16" height="16">
<rect width="16" height="16" fill="#D9D9D9"/>
</mask>
<g mask="url(#mask0_3324_14292)">
<path d="M8.00002 8.6999L4.50002 12.1999C4.40002 12.2999 4.28336 12.3499 4.15002 12.3499C4.01669 12.3499 3.90002 12.2999 3.80002 12.1999C3.70002 12.0999 3.65002 11.9832 3.65002 11.8499C3.65002 11.7166 3.70002 11.5999 3.80002 11.4999L7.30002 7.9999L3.80002 4.4999C3.70002 4.3999 3.65002 4.28324 3.65002 4.1499C3.65002 4.01657 3.70002 3.8999 3.80002 3.7999C3.90002 3.6999 4.01669 3.6499 4.15002 3.6499C4.28336 3.6499 4.40002 3.6999 4.50002 3.7999L8.00002 7.2999L11.5 3.7999C11.6 3.6999 11.7167 3.6499 11.85 3.6499C11.9834 3.6499 12.1 3.6999 12.2 3.7999C12.3 3.8999 12.35 4.01657 12.35 4.1499C12.35 4.28324 12.3 4.3999 12.2 4.4999L8.70002 7.9999L12.2 11.4999C12.3 11.5999 12.35 11.7166 12.35 11.8499C12.35 11.9832 12.3 12.0999 12.2 12.1999C12.1 12.2999 11.9834 12.3499 11.85 12.3499C11.7167 12.3499 11.6 12.2999 11.5 12.1999L8.00002 8.6999Z" fill="#3C4043"/>
</g>
</svg>
