<svg width="12" height="12" viewBox="0 0 12 12" fill="none" xmlns="http://www.w3.org/2000/svg">
<path d="M5.55 11.375H3.45C1.495 11.375 0.625 10.505 0.625 8.55V6.45C0.625 4.495 1.495 3.625 3.45 3.625H5.55C7.505 3.625 8.375 4.495 8.375 6.45V8.55C8.375 10.505 7.505 11.375 5.55 11.375ZM3.45 4.375C1.9 4.375 1.375 4.9 1.375 6.45V8.55C1.375 10.1 1.9 10.625 3.45 10.625H5.55C7.1 10.625 7.625 10.1 7.625 8.55V6.45C7.625 4.9 7.1 4.375 5.55 4.375H3.45Z" fill="#4534B8"/>
<path d="M8.55 8.375H8C7.795 8.375 7.625 8.205 7.625 8V6.45C7.625 4.9 7.1 4.375 5.55 4.375H4C3.795 4.375 3.625 4.205 3.625 4V3.45C3.625 1.495 4.495 0.625 6.45 0.625H8.55C10.505 0.625 11.375 1.495 11.375 3.45V5.55C11.375 7.505 10.505 8.375 8.55 8.375ZM8.375 7.625H8.55C10.1 7.625 10.625 7.1 10.625 5.55V3.45C10.625 1.9 10.1 1.375 8.55 1.375H6.45C4.9 1.375 4.375 1.9 4.375 3.45V3.625H5.55C7.505 3.625 8.375 4.495 8.375 6.45V7.625Z" fill="#4534B8"/>
</svg>
