<svg width="26" height="26" viewBox="0 0 26 26" fill="none" xmlns="http://www.w3.org/2000/svg">
<path d="M16.8424 3.10327C16.4278 2.68872 15.71 2.97183 15.71 3.54816V7.07694C15.71 8.55316 16.9637 9.77661 18.4905 9.77661C19.4511 9.78672 20.7857 9.78672 21.9283 9.78672C22.5046 9.78672 22.808 9.10927 22.4035 8.70483C20.9475 7.23872 18.3388 4.59972 16.8424 3.10327Z" fill="white"/>
<path d="M21.5945 11.1716H18.6724C16.2761 11.1716 14.3246 9.22018 14.3246 6.82385V3.90174C14.3246 3.34563 13.8696 2.89062 13.3135 2.89062H9.02642C5.9122 2.89062 3.39453 4.91285 3.39453 8.52251V17.481C3.39453 21.0906 5.9122 23.1128 9.02642 23.1128H16.9738C20.088 23.1128 22.6056 21.0906 22.6056 17.481V12.1827C22.6056 11.6266 22.1506 11.1716 21.5945 11.1716ZM12.4945 18.8156H8.45009C8.03553 18.8156 7.69175 18.4718 7.69175 18.0573C7.69175 17.6427 8.03553 17.299 8.45009 17.299H12.4945C12.9091 17.299 13.2529 17.6427 13.2529 18.0573C13.2529 18.4718 12.9091 18.8156 12.4945 18.8156ZM14.5168 14.7712H8.45009C8.03553 14.7712 7.69175 14.4274 7.69175 14.0128C7.69175 13.5983 8.03553 13.2545 8.45009 13.2545H14.5168C14.9313 13.2545 15.2751 13.5983 15.2751 14.0128C15.2751 14.4274 14.9313 14.7712 14.5168 14.7712Z" fill="white"/>
</svg>
