<svg width="156" height="32" viewBox="0 0 156 32" fill="none" xmlns="http://www.w3.org/2000/svg">
<path d="M10.8938 31H0.581266V1.90909H10.979C13.9051 1.90909 16.4241 2.49148 18.5358 3.65625C20.6476 4.81155 22.2716 6.47348 23.408 8.64205C24.5538 10.8106 25.1267 13.4053 25.1267 16.4261C25.1267 19.4564 24.5538 22.0606 23.408 24.2386C22.2716 26.4167 20.6381 28.0881 18.5074 29.2528C16.3862 30.4176 13.8483 31 10.8938 31ZM6.73183 25.7301H10.6381C12.4563 25.7301 13.9856 25.4081 15.2262 24.7642C16.4762 24.1108 17.4137 23.1023 18.0387 21.7386C18.6731 20.3655 18.9904 18.5947 18.9904 16.4261C18.9904 14.2765 18.6731 12.5199 18.0387 11.1562C17.4137 9.79261 16.4809 8.78883 15.2404 8.14489C13.9998 7.50095 12.4705 7.17898 10.6523 7.17898H6.73183V25.7301ZM43.5607 21.7102V9.18182H49.6118V31H43.8021V27.0369H43.5749C43.0824 28.3153 42.2633 29.3428 41.1175 30.1193C39.9811 30.8958 38.5938 31.2841 36.9556 31.2841C35.4972 31.2841 34.2141 30.9527 33.1061 30.2898C31.9982 29.6269 31.1317 28.6847 30.5067 27.4631C29.8912 26.2415 29.5787 24.7784 29.5692 23.0739V9.18182H35.6203V21.9943C35.6298 23.2822 35.9754 24.3002 36.6573 25.0483C37.3391 25.7964 38.2529 26.1705 39.3987 26.1705C40.1279 26.1705 40.8097 26.0047 41.4442 25.6733C42.0787 25.3324 42.59 24.8305 42.9783 24.1676C43.376 23.5047 43.5701 22.6856 43.5607 21.7102ZM62.4918 31.3551C60.8346 31.3551 59.3336 30.929 57.9889 30.0767C56.6537 29.215 55.5931 27.9508 54.8071 26.2841C54.0306 24.608 53.6423 22.553 53.6423 20.1193C53.6423 17.6193 54.0448 15.5407 54.8497 13.8835C55.6547 12.2169 56.7247 10.9716 58.06 10.1477C59.4047 9.31439 60.8772 8.89773 62.4776 8.89773C63.6992 8.89773 64.7172 9.10606 65.5316 9.52273C66.3554 9.92992 67.0183 10.4413 67.5202 11.0568C68.0315 11.6629 68.4198 12.2595 68.685 12.8466H68.8696V1.90909H74.9066V31H68.9406V27.5057H68.685C68.4009 28.1117 67.9984 28.7131 67.4776 29.3097C66.9662 29.8968 66.2986 30.3845 65.4747 30.7727C64.6603 31.161 63.666 31.3551 62.4918 31.3551ZM64.4094 26.5398C65.3848 26.5398 66.2086 26.2746 66.881 25.7443C67.5628 25.2045 68.0836 24.4517 68.4435 23.4858C68.8128 22.5199 68.9975 21.3883 68.9975 20.0909C68.9975 18.7936 68.8175 17.6667 68.4577 16.7102C68.0978 15.7538 67.577 15.0152 66.8952 14.4943C66.2134 13.9735 65.3848 13.7131 64.4094 13.7131C63.4151 13.7131 62.577 13.983 61.8952 14.5227C61.2134 15.0625 60.6973 15.8106 60.3469 16.767C59.9965 17.7235 59.8213 18.8314 59.8213 20.0909C59.8213 21.3598 59.9965 22.482 60.3469 23.4574C60.7067 24.4233 61.2228 25.1809 61.8952 25.7301C62.577 26.2699 63.4151 26.5398 64.4094 26.5398ZM93.8732 21.7102V9.18182H99.9243V31H94.1146V27.0369H93.8874C93.3949 28.3153 92.5758 29.3428 91.43 30.1193C90.2936 30.8958 88.9063 31.2841 87.2681 31.2841C85.8097 31.2841 84.5266 30.9527 83.4186 30.2898C82.3107 29.6269 81.4442 28.6847 80.8192 27.4631C80.2037 26.2415 79.8912 24.7784 79.8817 23.0739V9.18182H85.9328V21.9943C85.9423 23.2822 86.2879 24.3002 86.9698 25.0483C87.6516 25.7964 88.5654 26.1705 89.7112 26.1705C90.4404 26.1705 91.1222 26.0047 91.7567 25.6733C92.3912 25.3324 92.9025 24.8305 93.2908 24.1676C93.6885 23.5047 93.8826 22.6856 93.8732 21.7102ZM104.651 31V27.392L115.333 14.1676V14.0114H105.02V9.18182H122.62V13.1165L112.591 26.0142V26.1705H122.989V31H104.651ZM127.616 31V9.18182H133.667V31H127.616ZM130.656 6.36932C129.756 6.36932 128.984 6.07102 128.34 5.47443C127.706 4.86837 127.389 4.14394 127.389 3.30114C127.389 2.4678 127.706 1.75284 128.34 1.15625C128.984 0.550188 129.756 0.247158 130.656 0.247158C131.555 0.247158 132.323 0.550188 132.957 1.15625C133.601 1.75284 133.923 2.4678 133.923 3.30114C133.923 4.14394 133.601 4.86837 132.957 5.47443C132.323 6.07102 131.555 6.36932 130.656 6.36932ZM144.566 1.90909V31H138.515V1.90909H144.566ZM149.413 31V9.18182H155.464V31H149.413ZM152.453 6.36932C151.553 6.36932 150.781 6.07102 150.137 5.47443C149.503 4.86837 149.186 4.14394 149.186 3.30114C149.186 2.4678 149.503 1.75284 150.137 1.15625C150.781 0.550188 151.553 0.247158 152.453 0.247158C153.352 0.247158 154.119 0.550188 154.754 1.15625C155.398 1.75284 155.72 2.4678 155.72 3.30114C155.72 4.14394 155.398 4.86837 154.754 5.47443C154.119 6.07102 153.352 6.36932 152.453 6.36932Z" fill="white"/>
</svg>
