<svg width="17" height="16" viewBox="0 0 17 16" fill="none" xmlns="http://www.w3.org/2000/svg">
<path d="M3.42931 11.9803L3.40002 12.0096V12.0511V12.6644V12.7644H3.50002H4.11335H4.15478L4.18406 12.7351L10.2241 6.6951L10.2948 6.62439L10.2241 6.55368L9.61073 5.94035L9.54002 5.86964L9.46931 5.94035L3.42931 11.9803ZM12.3426 2.26169L12.3426 2.26177L13.9026 3.82177L13.9027 3.82184C13.9552 3.87423 13.9969 3.93645 14.0253 4.00496C14.0537 4.07346 14.0683 4.14689 14.0683 4.22106C14.0683 4.29522 14.0537 4.36865 14.0253 4.43716C13.9969 4.50566 13.9552 4.56789 13.9027 4.62027L13.9026 4.62035L12.7534 5.76963L10.3948 3.41106L11.5441 2.26177L11.5441 2.26169C11.5965 2.2092 11.6587 2.16755 11.7273 2.13914C11.7958 2.11072 11.8692 2.09609 11.9434 2.09609C12.0175 2.09609 12.091 2.11072 12.1595 2.13914C12.228 2.16755 12.2902 2.2092 12.3426 2.26169ZM11.8986 6.62439L4.62527 13.8977H2.26669V11.5391L9.54002 4.26581L11.8986 6.62439Z" fill="#4534B8" stroke="white" stroke-width="0.2"/>
</svg>
