<svg width="20" height="20" viewBox="0 0 20 20" fill="none" xmlns="http://www.w3.org/2000/svg">
<path fill-rule="evenodd" clip-rule="evenodd" d="M9.99999 18.3346C5.39762 18.3346 1.66666 14.6037 1.66666 10.0013C1.66666 5.39893 5.39762 1.66797 9.99999 1.66797C14.6024 1.66797 18.3333 5.39893 18.3333 10.0013C18.3333 14.6037 14.6024 18.3346 9.99999 18.3346ZM9.99999 17.5013C14.1421 17.5013 17.5 14.1434 17.5 10.0013C17.5 5.85917 14.1421 2.5013 9.99999 2.5013C5.85785 2.5013 2.49999 5.85917 2.49999 10.0013C2.49999 14.1434 5.85785 17.5013 9.99999 17.5013ZM9.99012 15.8346C7.02015 15.8346 4.20145 12.9861 4.20145 10.9275C4.20145 9.74607 6.76846 11.168 9.99012 11.168C13.2118 11.168 15.8071 9.748 15.7985 10.9275C15.784 12.9224 12.9601 15.8346 9.99012 15.8346ZM9.99012 13.2096C12.7515 13.2096 14.6618 12.1421 14.6618 11.3723C14.6618 10.6024 12.7515 11.8313 9.99012 11.8313C7.2287 11.8313 5.35015 10.7499 5.35015 11.3723C5.35015 11.9946 7.2287 13.2096 9.99012 13.2096ZM7.48957 8.52211C6.94304 8.52211 6.49999 8.07906 6.49999 7.53253C6.49999 6.986 6.94304 6.54295 7.48957 6.54295C8.03611 6.54295 8.47916 6.986 8.47916 7.53253C8.47916 8.07906 8.03611 8.52211 7.48957 8.52211ZM12.4896 8.52211C11.943 8.52211 11.5 8.07906 11.5 7.53253C11.5 6.986 11.943 6.54295 12.4896 6.54295C13.0361 6.54295 13.4792 6.986 13.4792 7.53253C13.4792 8.07906 13.0361 8.52211 12.4896 8.52211Z" fill="#8F8E93"/>
</svg>
