<svg width="226" height="95" viewBox="0 0 226 95" fill="none" xmlns="http://www.w3.org/2000/svg">
<g clip-path="url(#clip0_5804_25277)">
<path fill-rule="evenodd" clip-rule="evenodd" d="M50.5059 83H141.506C142.021 83 142.523 82.9444 143.006 82.8389C143.489 82.9444 143.991 83 144.506 83H196.506C200.372 83 203.506 79.866 203.506 76C203.506 72.134 200.372 69 196.506 69H190.506C186.64 69 183.506 65.866 183.506 62C183.506 58.134 186.64 55 190.506 55H209.506C213.372 55 216.506 51.866 216.506 48C216.506 44.134 213.372 41 209.506 41H187.506C191.372 41 194.506 37.866 194.506 34C194.506 30.134 191.372 27 187.506 27H123.506C127.372 27 130.506 23.866 130.506 20C130.506 16.134 127.372 13 123.506 13H66.5059C62.6399 13 59.5059 16.134 59.5059 20C59.5059 23.866 62.6399 27 66.5059 27H26.5059C22.6399 27 19.5059 30.134 19.5059 34C19.5059 37.866 22.6399 41 26.5059 41H51.5059C55.3719 41 58.5059 44.134 58.5059 48C58.5059 51.866 55.3719 55 51.5059 55H11.5059C7.63987 55 4.50586 58.134 4.50586 62C4.50586 65.866 7.63987 69 11.5059 69H50.5059C46.6399 69 43.5059 72.134 43.5059 76C43.5059 79.866 46.6399 83 50.5059 83ZM213.506 83C217.372 83 220.506 79.866 220.506 76C220.506 72.134 217.372 69 213.506 69C209.64 69 206.506 72.134 206.506 76C206.506 79.866 209.64 83 213.506 83Z" fill="#ECEBF8"/>
<path fill-rule="evenodd" clip-rule="evenodd" d="M79.5059 89C67.3556 89 57.5059 79.3741 57.5059 67.5C57.5059 55.6259 67.3556 46 79.5059 46C80.0225 46 80.5351 46.0174 81.0428 46.0517C80.69 44.0878 80.5059 42.0654 80.5059 40C80.5059 21.2223 95.7282 6 114.506 6C129.497 6 142.222 15.702 146.744 29.1695C147.816 29.0575 148.904 29 150.006 29C166.851 29 180.506 42.4315 180.506 59C180.506 74.7406 168.181 87.7273 152.506 88.9782V89H96.0137M91.5018 89H84.5372H91.5018Z" fill="white"/>
<path d="M79.5059 90.25C80.1962 90.25 80.7559 89.6904 80.7559 89C80.7559 88.3096 80.1962 87.75 79.5059 87.75V90.25ZM81.0428 46.0517L80.9587 47.2988L82.5562 47.4066L82.2731 45.8306L81.0428 46.0517ZM146.744 29.1695L145.56 29.5674L145.878 30.5169L146.874 30.4127L146.744 29.1695ZM152.506 88.9782L152.406 87.7321L151.256 87.824V88.9782H152.506ZM152.506 89V90.25H153.756V89H152.506ZM96.0137 87.75C95.3233 87.75 94.7637 88.3096 94.7637 89C94.7637 89.6904 95.3233 90.25 96.0137 90.25V87.75ZM91.5018 90.25C92.1922 90.25 92.7518 89.6904 92.7518 89C92.7518 88.3096 92.1922 87.75 91.5018 87.75V90.25ZM84.5372 87.75C83.8469 87.75 83.2872 88.3096 83.2872 89C83.2872 89.6904 83.8469 90.25 84.5372 90.25V87.75ZM79.5059 87.75C68.0187 87.75 58.7559 78.6568 58.7559 67.5H56.2559C56.2559 80.0914 66.6925 90.25 79.5059 90.25V87.75ZM58.7559 67.5C58.7559 56.3432 68.0187 47.25 79.5059 47.25V44.75C66.6925 44.75 56.2559 54.9086 56.2559 67.5H58.7559ZM79.5059 47.25C79.9945 47.25 80.4789 47.2665 80.9587 47.2988L81.1269 44.8045C80.5912 44.7684 80.0506 44.75 79.5059 44.75V47.25ZM82.2731 45.8306C81.9334 43.9394 81.7559 41.991 81.7559 40H79.2559C79.2559 42.1399 79.4467 44.2362 79.8125 46.2727L82.2731 45.8306ZM81.7559 40C81.7559 21.9127 96.4185 7.25 114.506 7.25V4.75C95.0378 4.75 79.2559 20.532 79.2559 40H81.7559ZM114.506 7.25C128.944 7.25 141.203 16.5936 145.56 29.5674L147.929 28.7716C143.241 14.8104 130.05 4.75 114.506 4.75V7.25ZM146.874 30.4127C147.903 30.3052 148.948 30.25 150.006 30.25V27.75C148.861 27.75 147.729 27.8097 146.614 27.9263L146.874 30.4127ZM150.006 30.25C166.18 30.25 179.256 43.1412 179.256 59H181.756C181.756 41.7217 167.521 27.75 150.006 27.75V30.25ZM179.256 59C179.256 74.0705 167.45 86.5317 152.406 87.7321L152.605 90.2242C168.912 88.923 181.756 75.4108 181.756 59H179.256ZM151.256 88.9782V89H153.756V88.9782H151.256ZM152.506 87.75H96.0137V90.25H152.506V87.75ZM91.5018 87.75H84.5372V90.25H91.5018V87.75Z" fill="#4534B8"/>
<path fill-rule="evenodd" clip-rule="evenodd" d="M104.118 13.3426C104.118 45.5657 133.139 72.118 170.506 75.7029C165.823 81.4611 158.591 85.3675 150.353 85.9813V86H83.2489C75.1072 86 61.5059 82.5697 61.5059 67.5483C61.5059 52.527 72.08 49.0967 83.2489 49.0967C83.7239 49.0967 84.195 49.1116 84.6617 49.141C84.3374 47.4556 84.2804 45.7184 84.1681 43.9474C83.4097 31.9842 88.6288 16.907 104.136 12C104.124 12.4473 104.118 12.8944 104.118 13.3426Z" fill="#ECEBF8"/>
<path d="M124.506 18C131.015 19.7226 136.154 24.8129 137.946 31.2932" stroke="#DAD6F1" stroke-width="2.5" stroke-linecap="round"/>
<path d="M95.5059 50.5C95.5059 54.0899 98.6399 57 102.506 57C106.372 57 109.506 54.0899 109.506 50.5" stroke="#4534B8" stroke-width="2.5" stroke-linecap="round"/>
<path d="M124.506 50.5C124.506 54.0899 127.64 57 131.506 57C135.372 57 138.506 54.0899 138.506 50.5" stroke="#4534B8" stroke-width="2.5" stroke-linecap="round"/>
<path d="M109.506 69H124.006" stroke="#4534B8" stroke-width="2.5" stroke-linecap="round"/>
<path fill-rule="evenodd" clip-rule="evenodd" d="M56.6617 9.29297H44.7157V11.669H53.1637L44.0117 22.757V25.001H56.8817V22.625H47.5097L56.6617 11.383V9.29297ZM70.074 24.5781H61.386V26.3061H67.53L60.874 34.3701V36.0021H70.234V34.2741H63.418L70.074 26.0981V24.5781Z" fill="#DAD6F1"/>
</g>
<defs>
<clipPath id="clip0_5804_25277">
<rect width="226" height="95" fill="white"/>
</clipPath>
</defs>
</svg>
