<svg width="16" height="16" viewBox="0 0 16 16" fill="none" xmlns="http://www.w3.org/2000/svg">
<path d="M8.66667 7.83414C8.54 7.83414 8.41333 7.78747 8.31333 7.68747C8.12 7.49414 8.12 7.17414 8.31333 6.98081L13.78 1.51414C13.9733 1.32081 14.2933 1.32081 14.4867 1.51414C14.68 1.70747 14.68 2.02747 14.4867 2.22081L9.02 7.68747C8.92 7.78747 8.79333 7.83414 8.66667 7.83414Z" fill="#48504C"/>
<path d="M14.6667 5.03398C14.3933 5.03398 14.1667 4.80732 14.1667 4.53398V1.83398H11.4667C11.1933 1.83398 10.9667 1.60732 10.9667 1.33398C10.9667 1.06065 11.1933 0.833984 11.4667 0.833984H14.6667C14.94 0.833984 15.1667 1.06065 15.1667 1.33398V4.53398C15.1667 4.80732 14.94 5.03398 14.6667 5.03398Z" fill="#48504C"/>
<path d="M10 15.1673H6.00001C2.38001 15.1673 0.833344 13.6207 0.833344 10.0007V6.00065C0.833344 2.38065 2.38001 0.833984 6.00001 0.833984H7.33334C7.60668 0.833984 7.83334 1.06065 7.83334 1.33398C7.83334 1.60732 7.60668 1.83398 7.33334 1.83398H6.00001C2.92668 1.83398 1.83334 2.92732 1.83334 6.00065V10.0007C1.83334 13.074 2.92668 14.1673 6.00001 14.1673H10C13.0733 14.1673 14.1667 13.074 14.1667 10.0007V8.66732C14.1667 8.39398 14.3933 8.16732 14.6667 8.16732C14.94 8.16732 15.1667 8.39398 15.1667 8.66732V10.0007C15.1667 13.6207 13.62 15.1673 10 15.1673Z" fill="#48504C"/>
</svg>
