<svg width="18" height="18" viewBox="0 0 18 18" fill="none" xmlns="http://www.w3.org/2000/svg">
<path d="M11.6851 9.00141C11.6851 10.4864 10.4851 11.6864 9.00006 11.6864C7.51506 11.6864 6.31506 10.4864 6.31506 9.00141C6.31506 7.51641 7.51506 6.31641 9.00006 6.31641C10.4851 6.31641 11.6851 7.51641 11.6851 9.00141Z" stroke="#8F8E93" stroke-width="1.125" stroke-linecap="round" stroke-linejoin="round"/>
<path d="M9 15.2016C11.6475 15.2016 14.115 13.6416 15.8325 10.9416C16.5075 9.88406 16.5075 8.10656 15.8325 7.04906C14.115 4.34906 11.6475 2.78906 9 2.78906C6.3525 2.78906 3.885 4.34906 2.1675 7.04906C1.4925 8.10656 1.4925 9.88406 2.1675 10.9416C3.885 13.6416 6.3525 15.2016 9 15.2016Z" stroke="#8F8E93" stroke-width="1.125" stroke-linecap="round" stroke-linejoin="round"/>
</svg>
