<svg width="18" height="18" viewBox="0 0 18 18" fill="none" xmlns="http://www.w3.org/2000/svg">
<path d="M7.10244 11.4599C6.95994 11.4599 6.81744 11.4074 6.70494 11.2949C6.08994 10.6799 5.75244 9.86244 5.75244 8.99994C5.75244 7.20744 7.20744 5.75244 8.99994 5.75244C9.86244 5.75244 10.6799 6.08994 11.2949 6.70494C11.3999 6.80994 11.4599 6.95244 11.4599 7.10244C11.4599 7.25244 11.3999 7.39494 11.2949 7.49994L7.49994 11.2949C7.38744 11.4074 7.24494 11.4599 7.10244 11.4599ZM8.99994 6.87744C7.82994 6.87744 6.87744 7.82994 6.87744 8.99994C6.87744 9.37494 6.97494 9.73494 7.15494 10.0499L10.0499 7.15494C9.73494 6.97494 9.37494 6.87744 8.99994 6.87744Z" fill="#8F8E93"/>
<path d="M4.2 13.8824C4.0725 13.8824 3.9375 13.8374 3.8325 13.7474C3.03 13.0649 2.31 12.2249 1.695 11.2499C0.900005 10.0124 0.900005 7.99486 1.695 6.74986C3.525 3.88486 6.1875 2.23486 9 2.23486C10.65 2.23486 12.2775 2.80486 13.7025 3.87736C13.95 4.06486 14.0025 4.41736 13.815 4.66486C13.6275 4.91236 13.275 4.96486 13.0275 4.77736C11.7975 3.84736 10.4025 3.35986 9 3.35986C6.5775 3.35986 4.26 4.81486 2.64 7.35736C2.0775 8.23486 2.0775 9.76486 2.64 10.6424C3.2025 11.5199 3.8475 12.2774 4.56 12.8924C4.7925 13.0949 4.8225 13.4474 4.62 13.6874C4.515 13.8149 4.3575 13.8824 4.2 13.8824Z" fill="#8F8E93"/>
<path d="M9.00005 15.7651C8.00255 15.7651 7.02755 15.5626 6.09005 15.1651C5.80505 15.0451 5.67005 14.7151 5.79005 14.4301C5.91005 14.1451 6.24005 14.0101 6.52505 14.1301C7.32005 14.4676 8.15255 14.6401 8.99255 14.6401C11.415 14.6401 13.7325 13.1851 15.3525 10.6426C15.915 9.76512 15.915 8.23512 15.3525 7.35762C15.12 6.99012 14.865 6.63762 14.595 6.30762C14.4 6.06762 14.4375 5.71512 14.6775 5.51262C14.9175 5.31762 15.27 5.34762 15.4725 5.59512C15.765 5.95512 16.05 6.34512 16.305 6.75012C17.1 7.98762 17.1 10.0051 16.305 11.2501C14.475 14.1151 11.8125 15.7651 9.00005 15.7651Z" fill="#8F8E93"/>
<path d="M9.51756 12.2023C9.25506 12.2023 9.01506 12.0148 8.96256 11.7448C8.90256 11.4373 9.10506 11.1448 9.41256 11.0923C10.2376 10.9423 10.9276 10.2523 11.0776 9.42727C11.1376 9.11977 11.4301 8.92477 11.7376 8.97727C12.0451 9.03727 12.2476 9.32977 12.1876 9.63727C11.9476 10.9348 10.9126 11.9623 9.62256 12.2023C9.58506 12.1948 9.55506 12.2023 9.51756 12.2023Z" fill="#8F8E93"/>
<path d="M1.49996 17.0625C1.35746 17.0625 1.21496 17.01 1.10246 16.8975C0.884956 16.68 0.884956 16.32 1.10246 16.1025L6.70496 10.5C6.92246 10.2825 7.28246 10.2825 7.49996 10.5C7.71746 10.7175 7.71746 11.0775 7.49996 11.295L1.89746 16.8975C1.78496 17.01 1.64246 17.0625 1.49996 17.0625Z" fill="#8F8E93"/>
<path d="M10.8975 7.66508C10.755 7.66508 10.6125 7.61258 10.5 7.50008C10.2825 7.28258 10.2825 6.92258 10.5 6.70508L16.1025 1.10258C16.32 0.885078 16.68 0.885078 16.8975 1.10258C17.115 1.32008 17.115 1.68008 16.8975 1.89758L11.295 7.50008C11.1825 7.61258 11.04 7.66508 10.8975 7.66508Z" fill="#8F8E93"/>
</svg>
