<svg width="56" height="56" viewBox="0 0 56 56" fill="none" xmlns="http://www.w3.org/2000/svg">
<rect width="56" height="56" rx="28" fill="#4534B8"/>
<path fill-rule="evenodd" clip-rule="evenodd" d="M17.2188 22.5859V19.8906C17.2188 18.4173 18.4174 17.2188 19.8906 17.2188H22.5859C22.9225 17.2188 23.1953 16.9459 23.1953 16.6094C23.1953 16.2728 22.9225 16 22.5859 16H19.8906C17.7453 16 16 17.7453 16 19.8906V22.5859C16 22.9225 16.2728 23.1953 16.6094 23.1953C16.9459 23.1953 17.2188 22.9225 17.2188 22.5859ZM22.5859 38.7812C22.9225 38.7812 23.1953 39.0541 23.1953 39.3906C23.1953 39.7272 22.9225 40 22.5859 40H19.8906C17.7453 40 16 38.2547 16 36.1094V33.4141C16 33.0775 16.2728 32.8047 16.6094 32.8047C16.9459 32.8047 17.2188 33.0775 17.2188 33.4141V36.1094C17.2188 37.5826 18.4174 38.7812 19.8906 38.7812H22.5859ZM40 33.4141V36.1094C40 38.2547 38.2547 40 36.1094 40H33.4141C33.0775 40 32.8047 39.7272 32.8047 39.3906C32.8047 39.0541 33.0775 38.7812 33.4141 38.7812H36.1094C37.5826 38.7812 38.7812 37.5826 38.7812 36.1094V33.4141C38.7812 33.0775 39.0541 32.8047 39.3906 32.8047C39.7272 32.8047 40 33.0775 40 33.4141ZM40 19.8906V22.5859C40 22.9225 39.7272 23.1953 39.3906 23.1953C39.0541 23.1953 38.7812 22.9225 38.7812 22.5859V19.8906C38.7812 18.4173 37.5826 17.2188 36.1094 17.2188H33.4141C33.0775 17.2188 32.8047 16.9459 32.8047 16.6094C32.8047 16.2728 33.0775 16 33.4141 16H36.1094C38.2547 16 40 17.7453 40 19.8906ZM32.2053 33.7383C32.462 33.5012 32.4779 33.1008 32.2408 32.8441C32.0036 32.5873 31.6033 32.5715 31.3465 32.8086C30.433 33.6524 29.2445 34.1171 27.9999 34.1171C26.7554 34.1171 25.5669 33.6524 24.6534 32.8086C24.3966 32.5715 23.9963 32.5874 23.7591 32.8441C23.522 33.1008 23.5378 33.5012 23.7946 33.7383C24.9427 34.7987 26.4361 35.3828 27.9999 35.3828C29.5638 35.3828 31.0572 34.7987 32.2053 33.7383ZM29.2656 25.0469V29.5469C29.2656 30.4386 28.5402 31.1641 27.6484 31.1641H27.1328C26.7833 31.1641 26.5 30.8807 26.5 30.5312C26.5 30.1818 26.7833 29.8984 27.1328 29.8984H27.6484C27.8423 29.8984 28 29.7407 28 29.5469V25.0469C28 24.6974 28.2833 24.4141 28.6328 24.4141C28.9823 24.4141 29.2656 24.6974 29.2656 25.0469ZM33.625 26.8164V25.0117C33.625 24.6816 33.3574 24.4141 33.0273 24.4141C32.6973 24.4141 32.4297 24.6816 32.4297 25.0117V26.8164C32.4297 27.1465 32.6973 27.4141 33.0273 27.4141C33.3574 27.4141 33.625 27.1465 33.625 26.8164ZM22.5156 26.8164C22.5156 27.1465 22.7832 27.4141 23.1133 27.4141C23.4434 27.4141 23.7109 27.1465 23.7109 26.8164V25.0117C23.7109 24.6816 23.4434 24.4141 23.1133 24.4141C22.7832 24.4141 22.5156 24.6816 22.5156 25.0117V26.8164Z" fill="white"/>
</svg>
