<svg width="26" height="26" viewBox="0 0 26 26" fill="none" xmlns="http://www.w3.org/2000/svg">
<path d="M3.47534 20.0879L3.45512 20.1082C3.18212 19.5116 3.01023 18.8342 2.93945 18.0859C3.01023 18.824 3.20234 19.4914 3.47534 20.0879Z" fill="white"/>
<path d="M9.96663 11.3637C11.2957 11.3637 12.3731 10.2863 12.3731 8.95723C12.3731 7.62818 11.2957 6.55078 9.96663 6.55078C8.63758 6.55078 7.56018 7.62818 7.56018 8.95723C7.56018 10.2863 8.63758 11.3637 9.96663 11.3637Z" fill="white"/>
<path d="M17.2365 2.89062H8.76341C5.08297 2.89062 2.88885 5.08474 2.88885 8.76518V17.2383C2.88885 18.3404 3.08097 19.301 3.45508 20.1098C4.32463 22.031 6.18508 23.1128 8.76341 23.1128H17.2365C20.917 23.1128 23.1111 20.9187 23.1111 17.2383V14.9228V8.76518C23.1111 5.08474 20.917 2.89062 17.2365 2.89062ZM21.463 13.5073C20.6743 12.8298 19.4003 12.8298 18.6116 13.5073L14.4054 17.117C13.6167 17.7944 12.3427 17.7944 11.5541 17.117L11.2103 16.8338C10.4924 16.207 9.34986 16.1463 8.54097 16.6923L4.75941 19.2302C4.53697 18.664 4.40552 18.0067 4.40552 17.2383V8.76518C4.40552 5.91385 5.91208 4.40729 8.76341 4.40729H17.2365C20.0879 4.40729 21.5944 5.91385 21.5944 8.76518V13.6185L21.463 13.5073Z" fill="white"/>
</svg>
