<svg width="16" height="16" viewBox="0 0 16 16" fill="none" xmlns="http://www.w3.org/2000/svg">
<g clip-path="url(#clip0_3179_2843)">
<path d="M10 1.63919C9.36863 1.44089 8.6968 1.33398 8 1.33398C4.3181 1.33398 1.33333 4.31875 1.33333 8.00065C1.33333 11.6826 4.3181 14.6673 8 14.6673C11.6819 14.6673 14.6667 11.6826 14.6667 8.00065C14.6667 6.8571 14.3787 5.7808 13.8714 4.84028M11.3333 3.83398H11.3367M7.00003 14.5928L7.0001 13.1239C7.00011 13.0444 7.02857 12.9674 7.08035 12.907L8.73754 10.9736C8.87373 10.8147 8.83153 10.5711 8.64983 10.4672L6.74568 9.37914C6.69395 9.34958 6.65108 9.30669 6.62155 9.25494L5.3803 7.07974C5.3157 6.96653 5.19104 6.90136 5.06122 6.91293L1.37612 7.24115M14 4.00065C14 5.47341 12.6667 6.66732 11.3333 8.00065C10 6.66732 8.66666 5.47341 8.66666 4.00065C8.66666 2.52789 9.86057 1.33398 11.3333 1.33398C12.8061 1.33398 14 2.52789 14 4.00065ZM11.5 3.83398C11.5 3.92603 11.4254 4.00065 11.3333 4.00065C11.2413 4.00065 11.1667 3.92603 11.1667 3.83398C11.1667 3.74194 11.2413 3.66732 11.3333 3.66732C11.4254 3.66732 11.5 3.74194 11.5 3.83398Z" stroke="#494850" stroke-width="1.33333" stroke-linecap="round" stroke-linejoin="round"/>
</g>
<defs>
<clipPath id="clip0_3179_2843">
<rect width="16" height="16" fill="white"/>
</clipPath>
</defs>
</svg>
