<svg width="21" height="20" viewBox="0 0 21 20" fill="none" xmlns="http://www.w3.org/2000/svg">
<path d="M10.5 18.3337C15.1024 18.3337 18.8333 14.6027 18.8333 10.0003C18.8333 5.39795 15.1024 1.66699 10.5 1.66699C5.89762 1.66699 2.16666 5.39795 2.16666 10.0003C2.16666 14.6027 5.89762 18.3337 10.5 18.3337Z" stroke="#8F8E93" stroke-width="1.25" stroke-linecap="round" stroke-linejoin="round"/>
<path d="M7.16667 2.5H8C6.375 7.36667 6.375 12.6333 8 17.5H7.16667" stroke="#8F8E93" stroke-width="1.25" stroke-linecap="round" stroke-linejoin="round"/>
<path d="M13 2.5C14.625 7.36667 14.625 12.6333 13 17.5" stroke="#8F8E93" stroke-width="1.25" stroke-linecap="round" stroke-linejoin="round"/>
<path d="M3 13.3333V12.5C7.86667 14.125 13.1333 14.125 18 12.5V13.3333" stroke="#8F8E93" stroke-width="1.25" stroke-linecap="round" stroke-linejoin="round"/>
<path d="M3 7.5C7.86667 5.875 13.1333 5.875 18 7.5" stroke="#8F8E93" stroke-width="1.25" stroke-linecap="round" stroke-linejoin="round"/>
</svg>
