<svg width="19" height="18" viewBox="0 0 19 18" fill="none" xmlns="http://www.w3.org/2000/svg">
<path d="M9.5 16.5C13.6421 16.5 17 13.1421 17 9C17 4.85786 13.6421 1.5 9.5 1.5C5.35786 1.5 2 4.85786 2 9C2 13.1421 5.35786 16.5 9.5 16.5Z" stroke="#23222C" stroke-width="1.125" stroke-linecap="round" stroke-linejoin="round"/>
<path d="M6.49995 2.25H7.24995C5.78745 6.63 5.78745 11.37 7.24995 15.75H6.49995" stroke="#23222C" stroke-width="1.125" stroke-linecap="round" stroke-linejoin="round"/>
<path d="M11.75 2.25C13.2125 6.63 13.2125 11.37 11.75 15.75" stroke="#23222C" stroke-width="1.125" stroke-linecap="round" stroke-linejoin="round"/>
<path d="M2.75 12V11.25C7.13 12.7125 11.87 12.7125 16.25 11.25V12" stroke="#23222C" stroke-width="1.125" stroke-linecap="round" stroke-linejoin="round"/>
<path d="M2.75 6.7502C7.13 5.2877 11.87 5.2877 16.25 6.7502" stroke="#23222C" stroke-width="1.125" stroke-linecap="round" stroke-linejoin="round"/>
</svg>
