<svg width="21" height="20" viewBox="0 0 21 20" fill="none" xmlns="http://www.w3.org/2000/svg">
<path d="M6.87499 17.4255C6.84999 17.4255 6.81665 17.4422 6.79165 17.4422C5.17499 16.6422 3.85832 15.3172 3.04999 13.7005C3.04999 13.6755 3.06665 13.6422 3.06665 13.6172C4.08332 13.9172 5.13332 14.1422 6.17499 14.3172C6.35832 15.3672 6.57499 16.4089 6.87499 17.4255Z" fill="#4534B8"/>
<path d="M17.95 13.7089C17.125 15.3672 15.75 16.7089 14.075 17.5172C14.3917 16.4589 14.6583 15.3922 14.8333 14.3172C15.8833 14.1422 16.9167 13.9172 17.9333 13.6172C17.925 13.6505 17.95 13.6839 17.95 13.7089Z" fill="#4534B8"/>
<path d="M18.0167 6.42604C16.9667 6.10938 15.9083 5.85104 14.8333 5.66771C14.6583 4.59271 14.4 3.52604 14.075 2.48438C15.8 3.30937 17.1917 4.70104 18.0167 6.42604Z" fill="#4534B8"/>
<path d="M6.875 2.57578C6.575 3.59245 6.35834 4.62578 6.18334 5.67578C5.10834 5.84245 4.04167 6.10911 2.98334 6.42578C3.79167 4.75078 5.13334 3.37578 6.79167 2.55078C6.81667 2.55078 6.85 2.57578 6.875 2.57578Z" fill="#4534B8"/>
<path d="M13.4083 5.49297C11.475 5.2763 9.52501 5.2763 7.59167 5.49297C7.80001 4.3513 8.06667 3.20964 8.44167 2.10964C8.45834 2.04297 8.45001 1.99297 8.45834 1.9263C9.11667 1.76797 9.79167 1.66797 10.5 1.66797C11.2 1.66797 11.8833 1.76797 12.5333 1.9263C12.5417 1.99297 12.5417 2.04297 12.5583 2.10964C12.9333 3.21797 13.2 4.3513 13.4083 5.49297Z" fill="#4534B8"/>
<path d="M5.99166 12.9065C4.84166 12.6982 3.70832 12.4315 2.60832 12.0565C2.54166 12.0398 2.49166 12.0482 2.42499 12.0398C2.26666 11.3815 2.16666 10.7065 2.16666 9.99818C2.16666 9.29818 2.26666 8.61484 2.42499 7.96484C2.49166 7.95651 2.54166 7.95651 2.60832 7.93984C3.71666 7.57318 4.84166 7.29818 5.99166 7.08984C5.78332 9.02318 5.78332 10.9732 5.99166 12.9065Z" fill="#4534B8"/>
<path d="M18.8333 9.99818C18.8333 10.7065 18.7333 11.3815 18.575 12.0398C18.5083 12.0482 18.4583 12.0398 18.3917 12.0565C17.2833 12.4232 16.15 12.6982 15.0083 12.9065C15.225 10.9732 15.225 9.02318 15.0083 7.08984C16.15 7.29818 17.2917 7.56484 18.3917 7.93984C18.4583 7.95651 18.5083 7.96484 18.575 7.96484C18.7333 8.62318 18.8333 9.29818 18.8333 9.99818Z" fill="#4534B8"/>
<path d="M13.4083 14.5078C13.2 15.6578 12.9333 16.7911 12.5583 17.8911C12.5417 17.9578 12.5417 18.0078 12.5333 18.0745C11.8833 18.2328 11.2 18.3328 10.5 18.3328C9.79167 18.3328 9.11667 18.2328 8.45834 18.0745C8.45001 18.0078 8.45834 17.9578 8.44167 17.8911C8.07501 16.7828 7.80001 15.6578 7.59167 14.5078C8.55834 14.6161 9.52501 14.6911 10.5 14.6911C11.475 14.6911 12.45 14.6161 13.4083 14.5078Z" fill="#4534B8"/>
<path d="M13.6361 13.1374C11.5519 13.4004 9.44813 13.4004 7.36388 13.1374C7.10092 11.0532 7.10092 8.94944 7.36388 6.86519C9.44813 6.60223 11.5519 6.60223 13.6361 6.86519C13.8991 8.94944 13.8991 11.0532 13.6361 13.1374Z" fill="#4534B8"/>
</svg>
