<svg width="21" height="20" viewBox="0 0 21 20" fill="none" xmlns="http://www.w3.org/2000/svg">
<path fill-rule="evenodd" clip-rule="evenodd" d="M20.5 10.2273C20.5 9.51823 20.4351 8.83641 20.3145 8.18186H10.7041V12.05H16.1957C15.9592 13.3 15.2403 14.3591 14.1595 15.0682V17.5773H17.4573C19.3868 15.8364 20.5 13.2728 20.5 10.2273Z" fill="#4285F4"/>
<path fill-rule="evenodd" clip-rule="evenodd" d="M10.7041 20C13.4592 20 15.769 19.1046 17.4573 17.5773L14.1595 15.0682C13.2458 15.6682 12.077 16.0227 10.7041 16.0227C8.04639 16.0227 5.79685 14.2636 4.99444 11.9H1.58535V14.4909C3.26438 17.7591 6.71522 20 10.7041 20Z" fill="#34A853"/>
<path fill-rule="evenodd" clip-rule="evenodd" d="M4.99444 11.9C4.79036 11.3 4.6744 10.6591 4.6744 10C4.6744 9.34095 4.79035 8.70004 4.99444 8.10004V5.50913H1.58534C0.894249 6.85913 0.5 8.3864 0.5 10C0.5 11.6137 0.894253 13.1409 1.58535 14.4909L4.99444 11.9Z" fill="#FBBC05"/>
<path fill-rule="evenodd" clip-rule="evenodd" d="M10.7041 3.97727C12.2022 3.97727 13.5473 4.48181 14.6048 5.47272L17.5316 2.60454C15.7644 0.990908 13.4546 0 10.7041 0C6.71522 0 3.26438 2.24096 1.58534 5.50913L4.99444 8.10004C5.79685 5.73641 8.04639 3.97727 10.7041 3.97727Z" fill="#EA4335"/>
</svg>
