<svg width="20" height="18" viewBox="0 0 20 18" fill="none" xmlns="http://www.w3.org/2000/svg">
<path d="M9.59965 2.63011L10 3.16524L10.4004 2.63011C11.3204 1.40032 12.7949 0.600586 14.44 0.600586C17.2315 0.600586 19.5 2.87439 19.5 5.69059C19.5 6.82621 19.3189 7.87433 19.0043 8.84667L19.0032 8.84993C18.249 11.2366 16.7035 13.1602 15.0354 14.5939C13.365 16.0294 11.6004 16.9489 10.4589 17.3372L10.4589 17.3372L10.4536 17.3391C10.3537 17.3743 10.1893 17.4006 10 17.4006C9.81075 17.4006 9.64625 17.3743 9.54641 17.3391L9.54642 17.3391L9.54106 17.3372C8.3996 16.9489 6.635 16.0294 4.96465 14.5939C3.29649 13.1602 1.75096 11.2366 0.996763 8.84993L0.996774 8.84993L0.995722 8.84668C0.681141 7.87433 0.5 6.82621 0.5 5.69059C0.5 2.87439 2.76848 0.600586 5.56 0.600586C7.2051 0.600586 8.67958 1.40032 9.59965 2.63011Z" fill="#DC2626" stroke="#DC2626"/>
</svg>
