<svg width="21" height="20" viewBox="0 0 21 20" fill="none" xmlns="http://www.w3.org/2000/svg">
<path d="M17.2 5.68373L12.4 2.3254C11.0917 1.40873 9.08332 1.45873 7.82499 2.43373L3.64999 5.69206C2.81666 6.34206 2.15833 7.6754 2.15833 8.7254V14.4754C2.15833 16.6004 3.88332 18.3337 6.00832 18.3337H14.9917C17.1167 18.3337 18.8417 16.6087 18.8417 14.4837V8.83373C18.8417 7.70873 18.1167 6.3254 17.2 5.68373ZM11.125 15.0004C11.125 15.3421 10.8417 15.6254 10.5 15.6254C10.1583 15.6254 9.87499 15.3421 9.87499 15.0004V12.5004C9.87499 12.1587 10.1583 11.8754 10.5 11.8754C10.8417 11.8754 11.125 12.1587 11.125 12.5004V15.0004Z" fill="#4534B8"/>
</svg>
