<svg width="16" height="17" viewBox="0 0 16 17" fill="none" xmlns="http://www.w3.org/2000/svg">
<path d="M5.64332 14.189C4.98409 14.189 4.33967 13.9935 3.79154 13.6273C3.2434 13.2611 2.81617 12.7405 2.56385 12.1315C2.31154 11.5225 2.24547 10.8523 2.37401 10.2057C2.50254 9.55918 2.81991 8.96524 3.28598 8.49902L4.69998 7.08436L5.64265 8.02702L4.22865 9.44102C3.85355 9.81613 3.64281 10.3249 3.64281 10.8554C3.64281 11.3858 3.85355 11.8946 4.22865 12.2697C4.60376 12.6448 5.11251 12.8555 5.64298 12.8555C6.17346 12.8555 6.68221 12.6448 7.05732 12.2697L8.47065 10.8557L9.41398 11.799L7.99998 13.213C7.69108 13.5235 7.32368 13.7695 6.91905 13.9371C6.51442 14.1046 6.08059 14.1902 5.64265 14.189H5.64332ZM6.11465 11.327L5.17198 10.3844L9.88532 5.67036L10.8287 6.61302L6.11532 11.3264L6.11465 11.327ZM11.3007 9.91302L10.3573 8.97036L11.7707 7.55636C11.9617 7.37191 12.1141 7.15126 12.219 6.90727C12.3239 6.66329 12.3791 6.40086 12.3815 6.1353C12.3839 5.86975 12.3333 5.60638 12.2328 5.36056C12.1323 5.11474 11.9839 4.8914 11.7961 4.70358C11.6084 4.51575 11.3851 4.36719 11.1393 4.26657C10.8936 4.16595 10.6302 4.11528 10.3647 4.11753C10.0991 4.11977 9.83665 4.17488 9.59261 4.27964C9.34858 4.3844 9.12786 4.53671 8.94332 4.72769L7.52865 6.14169L6.58598 5.19902L7.99998 3.78436C8.62778 3.17236 9.47142 2.83234 10.3481 2.83796C11.2249 2.84358 12.0641 3.19438 12.684 3.81437C13.3039 4.43436 13.6546 5.27362 13.66 6.15034C13.6655 7.02706 13.3254 7.87065 12.7133 8.49836L11.3 9.91236V9.91302H11.3007Z" fill="#222C27"/>
</svg>
