<svg width="16" height="16" viewBox="0 0 16 16" fill="none" xmlns="http://www.w3.org/2000/svg">
<path d="M12.5 5.33325V6.73325C12.2067 6.69325 11.8733 6.67325 11.5 6.66658V5.33325C11.5 3.23325 10.9067 1.83325 8 1.83325C5.09333 1.83325 4.5 3.23325 4.5 5.33325V6.66658C4.12667 6.67325 3.79333 6.69325 3.5 6.73325V5.33325C3.5 3.39992 3.96667 0.833252 8 0.833252C12.0333 0.833252 12.5 3.39992 12.5 5.33325Z" fill="#8F8E93"/>
<path d="M12.5 6.73341C12.2067 6.69341 11.8733 6.67341 11.5 6.66675H4.50001C4.12668 6.67341 3.79334 6.69341 3.50001 6.73341C1.80001 6.94008 1.33334 7.77341 1.33334 10.0001V11.3334C1.33334 14.0001 2.00001 14.6667 4.66668 14.6667H11.3333C14 14.6667 14.6667 14.0001 14.6667 11.3334V10.0001C14.6667 7.77341 14.2 6.94008 12.5 6.73341ZM5.80668 11.1401C5.68001 11.2601 5.50668 11.3334 5.33334 11.3334C5.24668 11.3334 5.16001 11.3134 5.08001 11.2801C4.99334 11.2467 4.92668 11.2001 4.86001 11.1401C4.74001 11.0134 4.66668 10.8401 4.66668 10.6667C4.66668 10.5801 4.68668 10.4934 4.72001 10.4134C4.75334 10.3334 4.80001 10.2601 4.86001 10.1934C4.92668 10.1334 4.99334 10.0867 5.08001 10.0534C5.32668 9.94675 5.62001 10.0067 5.80668 10.1934C5.86668 10.2601 5.91334 10.3334 5.94668 10.4134C5.98001 10.4934 6.00001 10.5801 6.00001 10.6667C6.00001 10.8401 5.92668 11.0134 5.80668 11.1401ZM8.61334 10.9201C8.58001 11.0001 8.53334 11.0734 8.47334 11.1401C8.34668 11.2601 8.17334 11.3334 8.00001 11.3334C7.82001 11.3334 7.65334 11.2601 7.52668 11.1401C7.46668 11.0734 7.42001 11.0001 7.38668 10.9201C7.35334 10.8401 7.33334 10.7534 7.33334 10.6667C7.33334 10.4867 7.40668 10.3201 7.52668 10.1934C7.77334 9.94675 8.22001 9.94675 8.47334 10.1934C8.59334 10.3201 8.66668 10.4867 8.66668 10.6667C8.66668 10.7534 8.64668 10.8401 8.61334 10.9201ZM11.14 11.1401C11.0133 11.2601 10.84 11.3334 10.6667 11.3334C10.4933 11.3334 10.32 11.2601 10.1933 11.1401C10.0733 11.0134 10 10.8467 10 10.6667C10 10.4867 10.0733 10.3201 10.1933 10.1934C10.4467 9.94675 10.8933 9.94675 11.14 10.1934C11.1667 10.2267 11.1933 10.2601 11.22 10.3001C11.2467 10.3334 11.2667 10.3734 11.28 10.4134C11.3 10.4534 11.3133 10.4934 11.32 10.5334C11.3267 10.5801 11.3333 10.6267 11.3333 10.6667C11.3333 10.8401 11.26 11.0134 11.14 11.1401Z" fill="#8F8E93"/>
</svg>
