<svg width="132" height="100" viewBox="0 0 132 100" fill="none" xmlns="http://www.w3.org/2000/svg">
<path d="M59.4218 3.41205C60.1278 2.35307 61.5398 1.05875 62.4811 0.588092C63.4812 0.117432 65.1285 -0.117897 66.0699 0.0585999C67.07 0.235097 68.482 0.823422 69.3056 1.47058C70.1293 2.0589 71.1294 3.17672 71.4824 3.94154C71.9883 4.89701 72.2256 8.59078 72.2458 26.051C72.2477 27.6665 71.583 29.2217 70.4102 30.3327L67.776 32.8283C65.305 35.1816 62.2457 38.5939 61.0691 40.3588C60.1505 41.6711 58.9392 43.8616 57.3142 47.583C56.4282 49.6123 53.7404 50.1099 52.2442 48.4777C47.7663 43.5157 42.3707 41.2413 35.7711 41.2413C29.6128 41.2413 23.9984 43.2654 19.7687 47.9482C13.4737 54.4764 11.5213 64.4357 15.5916 72.7167C16.5918 74.8347 18.5921 77.7175 20.004 79.1294C26.4263 85.5517 37.3256 87.7819 45.4785 83.483C53.7575 79.2181 57.3589 71.6712 58.1275 62.8328C58.4805 59.0087 59.3041 54.361 60.1866 51.6547C60.9514 49.1837 62.6576 45.5361 63.8931 43.5946C65.1285 41.6532 67.8937 38.4762 69.9528 36.5347C72.1884 34.3579 75.483 32.1223 78.1305 30.7691C80.5426 29.5925 84.1314 28.1805 86.0729 27.7099C88.0144 27.2392 91.8385 26.8274 94.6036 26.8274C97.3687 26.8274 101.252 27.2392 103.311 27.7099C105.311 28.1805 108.194 29.1807 109.782 29.9455C113.075 31.4653 116.96 29.3226 116.96 25.6959V19.8851C116.96 7.76565 117.078 5.64768 118.019 3.88271C118.666 2.5884 119.843 1.41175 121.372 0.705757C124.696 -0.858309 127.313 0.601166 129.541 2.87499C130.679 4.03645 131.191 5.65321 131.18 7.2792L130.962 38.0055C130.786 70.0104 130.727 71.3635 129.55 74.4817C127.711 79.0796 125.587 83.2738 122.431 87.1307C120.843 89.131 117.666 91.9549 115.195 93.6022C103.95 101.007 89.4479 101.759 77.5422 95.6614C75.7399 94.6943 73.5435 93.2346 70.9039 90.9386C69.2069 89.4626 68.9564 86.9534 70.1881 85.0715C71.3648 83.3065 72.8944 80.3061 73.6004 78.4234C73.9039 77.6143 74.1964 76.8703 74.4408 76.2896C74.795 75.4478 75.4288 75.3828 76.0706 76.0326C76.659 76.6284 77.4536 77.4523 78.307 78.3646C80.2485 80.4826 82.7194 82.3064 85.1904 83.483C90.8075 86.244 98.6196 86.417 104.252 83.6007C106.135 82.6006 108.9 80.6591 110.371 79.1883C118.885 70.674 118.832 55.9389 110.371 47.4776C101.468 38.5746 86.4933 39.2576 78.2482 48.4189C76.3067 50.5369 74.6594 53.0667 73.8946 55.067C73.2474 56.9496 72.4826 60.9502 72.1884 64.4801C71.9531 67.8924 71.1883 72.3637 70.5411 74.4817C69.894 76.5996 68.3643 79.9531 67.1288 81.9534C64.6665 85.94 61.5544 89.6678 57.8333 92.5432C46.4069 101.892 28.5177 102.416 16.3564 94.3082C-6.61785 79.7578 -4.93177 43.8323 18.5332 31.1221C26.2603 26.9891 35.1051 25.7073 43.7135 27.5334C44.8303 27.7703 46.6285 28.377 49.5559 29.6337C53.5451 31.346 58.0897 28.5477 58.1077 24.2066L58.1275 19.4733C58.1275 5.94184 58.1863 5.29469 59.4218 3.41205Z" fill="#4534B8"/>
</svg>
