<svg width="18" height="18" viewBox="0 0 18 18" fill="none" xmlns="http://www.w3.org/2000/svg">
<path d="M16.4775 9.00094C16.4775 11.2059 15.5175 13.2009 13.9875 14.5584C12.6675 15.7584 10.92 16.4784 8.99999 16.4784C4.87499 16.4784 1.52249 13.1259 1.52249 9.00094C1.52249 4.87594 4.87499 1.52344 8.99999 1.52344C10.92 1.52344 12.6675 2.24344 13.9875 3.44344C15.5175 4.80094 16.4775 6.79594 16.4775 9.00094Z" stroke="#8F8E93" stroke-linecap="round" stroke-linejoin="round"/>
<path d="M8.97749 12.2922C8.96249 13.5297 8.03999 13.8297 7.17749 13.4847C5.39999 12.7722 4.14749 11.0322 4.14749 8.99969C4.14749 6.96719 5.39999 5.22719 7.17749 4.50719C8.03999 4.16219 8.96249 4.46969 8.97749 5.69969V12.2922Z" fill="#8F8E93"/>
</svg>
