<svg width="17" height="16" viewBox="0 0 17 16" fill="none" xmlns="http://www.w3.org/2000/svg">
<path d="M15.0417 5.6787V2.65203C15.0417 1.71203 14.615 1.33203 13.555 1.33203H10.8617C9.80167 1.33203 9.375 1.71203 9.375 2.65203V5.67203C9.375 6.6187 9.80167 6.99203 10.8617 6.99203H13.555C14.615 6.9987 15.0417 6.6187 15.0417 5.6787Z" fill="#4534B8"/>
<path d="M15.0417 13.18V10.4867C15.0417 9.42667 14.615 9 13.555 9H10.8617C9.80167 9 9.375 9.42667 9.375 10.4867V13.18C9.375 14.24 9.80167 14.6667 10.8617 14.6667H13.555C14.615 14.6667 15.0417 14.24 15.0417 13.18Z" fill="#4534B8"/>
<path d="M7.37501 5.6787V2.65203C7.37501 1.71203 6.94834 1.33203 5.88834 1.33203H3.19501C2.13501 1.33203 1.70834 1.71203 1.70834 2.65203V5.67203C1.70834 6.6187 2.13501 6.99203 3.19501 6.99203H5.88834C6.94834 6.9987 7.37501 6.6187 7.37501 5.6787Z" fill="#4534B8"/>
<path d="M7.37501 13.18V10.4867C7.37501 9.42667 6.94834 9 5.88834 9H3.19501C2.13501 9 1.70834 9.42667 1.70834 10.4867V13.18C1.70834 14.24 2.13501 14.6667 3.19501 14.6667H5.88834C6.94834 14.6667 7.37501 14.24 7.37501 13.18Z" fill="#4534B8"/>
</svg>
