<svg width="17" height="16" viewBox="0 0 17 16" fill="none" xmlns="http://www.w3.org/2000/svg">
<path d="M15.0417 5.6787V2.65203C15.0417 1.71203 14.615 1.33203 13.555 1.33203H10.8617C9.80167 1.33203 9.375 1.71203 9.375 2.65203V5.67203C9.375 6.6187 9.80167 6.99203 10.8617 6.99203H13.555C14.615 6.9987 15.0417 6.6187 15.0417 5.6787Z" stroke="#C0C0C3" stroke-linecap="round" stroke-linejoin="round"/>
<path d="M15.0417 13.18V10.4867C15.0417 9.42667 14.615 9 13.555 9H10.8617C9.80167 9 9.375 9.42667 9.375 10.4867V13.18C9.375 14.24 9.80167 14.6667 10.8617 14.6667H13.555C14.615 14.6667 15.0417 14.24 15.0417 13.18Z" stroke="#C0C0C3" stroke-linecap="round" stroke-linejoin="round"/>
<path d="M7.375 5.6787V2.65203C7.375 1.71203 6.94833 1.33203 5.88833 1.33203H3.195C2.135 1.33203 1.70833 1.71203 1.70833 2.65203V5.67203C1.70833 6.6187 2.135 6.99203 3.195 6.99203H5.88833C6.94833 6.9987 7.375 6.6187 7.375 5.6787Z" stroke="#C0C0C3" stroke-linecap="round" stroke-linejoin="round"/>
<path d="M7.375 13.18V10.4867C7.375 9.42667 6.94833 9 5.88833 9H3.195C2.135 9 1.70833 9.42667 1.70833 10.4867V13.18C1.70833 14.24 2.135 14.6667 3.195 14.6667H5.88833C6.94833 14.6667 7.375 14.24 7.375 13.18Z" stroke="#C0C0C3" stroke-linecap="round" stroke-linejoin="round"/>
</svg>
