<svg width="16" height="16" viewBox="0 0 16 16" fill="none" xmlns="http://www.w3.org/2000/svg">
<path d="M5.66668 12.6668H5.33334C2.66668 12.6668 1.33334 12.0002 1.33334 8.66683V5.3335C1.33334 2.66683 2.66668 1.3335 5.33334 1.3335H10.6667C13.3333 1.3335 14.6667 2.66683 14.6667 5.3335V8.66683C14.6667 11.3335 13.3333 12.6668 10.6667 12.6668H10.3333C10.1267 12.6668 9.92668 12.7668 9.80001 12.9335L8.80001 14.2668C8.36001 14.8535 7.64001 14.8535 7.20001 14.2668L6.20001 12.9335C6.09334 12.7868 5.84668 12.6668 5.66668 12.6668Z" stroke="#494850" stroke-miterlimit="10" stroke-linecap="round" stroke-linejoin="round"/>
<path d="M10.6643 7.33333H10.6703" stroke="#494850" stroke-width="1.33333" stroke-linecap="round" stroke-linejoin="round"/>
<path d="M7.997 7.33333H8.00299" stroke="#494850" stroke-width="1.33333" stroke-linecap="round" stroke-linejoin="round"/>
<path d="M5.32967 7.33333H5.33566" stroke="#494850" stroke-width="1.33333" stroke-linecap="round" stroke-linejoin="round"/>
</svg>
