<svg width="21" height="20" viewBox="0 0 21 20" fill="none" xmlns="http://www.w3.org/2000/svg">
<path d="M14.6667 2.91797H6.33334C3.83334 2.91797 2.16667 4.16797 2.16667 7.08464V12.918C2.16667 15.8346 3.83334 17.0846 6.33334 17.0846H14.6667C17.1667 17.0846 18.8333 15.8346 18.8333 12.918V7.08464C18.8333 4.16797 17.1667 2.91797 14.6667 2.91797ZM15.0583 7.99297L12.45 10.0763C11.9 10.518 11.2 10.7346 10.5 10.7346C9.8 10.7346 9.09167 10.518 8.55 10.0763L5.94167 7.99297C5.67501 7.7763 5.63334 7.3763 5.84167 7.10963C6.05834 6.84297 6.45001 6.79297 6.71667 7.00963L9.32501 9.09297C9.95834 9.6013 11.0333 9.6013 11.6667 9.09297L14.275 7.00963C14.5417 6.79297 14.9417 6.83464 15.15 7.10963C15.3667 7.3763 15.325 7.7763 15.0583 7.99297Z" fill="#4534B8"/>
</svg>
