<svg width="24" height="24" viewBox="0 0 24 24" fill="none" xmlns="http://www.w3.org/2000/svg">
<path d="M12 15.5C14.21 15.5 16 13.71 16 11.5V6C16 3.79 14.21 2 12 2C9.79 2 8 3.79 8 6V11.5C8 13.71 9.79 15.5 12 15.5Z" stroke="#4534B8" stroke-width="1.5" stroke-linecap="round" stroke-linejoin="round"/>
<path d="M4.35001 9.65039V11.3504C4.35001 15.5704 7.78001 19.0004 12 19.0004C16.22 19.0004 19.65 15.5704 19.65 11.3504V9.65039" stroke="#4534B8" stroke-width="1.5" stroke-linecap="round" stroke-linejoin="round"/>
<path d="M10.61 6.42914C11.51 6.09914 12.49 6.09914 13.39 6.42914" stroke="#4534B8" stroke-width="1.5" stroke-linecap="round" stroke-linejoin="round"/>
<path d="M11.2 8.55031C11.73 8.41031 12.28 8.41031 12.81 8.55031" stroke="#4534B8" stroke-width="1.5" stroke-linecap="round" stroke-linejoin="round"/>
<path d="M12 19V22" stroke="#4534B8" stroke-width="1.5" stroke-linecap="round" stroke-linejoin="round"/>
</svg>
