<svg width="24" height="24" viewBox="0 0 24 24" fill="none" xmlns="http://www.w3.org/2000/svg">
<path d="M22 15V9C22 4 20 2 15 2H9C4 2 2 4 2 9V15C2 20 4 22 9 22H15C20 22 22 20 22 15Z" stroke="#4534B8" stroke-width="1.5" stroke-linecap="round" stroke-linejoin="round"/>
<path d="M8.41998 17.1107C9.28707 17.1107 9.98999 16.4078 9.98999 15.5407C9.98999 14.6736 9.28707 13.9707 8.41998 13.9707C7.5529 13.9707 6.84998 14.6736 6.84998 15.5407C6.84998 16.4078 7.5529 17.1107 8.41998 17.1107Z" stroke="#4534B8" stroke-width="1.5" stroke-linecap="round" stroke-linejoin="round"/>
<path d="M15.75 14.4907V8.3507C15.75 7.0407 14.93 6.86075 14.1 7.09075L10.96 7.95074C10.39 8.11074 10 8.56075 10 9.21075V10.3107V11.0507V15.5507" stroke="#4534B8" stroke-width="1.5" stroke-linecap="round" stroke-linejoin="round"/>
<path d="M14.18 16.0599C15.0471 16.0599 15.75 15.357 15.75 14.4899C15.75 13.6228 15.0471 12.9199 14.18 12.9199C13.3129 12.9199 12.61 13.6228 12.61 14.4899C12.61 15.357 13.3129 16.0599 14.18 16.0599Z" stroke="#4534B8" stroke-width="1.5" stroke-linecap="round" stroke-linejoin="round"/>
<path d="M9.98999 11.0407L15.75 9.4707" stroke="#4534B8" stroke-width="1.5" stroke-linecap="round" stroke-linejoin="round"/>
</svg>
