<svg width="18" height="18" viewBox="0 0 18 18" fill="none" xmlns="http://www.w3.org/2000/svg">
<path d="M8.265 14.625H5.625C5.16 14.625 4.7475 14.61 4.38 14.5575C2.4075 14.34 1.875 13.41 1.875 10.875V7.125C1.875 4.59 2.4075 3.66 4.38 3.4425C4.7475 3.39 5.16 3.375 5.625 3.375H8.22" stroke="#8F8E93" stroke-linecap="round" stroke-linejoin="round"/>
<path d="M11.265 3.375H12.375C12.84 3.375 13.2525 3.39 13.62 3.4425C15.5925 3.66 16.125 4.59 16.125 7.125V10.875C16.125 13.41 15.5925 14.34 13.62 14.5575C13.2525 14.61 12.84 14.625 12.375 14.625H11.265" stroke="#8F8E93" stroke-linecap="round" stroke-linejoin="round"/>
<path d="M11.25 1.5V16.5" stroke="#8F8E93" stroke-linecap="round" stroke-linejoin="round"/>
<path d="M8.32086 9H8.3276" stroke="#8F8E93" stroke-width="1.5" stroke-linecap="round" stroke-linejoin="round"/>
<path d="M5.32086 9H5.3276" stroke="#8F8E93" stroke-width="1.5" stroke-linecap="round" stroke-linejoin="round"/>
</svg>
