<svg width="25" height="25" viewBox="0 0 25 25" fill="none" xmlns="http://www.w3.org/2000/svg">
<path d="M10.6676 19.4723V5.2523C10.6676 3.9023 10.0976 3.3623 8.65758 3.3623H5.02758C3.58758 3.3623 3.01758 3.9023 3.01758 5.2523V19.4723C3.01758 20.8223 3.58758 21.3623 5.02758 21.3623H8.65758C10.0976 21.3623 10.6676 20.8223 10.6676 19.4723Z" fill="white"/>
<path d="M21.0177 19.4723V5.2523C21.0177 3.9023 20.4477 3.3623 19.0077 3.3623H15.3777C13.9477 3.3623 13.3677 3.9023 13.3677 5.2523V19.4723C13.3677 20.8223 13.9377 21.3623 15.3777 21.3623H19.0077C20.4477 21.3623 21.0177 20.8223 21.0177 19.4723Z" fill="white"/>
</svg>
