<svg width="18" height="18" viewBox="0 0 18 18" fill="none" xmlns="http://www.w3.org/2000/svg">
<path d="M13.3522 5.30741L13.571 5.31625L13.5834 5.3039C14.5578 5.22784 15.2949 4.41489 15.3048 3.44042L15.3049 3.44042V3.43532C15.3049 2.3999 14.4642 1.56282 13.4249 1.56282C12.3912 1.56282 11.5524 2.40168 11.5524 3.43532C11.5524 4.44686 12.3424 5.26661 13.3522 5.30741ZM13.4999 5.43282H13.4997H13.4996H13.4995H13.4993H13.4992H13.4991H13.4989H13.4988H13.4987H13.4986H13.4984H13.4983H13.4982H13.498H13.4979H13.4978H13.4977H13.4975H13.4974H13.4973H13.4971H13.497H13.4969H13.4968H13.4966H13.4965H13.4964H13.4962H13.4961H13.496H13.4959H13.4957H13.4956H13.4955H13.4954H13.4952H13.4951H13.495H13.4949H13.4947H13.4946H13.4945H13.4943H13.4942H13.4941H13.494H13.4938H13.4937H13.4936H13.4935H13.4934H13.4932H13.4931H13.493H13.4929H13.4927H13.4926H13.4925H13.4924H13.4922H13.4921H13.492H13.4919H13.4918H13.4916H13.4915H13.4914H13.4913H13.4911H13.491H13.4909H13.4908H13.4907H13.4905H13.4904H13.4903H13.4902H13.4901H13.4899H13.4898H13.4897H13.4896H13.4895H13.4893H13.4892H13.4891H13.489H13.4889H13.4887H13.4886H13.4885H13.4884H13.4883H13.4881H13.488H13.4879H13.4878H13.4877H13.4875H13.4874H13.4873H13.4872H13.4871H13.487H13.4868H13.4867H13.4866H13.4865H13.4864H13.4863H13.4861H13.486H13.4859H13.4858H13.4857H13.4856H13.4854H13.4853H13.4852H13.4851H13.485H13.4849H13.4847H13.4846H13.4845H13.4844H13.4843H13.4842H13.484H13.4839H13.4838H13.4837H13.4836H13.4835H13.4834H13.4832H13.4831H13.483H13.4829H13.4828H13.4827H13.4826H13.4824H13.4823H13.4822H13.4821H13.482H13.4819H13.4818H13.4816H13.4815H13.4814H13.4813H13.4812H13.4811H13.481H13.4809H13.4807H13.4806H13.4805H13.4804H13.4803H13.4802H13.4801H13.4799H13.4798H13.4797H13.4796H13.4795H13.4794H13.4793H13.4792H13.4791H13.4789H13.4788H13.4787H13.4786H13.4785H13.4784H13.4783H13.4782H13.478H13.4779H13.4778H13.4777H13.4776H13.4775H13.4774H13.4773H13.4772H13.477H13.4769H13.4768H13.4767H13.4766H13.4765H13.4764H13.4763H13.4762H13.476H13.4759H13.4758H13.4757H13.4756H13.4755H13.4754H13.4753H13.4752H13.475H13.4749H13.4748H13.4747H13.4746H13.4745H13.4744H13.4743H13.4742H13.474H13.4739H13.4738H13.4737H13.4736H13.4735H13.4734H13.4733H13.4732H13.4731H13.4729H13.4728H13.4727H13.4726H13.4725H13.4724H13.4723H13.4722H13.4721H13.472H13.4718H13.4717H13.4716H13.4715H13.4714H13.4713H13.4712H13.4711H13.471H13.4709H13.4707H13.4706H13.4705H13.4704H13.4703H13.4702H13.4701H13.47H13.4699H13.4698H13.4696H13.4695H13.4694H13.4693H13.4692H13.4691H13.469H13.4689H13.4688H13.4687H13.4685H13.4684H13.4683H13.4682H13.4681H13.468H13.4679H13.4678H13.4677H13.4676H13.4674H13.4673H13.4672H13.4671H13.467H13.4669H13.4668H13.4667H13.4666H13.4665H13.4663H13.4662H13.4661H13.466H13.4659H13.4658H13.4657H13.4656H13.4655H13.4654H13.4652H13.4651H13.465H13.4649H13.4648H13.4647H13.4646H13.4645H13.4644H13.4642H13.4641H13.464H13.4639H13.4638H13.4637H13.4636H13.4635H13.4634H13.4633H13.4631H13.463H13.4629H13.4628H13.4627H13.4626H13.4625H13.4624H13.4623H13.4621H13.462H13.4619H13.4618H13.4617H13.4616H13.4615H13.4614H13.4612H13.4611H13.461H13.4609H13.4608H13.4607H13.4606H13.4605H13.4603H13.4602H13.4601H13.46H13.4599H13.4598H13.4597H13.4596H13.4594H13.4593H13.4592H13.4591H13.459H13.4589H13.4588H13.4587H13.4585H13.4584H13.4583H13.4582H13.4581H13.458H13.4579H13.4577H13.4576H13.4575H13.4574H13.4573H13.4572H13.4571H13.4569H13.4568H13.4567H13.4566H13.4565H13.4564H13.4563H13.4561H13.456H13.4559H13.4558H13.4557H13.4556H13.4555H13.4553H13.4552H13.4551H13.455H13.4549H13.4548H13.4546H13.4545H13.4544H13.4543H13.4542H13.4541H13.4539H13.4538H13.4537H13.4536H13.4535H13.4534H13.4532H13.4531H13.453H13.4529H13.4528H13.4527H13.4525H13.4524H13.4523H13.4522H13.4521H13.4519H13.4518H13.4517H13.4516H13.4515H13.4514H13.4512H13.4511H13.451H13.4509H13.4508H13.4506H13.4505H13.4504H13.4503H13.4502H13.45H13.4499H13.4498H13.4497H13.4496H13.4494H13.4493H13.4492H13.4491H13.449H13.4488H13.4487H13.4486H13.4485H13.4483H13.4482H13.4481H13.448H13.4479H13.4477H13.4476H13.4475H13.4474H13.4472H13.4471H13.447H13.4469H13.4468H13.4466H13.4465H13.4464H13.4463H13.4461H13.446H13.4459H13.4458H13.4456H13.4455H13.4454H13.4453H13.4451H13.445H13.4449H13.4448H13.4446H13.4445H13.4444H13.4443H13.4441H13.444H13.4439H13.4437H13.4436H13.4435H13.4434H13.4432H13.4431H13.443H13.4429H13.4427H13.4426H13.4425H13.4423H13.4422H13.4421H13.442H13.4418H13.4417H13.4416H13.4414H13.4413H13.4412H13.441H13.4409H13.4408H13.4407H13.4405H13.4404H13.4403H13.4401H13.44H13.4399H13.4107C12.259 5.39255 11.4274 4.51267 11.4274 3.44281C11.4274 2.33993 12.3275 1.44531 13.4249 1.44531C14.5208 1.44531 15.4216 2.3457 15.4224 3.44144C15.4158 4.50712 14.608 5.36385 13.5658 5.43672C13.5632 5.43642 13.5611 5.43617 13.5592 5.43597C13.5367 5.43348 13.5188 5.43307 13.5125 5.43294L13.5034 5.43283L13.4999 5.43282Z" fill="#8F8E93" stroke="#8F8E93"/>
<path d="M12.7183 10.8943L12.7183 10.8943L12.7141 10.8936C12.685 10.8886 12.6583 10.8596 12.6654 10.8181C12.6703 10.789 12.6994 10.7622 12.7409 10.7693C13.7632 10.9439 14.8728 10.7617 15.6513 10.2432C16.0848 9.95696 16.415 9.52912 16.415 9.00895C16.415 8.48049 16.0673 8.06253 15.6544 7.78432L15.6544 7.78431L15.6524 7.78292C14.8725 7.26303 13.746 7.08125 12.7152 7.26414L12.7151 7.26407L12.7067 7.26571C12.6938 7.26823 12.6816 7.26596 12.6691 7.25712C12.6558 7.24776 12.646 7.2333 12.6429 7.2148C12.6358 7.17332 12.6625 7.1443 12.6917 7.13932L12.6917 7.13934L12.6951 7.13873C13.8094 6.94048 14.9419 7.1589 15.7196 7.67712C16.2735 8.04869 16.54 8.53673 16.54 9.00895C16.54 9.47634 16.2784 9.97079 15.7201 10.3479C15.1299 10.7364 14.3444 10.9615 13.5075 10.9615C13.2407 10.9615 12.9781 10.9409 12.7183 10.8943Z" fill="#8F8E93" stroke="#8F8E93"/>
<path d="M4.47749 5.9325C4.46999 5.9325 4.46249 5.9325 4.46249 5.9325C3.11249 5.8875 2.05499 4.7925 2.04749 3.4425C2.04749 2.0625 3.17249 0.9375 4.54499 0.9375C5.91749 0.9375 7.04249 2.0625 7.04249 3.435C7.04249 4.7925 5.98499 5.8875 4.63499 5.9325L4.47749 5.37L4.52999 5.9325C4.51499 5.9325 4.49249 5.9325 4.47749 5.9325ZM4.55249 4.8075C4.59749 4.8075 4.63499 4.8075 4.67999 4.815C5.34749 4.785 5.93249 4.185 5.93249 3.4425C5.93249 2.685 5.31749 2.07 4.55999 2.07C3.80249 2.07 3.18749 2.685 3.18749 3.4425C3.18749 4.1775 3.75749 4.77 4.48499 4.815C4.49249 4.8075 4.52249 4.8075 4.55249 4.8075Z" fill="#8F8E93"/>
<path d="M4.47 11.4615C3.5475 11.4615 2.6625 11.214 1.98 10.764C1.32 10.3215 0.9375 9.68395 0.9375 9.00895C0.9375 8.34145 1.32 7.70395 1.98 7.26145C2.88 6.66145 4.1475 6.42896 5.37 6.64646C5.6775 6.69896 5.88 6.99145 5.8275 7.29895C5.775 7.60645 5.4825 7.81645 5.175 7.75645C4.245 7.59145 3.2625 7.76395 2.6025 8.19895C2.25 8.43145 2.0625 8.71645 2.0625 9.00895C2.0625 9.30145 2.2575 9.59396 2.6025 9.82646C3.255 10.2615 4.23 10.434 5.1525 10.2765C5.46 10.224 5.7525 10.434 5.805 10.734C5.8575 11.0415 5.655 11.334 5.3475 11.3864C5.055 11.439 4.7625 11.4615 4.47 11.4615Z" fill="#8F8E93"/>
<path d="M8.99987 11.5344C8.97737 11.5344 8.96237 11.5344 8.93987 11.5344H8.90237C7.48487 11.4894 6.42737 10.3944 6.42737 9.04438C6.42737 7.66438 7.55237 6.54688 8.92487 6.54688C10.2974 6.54688 11.4224 7.67188 11.4224 9.04438C11.4149 10.4019 10.3574 11.4969 9.00737 11.5419C9.00737 11.5344 9.00737 11.5344 8.99987 11.5344ZM8.92487 7.66438C8.16737 7.66438 7.55237 8.27938 7.55237 9.03688C7.55237 9.77938 8.12987 10.3794 8.87237 10.4094C8.87987 10.4019 8.93987 10.4019 9.00737 10.4094C9.73487 10.3719 10.2974 9.77188 10.3049 9.03688C10.3049 8.28688 9.68987 7.66438 8.92487 7.66438Z" fill="#8F8E93"/>
<path d="M8.99984 17.0691C8.09984 17.0691 7.19984 16.8366 6.50234 16.3641C5.84234 15.9216 5.45984 15.2916 5.45984 14.6166C5.45984 13.9491 5.83484 13.3041 6.50234 12.8616C7.90484 11.9316 10.1023 11.9316 11.4973 12.8616C12.1573 13.3041 12.5398 13.9341 12.5398 14.6091C12.5398 15.2766 12.1648 15.9216 11.4973 16.3641C10.7998 16.8291 9.89984 17.0691 8.99984 17.0691ZM7.12484 13.8066C6.77234 14.0391 6.58484 14.3316 6.58484 14.6241C6.58484 14.9166 6.77984 15.2016 7.12484 15.4341C8.13734 16.1166 9.85484 16.1166 10.8673 15.4341C11.2198 15.2016 11.4073 14.9091 11.4073 14.6166C11.4073 14.3241 11.2123 14.0391 10.8673 13.8066C9.86234 13.1241 8.14484 13.1316 7.12484 13.8066Z" fill="#8F8E93"/>
</svg>
