<svg width="17" height="16" viewBox="0 0 17 16" fill="none" xmlns="http://www.w3.org/2000/svg">
<path d="M6.62501 14.6654H10.625C13.9583 14.6654 15.2917 13.332 15.2917 9.9987V5.9987C15.2917 2.66536 13.9583 1.33203 10.625 1.33203H6.62501C3.29168 1.33203 1.95834 2.66536 1.95834 5.9987V9.9987C1.95834 13.332 3.29168 14.6654 6.62501 14.6654Z" stroke="#C0C0C3" stroke-linecap="round" stroke-linejoin="round"/>
<path d="M6.62499 6.66667C7.36137 6.66667 7.95832 6.06971 7.95832 5.33333C7.95832 4.59695 7.36137 4 6.62499 4C5.88861 4 5.29166 4.59695 5.29166 5.33333C5.29166 6.06971 5.88861 6.66667 6.62499 6.66667Z" stroke="#C0C0C3" stroke-linecap="round" stroke-linejoin="round"/>
<path d="M2.405 12.6311L5.69167 10.4244C6.21833 10.0711 6.97833 10.1111 7.45167 10.5178L7.67167 10.7111C8.19167 11.1578 9.03167 11.1578 9.55167 10.7111L12.325 8.33109C12.845 7.88443 13.685 7.88443 14.205 8.33109L15.2917 9.26443" stroke="#C0C0C3" stroke-linecap="round" stroke-linejoin="round"/>
</svg>
