<svg width="17" height="16" viewBox="0 0 17 16" fill="none" xmlns="http://www.w3.org/2000/svg">
<path d="M1.84499 12.6755L1.83166 12.6888C1.65166 12.2955 1.53832 11.8488 1.49166 11.3555C1.53832 11.8421 1.66499 12.2821 1.84499 12.6755Z" fill="#4534B8"/>
<path d="M6.125 6.91943C7.00129 6.91943 7.71166 6.20905 7.71166 5.33276C7.71166 4.45647 7.00129 3.74609 6.125 3.74609C5.24871 3.74609 4.53833 4.45647 4.53833 5.33276C4.53833 6.20905 5.24871 6.91943 6.125 6.91943Z" fill="#4534B8"/>
<path d="M10.9183 1.33203H5.33167C2.905 1.33203 1.45833 2.7787 1.45833 5.20536V10.792C1.45833 11.5187 1.585 12.152 1.83167 12.6854C2.405 13.952 3.63167 14.6654 5.33167 14.6654H10.9183C13.345 14.6654 14.7917 13.2187 14.7917 10.792V9.26536V5.20536C14.7917 2.7787 13.345 1.33203 10.9183 1.33203ZM13.705 8.33203C13.185 7.88536 12.345 7.88536 11.825 8.33203L9.05167 10.712C8.53167 11.1587 7.69167 11.1587 7.17167 10.712L6.945 10.5254C6.47167 10.112 5.71833 10.072 5.185 10.432L2.69167 12.1054C2.545 11.732 2.45833 11.2987 2.45833 10.792V5.20536C2.45833 3.32536 3.45167 2.33203 5.33167 2.33203H10.9183C12.7983 2.33203 13.7917 3.32536 13.7917 5.20536V8.40536L13.705 8.33203Z" fill="#4534B8"/>
</svg>
