<svg width="18" height="18" viewBox="0 0 18 18" fill="none" xmlns="http://www.w3.org/2000/svg">
<path d="M11.6166 14.9851L11.9701 15.3387L12.3237 14.9851L14.2062 13.1026C14.2156 13.0932 14.2303 13.0859 14.2501 13.0859C14.2699 13.0859 14.2846 13.0932 14.2941 13.1026C14.3035 13.1121 14.3108 13.1268 14.3108 13.1466C14.3108 13.1664 14.3035 13.1811 14.2941 13.1905L12.0141 15.4705C12.0056 15.4789 11.9987 15.4828 11.9933 15.485C11.9875 15.4873 11.9799 15.4891 11.9701 15.4891C11.9604 15.4891 11.9528 15.4873 11.9469 15.485C11.9416 15.4828 11.9346 15.4789 11.9262 15.4705L10.7862 14.3305C10.7767 14.3211 10.7695 14.3064 10.7695 14.2866C10.7695 14.2668 10.7767 14.2521 10.7862 14.2426C10.7956 14.2332 10.8103 14.2259 10.8301 14.2259C10.8499 14.2259 10.8646 14.2332 10.8741 14.2426L11.6166 14.9851Z" fill="#8F8E93" stroke="#8F8E93"/>
<path d="M5.60763 4.83L5.6076 4.82638C5.60109 3.92729 5.95186 3.08036 6.59367 2.43855C7.23678 1.79544 8.08536 1.4375 8.99262 1.4375C10.8615 1.4375 12.3851 2.96114 12.3851 4.83C12.3851 6.66597 10.9597 8.14529 9.13339 8.215H9.12012H9.11998H9.11985H9.11972H9.11959H9.11946H9.11933H9.1192H9.11907H9.11894H9.11881H9.11868H9.11855H9.11842H9.11829H9.11816H9.11803H9.1179H9.11777H9.11764H9.11751H9.11738H9.11726H9.11713H9.117H9.11687H9.11674H9.11662H9.11649H9.11636H9.11623H9.11611H9.11598H9.11585H9.11573H9.1156H9.11548H9.11535H9.11522H9.1151H9.11497H9.11485H9.11472H9.1146H9.11447H9.11435H9.11422H9.1141H9.11397H9.11385H9.11372H9.1136H9.11348H9.11335H9.11323H9.11311H9.11298H9.11286H9.11274H9.11261H9.11249H9.11237H9.11225H9.11212H9.112H9.11188H9.11176H9.11163H9.11151H9.11139H9.11127H9.11115H9.11103H9.11091H9.11078H9.11066H9.11054H9.11042H9.1103H9.11018H9.11006H9.10994H9.10982H9.1097H9.10958H9.10946H9.10934H9.10922H9.1091H9.10898H9.10886H9.10875H9.10863H9.10851H9.10839H9.10827H9.10815H9.10803H9.10791H9.1078H9.10768H9.10756H9.10744H9.10733H9.10721H9.10709H9.10697H9.10686H9.10674H9.10662H9.1065H9.10639H9.10627H9.10615H9.10604H9.10592H9.1058H9.10569H9.10557H9.10545H9.10534H9.10522H9.10511H9.10499H9.10487H9.10476H9.10464H9.10453H9.10441H9.1043H9.10418H9.10407H9.10395H9.10384H9.10372H9.10361H9.10349H9.10338H9.10326H9.10315H9.10303H9.10292H9.10281H9.10269H9.10258H9.10246H9.10235H9.10224H9.10212H9.10201H9.10189H9.10178H9.10167H9.10155H9.10144H9.10133H9.10121H9.1011H9.10099H9.10087H9.10076H9.10065H9.10054H9.10042H9.10031H9.1002H9.10008H9.09997H9.09986H9.09975H9.09964H9.09952H9.09941H9.0993H9.09919H9.09907H9.09896H9.09885H9.09874H9.09863H9.09851H9.0984H9.09829H9.09818H9.09807H9.09796H9.09784H9.09773H9.09762H9.09751H9.0974H9.09729H9.09718H9.09706H9.09695H9.09684H9.09673H9.09662H9.09651H9.0964H9.09629H9.09618H9.09607H9.09603C9.03035 8.20745 8.96396 8.20793 8.90309 8.21389C7.01387 8.13641 5.60762 6.65229 5.60763 4.83ZM6.68412 2.51641L6.68408 2.51638L6.67903 2.5215C6.07015 3.1392 5.73262 3.95495 5.73262 4.8225C5.73262 6.58982 7.11445 8.02904 8.88005 8.08227L8.929 8.08375L8.96679 8.07745C8.97274 8.07715 8.9823 8.07687 8.99543 8.07687C9.02391 8.07687 9.05983 8.07819 9.09677 8.08103L9.12732 8.08338L9.15793 8.08198C10.9046 8.00218 12.2601 6.57259 12.2601 4.8225C12.2601 3.03048 10.7904 1.5625 8.99262 1.5625C8.11483 1.5625 7.29983 1.90949 6.68412 2.51641Z" fill="#8F8E93" stroke="#8F8E93"/>
<path d="M8.99262 16.9217C7.46262 16.9217 6.01512 16.5242 4.92012 15.7892C3.87762 15.0917 3.30762 14.1392 3.30762 13.1117C3.30762 12.0842 3.88512 11.1392 4.92012 10.4492C7.16262 8.94922 10.8076 8.94922 13.0501 10.4492C13.3051 10.6217 13.3801 10.9742 13.2076 11.2292C13.0351 11.4917 12.6826 11.5592 12.4276 11.3867C10.5601 10.1417 7.41012 10.1417 5.54262 11.3867C4.82262 11.8667 4.43262 12.4742 4.43262 13.1117C4.43262 13.7492 4.82262 14.3717 5.54262 14.8517C6.45012 15.4592 7.67262 15.7892 8.98512 15.7892C9.29262 15.7892 9.54762 16.0442 9.54762 16.3517C9.54762 16.6592 9.30012 16.9217 8.99262 16.9217Z" fill="#8F8E93"/>
</svg>
