<svg width="18" height="18" viewBox="0 0 18 18" fill="none" xmlns="http://www.w3.org/2000/svg">
<path d="M9.09004 9.58437C9.03754 9.57687 8.97004 9.57687 8.91004 9.58437C7.59004 9.53937 6.54004 8.45938 6.54004 7.13188C6.54004 5.77438 7.63504 4.67188 9.00004 4.67188C10.3575 4.67188 11.46 5.77438 11.46 7.13188C11.4525 8.45938 10.41 9.53937 9.09004 9.58437Z" stroke="#8F8E93" stroke-width="1.125" stroke-linecap="round" stroke-linejoin="round"/>
<path d="M14.0551 14.533C12.7201 15.7555 10.9501 16.498 9.00007 16.498C7.05007 16.498 5.28007 15.7555 3.94507 14.533C4.02007 13.828 4.47007 13.138 5.27257 12.598C7.32757 11.233 10.6876 11.233 12.7276 12.598C13.5301 13.138 13.9801 13.828 14.0551 14.533Z" stroke="#8F8E93" stroke-width="1.125" stroke-linecap="round" stroke-linejoin="round"/>
<path d="M9 16.5C13.1421 16.5 16.5 13.1421 16.5 9C16.5 4.85786 13.1421 1.5 9 1.5C4.85786 1.5 1.5 4.85786 1.5 9C1.5 13.1421 4.85786 16.5 9 16.5Z" stroke="#8F8E93" stroke-width="1.125" stroke-linecap="round" stroke-linejoin="round"/>
</svg>
