<svg width="21" height="20" viewBox="0 0 21 20" fill="none" xmlns="http://www.w3.org/2000/svg">
<path d="M10.0833 17.4993C14.4556 17.4993 18 13.9549 18 9.58268C18 5.21043 14.4556 1.66602 10.0833 1.66602C5.71108 1.66602 2.16667 5.21043 2.16667 9.58268C2.16667 13.9549 5.71108 17.4993 10.0833 17.4993Z" fill="#4534B8"/>
<path d="M18.25 18.3335C18.1 18.3335 17.95 18.2751 17.8417 18.1668L16.2917 16.6168C16.0667 16.3918 16.0667 16.0251 16.2917 15.7918C16.5167 15.5668 16.8833 15.5668 17.1167 15.7918L18.6667 17.3418C18.8917 17.5668 18.8917 17.9335 18.6667 18.1668C18.55 18.2751 18.4 18.3335 18.25 18.3335Z" fill="#4534B8"/>
</svg>
