<svg width="18" height="18" viewBox="0 0 18 18" fill="none" xmlns="http://www.w3.org/2000/svg">
<path d="M7.88697 1.73523L7.88764 1.73498C8.21387 1.61325 8.62158 1.56281 8.99899 1.56281C9.37558 1.56281 9.78228 1.61303 10.1061 1.73551C10.1064 1.73562 10.1067 1.73574 10.107 1.73585L13.8479 3.13773L13.8516 3.1391L13.8516 3.13912C14.2905 3.30755 14.666 3.64911 14.9288 4.0277C15.1913 4.40588 15.3799 4.87674 15.3799 5.34594V10.9184C15.3799 11.3731 15.2252 11.8765 15.0086 12.3107C14.792 12.7449 14.4821 13.1731 14.1149 13.4484L14.114 13.4491L10.8894 15.8563L7.88697 1.73523ZM7.88697 1.73523L4.14557 3.13732C4.1454 3.13738 4.14523 3.13745 4.14506 3.13751C3.70347 3.30198 3.32667 3.64303 3.06356 4.02207C2.80031 4.40134 2.61243 4.87402 2.61243 5.34594V10.9184C2.61243 11.3775 2.76947 11.8832 2.987 12.3172C3.2044 12.7509 3.51448 13.1774 3.87829 13.4491L3.87833 13.4491M7.88697 1.73523L3.87833 13.4491M3.87833 13.4491L7.10298 15.8563M3.87833 13.4491L7.10298 15.8563M7.10298 15.8563C7.10308 15.8564 7.10318 15.8565 7.10327 15.8566M7.10298 15.8563L7.10327 15.8566M7.10327 15.8566C7.10329 15.8566 7.10331 15.8566 7.10332 15.8566M7.10327 15.8566L7.10332 15.8566M7.10332 15.8566C7.6385 16.2567 8.33127 16.4397 8.99618 16.4397M7.10332 15.8566L8.99618 16.4397M8.99618 16.4397C9.66109 16.4397 10.3539 16.2567 10.889 15.8566L8.99618 16.4397ZM3.80903 13.5478L3.8088 13.5476C3.45804 13.2861 3.12272 12.8625 2.8748 12.3692C2.62685 11.8759 2.48743 11.3548 2.48743 10.9184V5.34594C2.48743 4.39839 3.20643 3.35613 4.09694 3.0245L4.0979 3.02414L7.83998 1.6218C7.84005 1.62177 7.84013 1.62174 7.84021 1.62171C8.13996 1.50973 8.55505 1.44531 8.99244 1.44531C9.42988 1.44531 9.84503 1.50975 10.1448 1.62176C10.1448 1.62177 10.1449 1.62178 10.1449 1.6218L13.8948 3.02425L13.8954 3.0245C14.7859 3.35613 15.5049 4.39839 15.5049 5.34594V10.9184C15.5049 11.3548 15.3655 11.8759 15.1176 12.3692C14.8696 12.8625 14.5343 13.2861 14.1836 13.5476L14.1833 13.5478L10.9583 15.9553L10.9574 15.9559C10.4252 16.3551 9.72422 16.5684 8.99993 16.5684C8.27655 16.5684 7.57441 16.3555 7.03328 15.9547C7.03308 15.9545 7.03287 15.9544 7.03267 15.9542L3.80903 13.5478Z" fill="#8F8E93" stroke="#8F8E93"/>
<path d="M8.89894 8.13574L8.90819 8.13609H8.91744H8.91745H8.91745H8.91745H8.91746H8.91746H8.91747H8.91748H8.91748H8.91749H8.9175H8.91751H8.91753H8.91754H8.91755H8.91757H8.91758H8.9176H8.91761H8.91763H8.91765H8.91767H8.91769H8.91771H8.91773H8.91775H8.91777H8.9178H8.91782H8.91785H8.91787H8.9179H8.91793H8.91796H8.91799H8.91802H8.91805H8.91808H8.91811H8.91815H8.91818H8.91822H8.91825H8.91829H8.91833H8.91837H8.91841H8.91845H8.91849H8.91853H8.91857H8.91861H8.91866H8.9187H8.91875H8.91879H8.91884H8.91889H8.91894H8.91899H8.91904H8.91909H8.91914H8.91919H8.91925H8.9193H8.91936H8.91941H8.91947H8.91953H8.91958H8.91964H8.9197H8.91976H8.91982H8.91988H8.91995H8.92001H8.92007H8.92014H8.9202H8.92027H8.92034H8.9204H8.92047H8.92054H8.92061H8.92068H8.92075H8.92083H8.9209H8.92097H8.92105H8.92112H8.9212H8.92128H8.92135H8.92143H8.92151H8.92159H8.92167H8.92175H8.92183H8.92191H8.922H8.92208H8.92217H8.92225H8.92234H8.92242H8.92251H8.9226H8.92269H8.92278H8.92287H8.92296H8.92305H8.92314H8.92323H8.92333H8.92342H8.92352H8.92361H8.92371H8.92381H8.9239H8.924H8.9241H8.9242H8.9243H8.9244H8.92451H8.92461H8.92471H8.92482H8.92492H8.92503H8.92513H8.92524H8.92535H8.92545H8.92556H8.92567H8.92578H8.92589H8.926H8.92612H8.92623H8.92634H8.92646H8.92657H8.92669H8.9268H8.92692H8.92704H8.92715H8.92727H8.92739H8.92751H8.92763H8.92775H8.92787H8.928H8.92812H8.92824H8.92837H8.92849H8.92862H8.92874H8.92887H8.929H8.92913H8.92925H8.92938H8.92951H8.92964H8.92978H8.92991H8.93004H8.93017H8.93031H8.93044H8.93058H8.93071H8.93085H8.93098H8.93112H8.93126H8.9314H8.93154H8.93168H8.93182H8.93196H8.9321H8.93224H8.93238H8.93253H8.93267H8.93282H8.93296H8.93311H8.93325H8.9334H8.93355H8.9337H8.93384H8.93399H8.93414H8.93429H8.93444H8.9346H8.93475H8.9349H8.93505H8.93521H8.93536H8.93552H8.93567H8.93583H8.93599H8.93614H8.9363H8.93646H8.93662H8.93678H8.93694H8.9371H8.93726H8.93742H8.93758H8.93775H8.93791H8.93807H8.93824H8.9384H8.93857H8.93873H8.9389H8.93907H8.93923H8.9394H8.93957H8.93974H8.93991H8.94008H8.94025H8.94042H8.94059H8.94077H8.94094H8.94111H8.94129H8.94146H8.94164H8.94181H8.94199H8.94216H8.94234H8.94252H8.9427H8.94288H8.94305H8.94323H8.94341H8.94359H8.94378H8.94396H8.94414H8.94432H8.94451H8.94469H8.94487H8.94506H8.94524H8.94543H8.94561H8.9458H8.94599H8.94618H8.94636H8.94655H8.94674H8.94693H8.94712H8.94731H8.9475H8.94769H8.94788H8.94808H8.94827H8.94846H8.94866H8.94885H8.94904H8.94924H8.94943H8.94963H8.94983H8.95002H8.95022H8.95042H8.95062H8.95082H8.95102H8.95122H8.95142H8.95162H8.95182H8.95202H8.95222H8.95242H8.95262H8.95283H8.95303H8.95324H8.95344H8.95364H8.95385H8.95406H8.95426H8.95447H8.95468H8.95488H8.95509H8.9553H8.95551H8.95572H8.95593H8.95614H8.95635H8.95656H8.95677H8.95698H8.95719H8.95741H8.95762H8.95783H8.95805H8.95826H8.95847H8.95869H8.9589H8.95912H8.95934H8.95955H8.95977H8.95999H8.9602H8.96042H8.96064H8.96086H8.96108H8.9613H8.96152H8.96174H8.96196H8.96218H8.9624H8.96262H8.96285H8.96307H8.96329H8.96351H8.96374H8.96396H8.96419H8.96441H8.96464H8.96486H8.96509H8.96531H8.96554H8.96577H8.966H8.96622H8.96645H8.96668H8.96691H8.96714H8.96737H8.9676H8.96783H8.96806H8.96829H8.96852H8.96875H8.96898H8.96922H8.96945H8.96968H8.96991H8.97015H8.97038H8.97062H8.97085H8.97109H8.97132H8.97156H8.97179H8.97203H8.97226H8.9725H8.97274H8.97298H8.97321H8.97345H8.97369H8.97393H8.97417H8.97441H8.97465H8.97489H8.97513H8.97537H8.97561H8.97585H8.97609H8.97633H8.97658H8.97682H8.97706H8.9773H8.97755H8.97779H8.97803H8.97828H8.97852H8.97877H8.97901H8.97926H8.9795H8.97975H8.97999H8.98024H8.98049H8.98073H8.98098H8.98123H8.98148H8.98172H8.98197H8.98222H8.98247H8.98272H8.98297H8.98322H8.98347H8.98372H8.98397H8.98422H8.98447H8.98472H8.98497H8.98522H8.98547H8.98573H8.98598H8.98623H8.98648H8.98674H8.98699H8.98724H8.9875H8.98775H8.98801H8.98826H8.98852H8.98877H8.98903H8.98928H8.98954H8.98979H8.99005H8.9903H8.99056H8.99082H8.99107H8.99133H8.99159H8.99185H8.9921H8.99236H8.99262H8.99288H8.99314H8.9934H8.99366H8.99392H8.99417H8.99443H8.99469H8.99495H8.99521H8.99547H8.99574H8.996H8.99626H8.99652H8.99678H8.99704H8.9973H8.99757H8.99783H8.99809H8.99835H8.99862H8.99888H8.99914H8.9994H8.99967H8.99993H9.01407L9.02819 8.13529C9.69569 8.0975 10.2027 7.54443 10.2049 6.88306C10.2151 6.17395 9.63381 5.62109 8.94743 5.62109C8.25126 5.62109 7.68994 6.18248 7.68994 6.8786C7.68994 7.56095 8.22609 8.11082 8.89894 8.13574ZM8.99993 8.2536H8.99984H8.99976H8.99967H8.99958H8.99949H8.9994H8.99932H8.99923H8.99914H8.99905H8.99896H8.99888H8.99879H8.9987H8.99861H8.99852H8.99844H8.99835H8.99826H8.99817H8.99809H8.998H8.99791H8.99782H8.99773H8.99765H8.99756H8.99747H8.99738H8.99729H8.99721H8.99712H8.99703H8.99694H8.99685H8.99676H8.99668H8.99659H8.9965H8.99641H8.99632H8.99624H8.99615H8.99606H8.99597H8.99588H8.99579H8.99571H8.99562H8.99553H8.99544H8.99535H8.99526H8.99518H8.99509H8.995H8.99491H8.99482H8.99473H8.99465H8.99456H8.99447H8.99438H8.99429H8.9942H8.99411H8.99403H8.99394H8.99385H8.99376H8.99367H8.99358H8.99349H8.9934H8.99332H8.99323H8.99314H8.99305H8.99296H8.99287H8.99278H8.99269H8.9926H8.99251H8.99243H8.99234H8.99225H8.99216H8.99207H8.99198H8.99189H8.9918H8.99171H8.99162H8.99153H8.99144H8.99135H8.99126H8.99118H8.99109H8.991H8.99091H8.99082H8.99073H8.99064H8.99055H8.99046H8.99037H8.99028H8.99019H8.9901H8.99001H8.98992H8.98983H8.98974H8.98965H8.98956H8.98947H8.98938H8.98929H8.9892H8.98911H8.98902H8.98893H8.98884H8.98874H8.98865H8.98856H8.98847H8.98838H8.98829H8.9882H8.98811H8.98802H8.98793H8.98784H8.98775H8.98765H8.98756H8.98747H8.98738H8.98729H8.9872H8.98711H8.98702H8.98692H8.98683H8.98674H8.98665H8.98656H8.98647H8.98637H8.98628H8.98619H8.9861H8.98601H8.98592H8.98582H8.98573H8.98564H8.98555H8.98545H8.98536H8.98527H8.98518H8.98508H8.98499H8.9849H8.98481H8.98471H8.98462H8.98453H8.98444H8.98434H8.98425H8.98416H8.98406H8.98397H8.98388H8.98378H8.98369H8.9836H8.9835H8.98341H8.98332H8.98322H8.98313H8.98303H8.98294H8.98285H8.98275H8.98266H8.98257H8.98247H8.98238H8.98228H8.98219H8.98209H8.982H8.9819H8.98181H8.98171H8.98162H8.98153H8.98143H8.98134H8.98124H8.98115H8.98105H8.98095H8.98086H8.98076H8.98067H8.98057H8.98048H8.98038H8.98029H8.98019H8.98009H8.98H8.9799H8.97981H8.97971H8.97961H8.97952H8.97942H8.97932H8.97923H8.97913H8.97903H8.97894H8.97884H8.97874H8.97865H8.97855H8.97845H8.97835H8.97826H8.97816H8.97806H8.97796H8.97787H8.97777H8.97767H8.97757H8.97748H8.97738H8.97728H8.97718H8.97708H8.97698H8.97689H8.97679H8.97669H8.97659H8.97649H8.97639H8.97629H8.97619H8.97609H8.976H8.9759H8.9758H8.9757H8.9756H8.9755H8.9754H8.9753H8.9752H8.9751H8.975H8.9749H8.9748H8.9747H8.9746H8.9745H8.97439H8.97429H8.97419H8.97409H8.97399H8.97389H8.97379H8.97369H8.97359H8.97348H8.97338H8.97328H8.97318H8.97308H8.97297H8.97287H8.97277H8.97267H8.97257H8.97246H8.97236H8.97226H8.97215H8.97205H8.97195H8.97185H8.97174H8.97164H8.97154H8.97143H8.97133H8.97122H8.97112H8.97102H8.97091H8.97081H8.9707H8.9706H8.9705H8.97039H8.97029H8.97018H8.97008H8.96997H8.96987H8.96976H8.96966H8.96955H8.96944H8.96934H8.96923H8.96913H8.96902H8.96892H8.96881H8.9687H8.9686H8.96849H8.96838H8.96828H8.96817H8.96806H8.96796H8.96785H8.96774H8.96763H8.96753H8.96742H8.96731H8.9672H8.96709H8.96699H8.96688H8.96677H8.96666H8.96655H8.96644H8.96633H8.96623H8.96612H8.96601H8.9659H8.96579H8.96568H8.96557H8.96546H8.96535H8.96524H8.96513H8.96502H8.96491H8.9648H8.96469H8.96458H8.96447H8.96435H8.96424H8.96413H8.96402H8.96391H8.9638H8.96369H8.96357H8.96346H8.96335H8.96324H8.96313H8.96301H8.9629H8.96279H8.96267H8.96256H8.96245H8.96233H8.96222H8.96211H8.96199H8.96188H8.96177H8.96165H8.96154H8.96142H8.96131H8.96119H8.96108H8.96096H8.96085H8.96073H8.96062H8.9605H8.96039H8.96027H8.96016H8.96004H8.95992H8.95981H8.95969H8.95957H8.95946H8.95934H8.95922H8.95911H8.95899H8.95887H8.95875H8.95864H8.95852H8.9584H8.95828H8.95816H8.95805H8.95793H8.95781H8.95769H8.95757H8.95745H8.95733H8.95721H8.95709H8.95697H8.95685H8.95673H8.95661H8.95649H8.95637H8.95625H8.95613H8.95601H8.95589H8.95577H8.95565H8.95553H8.95541H8.95528H8.95516H8.95504H8.95492H8.95479H8.95476C8.13373 8.22782 7.56494 7.61081 7.56494 6.8786C7.56494 6.11974 8.18858 5.49609 8.94743 5.49609C9.70568 5.49609 10.3289 6.11874 10.3299 6.87678C10.3236 7.60849 9.77312 8.19691 9.06413 8.2573C9.0605 8.25686 9.05698 8.25648 9.05356 8.25614C9.03439 8.25425 9.01909 8.25384 9.01213 8.25371L9.00333 8.25361L8.99993 8.2536Z" fill="#8F8E93" stroke="#8F8E93"/>
<path d="M8.99986 13.0113C8.35486 13.0113 7.70237 12.8388 7.19987 12.5013C6.69737 12.1713 6.41235 11.6838 6.41235 11.1663C6.41235 10.6488 6.69737 10.1613 7.19987 9.82375C8.21237 9.14875 9.79486 9.15625 10.7999 9.82375C11.3024 10.1538 11.5874 10.6413 11.5874 11.1588C11.5874 11.6763 11.3024 12.1638 10.7999 12.5013C10.2974 12.8388 9.64486 13.0113 8.99986 13.0113ZM7.82236 10.7537C7.63486 10.8737 7.52985 11.0238 7.53735 11.1588C7.53735 11.2938 7.64236 11.4438 7.82236 11.5638C8.45236 11.9838 9.54737 11.9838 10.1774 11.5638C10.3649 11.4438 10.4699 11.2938 10.4699 11.1588C10.4699 11.0238 10.3649 10.8737 10.1849 10.7537C9.55485 10.3412 8.45236 10.3412 7.82236 10.7537Z" fill="#8F8E93"/>
</svg>
