<svg width="16" height="9" viewBox="0 0 16 9" fill="none" xmlns="http://www.w3.org/2000/svg">
<path d="M4.02151 8.21922L3.91544 8.11314L0.416102 4.61346C0.416072 4.61343 0.416043 4.6134 0.416013 4.61337L0.415925 4.61328L0.521996 4.50722C0.414543 4.40011 0.414543 4.22611 0.521996 4.119L4.02151 8.21922ZM4.02151 8.21922L4.12758 8.11315L10.6692 1.57114L4.02151 8.21922ZM1.0164 4.01305C0.850726 3.8469 0.581653 3.84687 0.415932 4.01293L10.6694 1.57097C10.8355 1.40527 10.8354 1.13627 10.6694 0.970592C10.5036 0.804434 10.2349 0.804746 10.0691 0.970618L10.0691 0.970627L4.02185 7.01885L1.01645 4.01311L0.910215 4.119L1.01629 4.01294L1.0164 4.01305Z" fill="#81848F" stroke="#81848F" stroke-width="0.3"/>
<path d="M8.37731 7.01885L14.4247 0.970789C14.4247 0.970781 14.4247 0.970773 14.4247 0.970764L14.4249 0.970624L14.5309 1.07668C14.638 0.96923 14.8117 0.96923 14.9192 1.07668C15.0263 1.18379 15.0263 1.3578 14.9192 1.46456L8.37731 7.01885ZM8.37731 7.01885L7.29897 5.94051L7.19291 5.83445L7.08684 5.94051L6.69862 6.32873L6.59254 6.43481L6.69863 6.54087L8.27127 8.11316L8.37734 8.21921L8.48339 8.11314L15.025 1.57079L8.37731 7.01885Z" fill="#81848F" stroke="#81848F" stroke-width="0.3"/>
</svg>
