<svg width="19" height="21" viewBox="0 0 19 21" fill="none" xmlns="http://www.w3.org/2000/svg">
<path d="M9.67041 20.4637C14.7065 20.4637 18.855 16.3153 18.855 11.2791C18.855 6.89338 15.7173 3.1844 11.5776 2.2967V0.969553C11.5776 0.257639 11.0239 0.0554905 10.4263 0.486155L7.33252 2.701C6.84912 3.05256 6.85791 3.59748 7.33252 3.94026L10.4175 6.16389C11.0151 6.59455 11.5776 6.40119 11.5776 5.68049V4.41487C14.5923 5.24104 16.7896 7.99201 16.7896 11.2791C16.7896 15.2254 13.6167 18.4071 9.67041 18.4071C5.72412 18.4071 2.54248 15.2254 2.55127 11.2791C2.56006 9.05549 3.5708 7.11311 5.1792 5.80354C5.63623 5.37287 5.78564 4.77522 5.39893 4.29182C5.04736 3.84358 4.40576 3.78205 3.86084 4.24787C1.83057 5.80354 0.48584 8.53694 0.48584 11.2791C0.48584 16.3153 4.63428 20.4637 9.67041 20.4637ZM7.22705 15.0233C7.65771 15.0233 7.93018 14.7332 7.93018 14.2762V8.90608C7.93018 8.31721 7.60498 8.00959 7.09521 8.00959C6.7876 8.00959 6.5415 8.10627 6.18115 8.39631L5.1001 9.2049C4.84521 9.42463 4.73096 9.61799 4.73096 9.87287C4.73096 10.2156 4.99463 10.4881 5.32861 10.4881C5.54834 10.4881 5.68018 10.4354 5.85596 10.242L6.52393 9.67072H6.53271V14.2762C6.53271 14.7332 6.80518 15.0233 7.22705 15.0233ZM11.5952 15.0936C13.0894 15.0936 14.0649 14.1356 14.0649 12.6502C14.0649 11.3231 13.1685 10.453 12.0083 10.453C11.4546 10.453 10.9097 10.7166 10.6636 11.1385L10.7954 9.32795H13.2388C13.5903 9.32795 13.8452 9.07307 13.8452 8.70393C13.8452 8.33479 13.5903 8.09748 13.2388 8.09748H10.4526C9.95166 8.09748 9.66162 8.4051 9.62646 8.95881L9.45947 11.4461C9.42432 11.9383 9.69678 12.2108 10.145 12.2108C10.4966 12.2108 10.6196 12.1317 10.8394 11.9559C11.1294 11.7098 11.3755 11.578 11.7095 11.578C12.3335 11.578 12.7202 12.035 12.7202 12.6942C12.7202 13.3621 12.2632 13.8631 11.6304 13.8631C11.147 13.8631 10.7778 13.5819 10.5493 13.1951C10.4175 12.993 10.2593 12.8699 9.99561 12.8699C9.64404 12.8699 9.39795 13.1248 9.39795 13.4852C9.39795 13.617 9.41553 13.7488 9.48584 13.8895C9.72314 14.4783 10.5054 15.0936 11.5952 15.0936Z" fill="#D9D9D9"/>
</svg>
