<svg width="19" height="21" viewBox="0 0 19 21" fill="none" xmlns="http://www.w3.org/2000/svg">
<path d="M0.180176 11.2684C0.180176 16.2957 4.31982 20.4354 9.34717 20.4354C14.3745 20.4354 18.5142 16.2957 18.5142 11.2684C18.5142 8.50863 17.1519 5.78402 15.104 4.21077C14.5679 3.77132 13.9438 3.82405 13.6099 4.2723C13.2319 4.74691 13.3813 5.32698 13.8296 5.74007C15.4644 7.05843 16.4927 9.01839 16.5015 11.2684C16.5103 15.2323 13.311 18.4227 9.34717 18.4227C5.3833 18.4227 2.20166 15.2323 2.20166 11.2684C2.20166 7.95491 4.4165 5.19515 7.45752 4.38655V5.6346C7.45752 6.33773 8.01123 6.53988 8.59131 6.118L11.6587 3.92073C12.1333 3.58675 12.1333 3.05062 11.6587 2.70784L8.6001 0.510578C8.01123 0.0887031 7.45752 0.282062 7.45752 0.993977V2.30355C3.32666 3.18245 0.180176 6.89144 0.180176 11.2684ZM6.88623 14.995C7.30811 14.995 7.58057 14.7137 7.58057 14.2567V8.87777C7.58057 8.30648 7.26416 7.99886 6.75439 7.99886C6.45557 7.99886 6.21826 8.09554 5.85791 8.37679L4.77686 9.18538C4.52197 9.40511 4.40771 9.58968 4.40771 9.84456C4.40771 10.1785 4.67139 10.4598 4.99658 10.4598C5.21631 10.4598 5.34814 10.3983 5.51514 10.2137L6.19189 9.64241H6.20068V14.2567C6.20068 14.7137 6.47314 14.995 6.88623 14.995ZM11.2632 15.0741C12.7573 15.0741 13.7241 14.116 13.7241 12.6395C13.7241 11.3123 12.8364 10.4422 11.6675 10.4422C11.1138 10.4422 10.5688 10.6971 10.3228 11.119L10.4546 9.30843H12.9067C13.2583 9.30843 13.5132 9.05355 13.5132 8.6932C13.5132 8.33284 13.2583 8.09554 12.9067 8.09554H10.1294C9.62842 8.09554 9.34717 8.40316 9.31201 8.93929L9.13623 11.4266C9.10107 11.9188 9.37354 12.1825 9.81299 12.1825C10.1646 12.1825 10.2876 12.1121 10.5073 11.9364C10.8062 11.6815 11.0522 11.5496 11.3774 11.5496C12.0103 11.5496 12.4058 12.0155 12.4058 12.6746C12.4058 13.3514 11.9399 13.8612 11.3071 13.8612C10.8149 13.8612 10.4458 13.5799 10.2085 13.1932C10.0767 12.9823 9.91846 12.8592 9.66357 12.8592C9.31201 12.8592 9.06592 13.1053 9.06592 13.4569C9.06592 13.5975 9.09229 13.7205 9.15381 13.87C9.39111 14.4588 10.1733 15.0741 11.2632 15.0741Z" fill="#D9D9D9"/>
</svg>
