<svg width="274" height="149" viewBox="0 0 274 149" fill="none" xmlns="http://www.w3.org/2000/svg">
<g opacity="0.5" filter="url(#filter0_f_2515_11197)">
<g filter="url(#filter1_f_2515_11197)">
<ellipse cx="156.697" cy="89.4268" rx="50.3433" ry="39.5733" fill="#A22EBF" fill-opacity="0.34"/>
</g>
<g opacity="0.6" filter="url(#filter2_f_2515_11197)">
<path d="M92.5795 87.0781C98.8715 71.0927 114.116 43.8561 123.365 79.4202C127.185 94.1084 136.848 124.113 140.274 106.662L145.612 87.0781C149.207 73.4361 157.836 54.3372 163.589 87.0781C169.342 119.819 174.675 113.609 176.622 106.411C182.315 82.6424 191.723 43.2394 196.397 71.7622C201.071 100.285 206.06 118.463 209.206 111.433C217.399 93.1232 216.209 57.3167 220.441 65.9873C222.464 70.1302 226.733 98.0001 230.778 103.775C234.014 108.395 235.347 93.5225 235.048 87.0781" stroke="#703970" stroke-opacity="0.67" stroke-width="0.531645"/>
<path d="M93.026 87.5997C99.2786 72.7113 114.427 47.3439 123.619 80.4673C127.415 94.1475 137.017 122.093 140.421 105.84L145.726 87.5997C149.299 74.8939 157.874 57.1057 163.59 87.5997C169.307 118.094 174.607 112.31 176.542 105.606C182.199 83.4684 191.548 46.7695 196.193 73.3348C200.837 99.9002 205.795 116.831 208.921 110.283C217.063 93.2299 215.88 59.8807 220.086 67.9563C222.096 71.8148 226.339 97.7722 230.358 103.151C233.574 107.454 234.899 93.6018 234.601 87.5997" stroke="#703970" stroke-opacity="0.67" stroke-width="0.531645"/>
<path d="M92.5793 88.3696C98.8712 74.4215 114.115 50.6563 123.365 81.6876C127.185 94.5038 136.848 120.684 140.273 105.458L145.612 88.3696C149.207 76.4662 157.836 59.8015 163.589 88.3696C169.341 116.938 174.674 111.519 176.622 105.239C182.315 84.4992 191.723 50.1181 196.397 75.0057C201.071 99.8932 206.059 115.755 209.205 109.62C217.399 93.6442 216.208 62.4012 220.441 69.9668C222.463 73.5816 226.733 97.8996 230.778 102.938C234.014 106.969 235.347 93.9926 235.047 88.3696" stroke="#703970" stroke-opacity="0.67" stroke-width="0.531645"/>
<path d="M92.5793 87.3666C98.8712 73.4185 114.115 49.6533 123.365 80.6847C127.185 93.5009 136.848 119.681 140.273 104.455L145.612 87.3666C149.207 75.4633 157.836 58.7986 163.589 87.3666C169.341 115.935 174.674 110.516 176.622 104.236C182.315 83.4962 191.723 49.1152 196.397 74.0027C201.071 98.8903 206.059 114.752 209.205 108.617C217.399 92.6413 216.208 61.3983 220.441 68.9639C222.463 72.5787 226.733 96.8966 230.778 101.935C234.014 105.967 235.347 92.9897 235.047 87.3666" stroke="#703970" stroke-opacity="0.67" stroke-width="0.531645"/>
<path d="M92.5793 86.1127C98.8712 72.1646 114.115 48.3994 123.365 79.4308C127.185 92.247 136.848 118.427 140.273 103.201L145.612 86.1127C149.207 74.2094 157.836 57.5447 163.589 86.1127C169.341 114.681 174.674 109.262 176.622 102.982C182.315 82.2423 191.723 47.8613 196.397 72.7488C201.071 97.6364 206.059 113.498 209.205 107.364C217.399 91.3873 216.208 60.1444 220.441 67.71C222.463 71.3248 226.733 95.6427 230.778 100.682C234.014 104.713 235.347 91.7358 235.047 86.1127" stroke="#703970" stroke-opacity="0.67" stroke-width="0.531645"/>
<path d="M93.026 87.5191C99.2786 75.0598 114.427 53.8314 123.619 81.5504C127.415 92.9986 137.017 116.384 140.421 102.783L145.726 87.5191C149.299 76.8863 157.874 62.0004 163.59 87.5191C169.307 113.038 174.607 108.198 176.542 102.588C182.199 84.0618 191.548 53.3507 196.193 75.5817C200.837 97.8127 205.795 111.981 208.921 106.502C217.063 92.2307 215.88 64.3227 220.086 71.0807C222.096 74.3097 226.339 96.0319 230.358 100.533C233.574 104.134 234.899 92.542 234.601 87.5191" stroke="#703970" stroke-opacity="0.67" stroke-width="0.531645"/>
<path d="M93.026 87.0378C99.2786 75.6755 114.427 56.3162 123.619 81.5946C127.415 92.0347 137.017 113.361 140.421 100.958L145.726 87.0378C149.299 77.3412 157.874 63.766 163.59 87.0378C169.307 110.31 174.607 105.895 176.542 100.78C182.199 83.8849 191.548 55.8779 196.193 76.1514C200.837 96.425 205.795 109.346 208.921 104.349C217.063 91.3345 215.88 65.8838 220.086 72.0467C222.096 74.9914 226.339 94.8009 230.358 98.9056C233.574 102.189 234.899 91.6183 234.601 87.0378" stroke="#703970" stroke-opacity="0.67" stroke-width="0.531645"/>
<path d="M92.5793 86.8047C98.8515 76.3828 114.048 58.6256 123.268 81.812C127.077 91.3881 136.709 110.95 140.124 99.5729L145.445 86.8047C149.029 77.9106 157.631 65.4589 163.366 86.8047C169.101 108.151 174.417 104.102 176.359 99.4092C182.033 83.9128 191.412 58.2236 196.071 76.8193C200.731 95.4151 205.704 107.267 208.84 102.683C217.008 90.7458 215.821 67.4014 220.04 73.0543C222.056 75.7553 226.313 93.9254 230.345 97.6904C233.57 100.702 234.9 91.0062 234.601 86.8047" stroke="#703970" stroke-opacity="0.67" stroke-width="0.531645"/>
<path d="M93.026 86.9487C99.2786 77.5455 114.427 61.524 123.619 82.444C127.415 91.0842 137.017 108.734 140.421 98.4689L145.726 86.9487C149.299 78.924 157.874 67.6893 163.59 86.9487C169.307 106.208 174.607 102.555 176.542 98.3212C182.199 84.3394 191.548 61.1612 196.193 77.9393C200.837 94.7175 205.795 105.411 208.921 101.275C217.063 90.5046 215.88 69.442 220.086 74.5424C222.096 76.9793 226.339 93.3734 230.358 96.7704C233.574 99.488 234.899 90.7395 234.601 86.9487" stroke="#703970" stroke-opacity="0.67" stroke-width="0.531645"/>
<path d="M93.026 87.3379C99.2786 78.6399 114.427 63.82 123.619 83.171C127.415 91.1632 137.017 107.489 140.421 97.994L145.726 87.3379C149.299 79.915 157.874 69.523 163.59 87.3379C169.307 105.153 174.607 101.774 176.542 97.8574C182.199 84.9243 191.548 63.4845 196.193 79.0042C200.837 94.524 205.795 104.415 208.921 100.59C217.063 90.6271 215.88 71.1441 220.086 75.862C222.096 78.1162 226.339 93.2807 230.358 96.4229C233.574 98.9367 234.899 90.8444 234.601 87.3379" stroke="#703970" stroke-opacity="0.67" stroke-width="0.531645"/>
<path d="M93.026 87.1048C99.2786 79.3472 114.427 66.1294 123.619 83.3885C127.415 90.5166 137.017 105.077 140.421 96.609L145.726 87.1048C149.299 80.4844 157.874 71.2158 163.59 87.1048C169.307 102.994 174.607 99.9801 176.542 96.4871C182.199 84.9522 191.548 65.8301 196.193 79.6721C200.837 93.514 205.795 102.336 208.921 98.9241C217.063 90.0385 215.88 72.6618 220.086 76.8696C222.096 78.8801 226.339 92.4052 230.358 95.2077C233.574 97.4497 234.899 90.2323 234.601 87.1048" stroke="#703970" stroke-opacity="0.67" stroke-width="0.531645"/>
<path d="M93.026 87.1223C99.2786 80.3049 114.427 68.6893 123.619 83.8564C127.415 90.1205 137.017 102.916 140.421 95.4744L145.726 87.1223C149.299 81.3043 157.874 73.1592 163.59 87.1223C169.307 101.085 174.607 98.4369 176.542 95.3673C182.199 85.2305 191.548 68.4263 196.193 80.5905C200.837 92.7546 205.795 100.507 208.921 97.5089C217.063 89.7003 215.88 74.4299 220.086 78.1277C222.096 79.8945 226.339 91.7802 230.358 94.243C233.574 96.2132 234.899 89.8706 234.601 87.1223" stroke="#703970" stroke-opacity="0.67" stroke-width="0.531645"/>
<path d="M93.026 87.3897C99.2786 81.5127 114.427 71.4993 123.619 84.5743C127.415 89.9743 137.017 101.005 140.421 94.5898L145.726 87.3897C149.299 82.3742 157.874 75.3526 163.59 87.3897C169.307 99.4268 174.607 97.1437 176.542 94.4975C182.199 85.7589 191.548 71.2725 196.193 81.7588C200.837 92.2452 205.795 98.9283 208.921 96.3437C217.063 89.6121 215.88 76.448 220.086 79.6357C222.096 81.1588 226.339 91.4051 230.358 93.5283C233.574 95.2267 234.899 89.759 234.601 87.3897" stroke="#703970" stroke-opacity="0.67" stroke-width="0.531645"/>
<path d="M92.5793 87.2832C98.8515 82.4249 114.048 74.1471 123.268 84.9558C127.077 89.4199 136.709 98.5388 140.124 93.2353L145.445 87.2832C149.029 83.1371 157.631 77.3325 163.366 87.2832C169.101 97.2339 174.417 95.3465 176.359 93.159C182.033 85.9351 191.412 73.9597 196.071 82.6284C200.731 91.2971 205.704 96.8218 208.84 94.6852C217.008 89.1204 215.821 78.2381 220.04 80.8733C222.056 82.1324 226.313 90.6026 230.345 92.3578C233.57 93.7618 234.9 89.2418 234.601 87.2832" stroke="#703970" stroke-opacity="0.67" stroke-width="0.531645"/>
<path d="M93.026 87.5458C99.2983 83.3144 114.495 76.1047 123.715 85.5187C127.523 89.4068 137.156 97.349 140.571 92.7299L145.892 87.5458C149.476 83.9347 158.078 78.8791 163.813 87.5458C169.547 96.2125 174.864 94.5687 176.805 92.6634C182.48 86.3716 191.859 75.9414 196.518 83.4916C201.177 91.0417 206.15 95.8536 209.287 93.9927C217.454 89.146 216.268 79.6678 220.487 81.963C222.503 83.0596 226.759 90.4369 230.791 91.9656C234.017 93.1885 235.346 89.2517 235.048 87.5458" stroke="#703970" stroke-opacity="0.67" stroke-width="0.531645"/>
<path d="M93.026 87.6898C99.2983 84.4771 114.495 79.003 123.715 86.1507C127.523 89.1028 137.156 95.133 140.571 91.6259L145.892 87.6898C149.476 84.948 158.078 81.1095 163.813 87.6898C169.547 94.2701 174.864 93.022 176.805 91.5754C182.48 86.7983 191.859 78.8791 196.518 84.6116C201.177 90.3441 206.15 93.9976 209.287 92.5847C217.454 88.9048 216.268 81.7084 220.487 83.451C222.503 84.2836 226.759 89.8849 230.791 91.0456C234.017 91.9741 235.346 88.985 235.048 87.6898" stroke="#703970" stroke-opacity="0.67" stroke-width="0.531645"/>
<path d="M92.5793 87.7073C98.8909 85.4348 114.183 81.563 123.461 86.6186C127.294 88.7067 136.987 92.972 140.423 90.4913L145.778 87.7073C149.384 85.7679 158.041 83.0529 163.811 87.7073C169.582 92.3616 174.932 91.4788 176.885 90.4556C182.596 87.0767 192.034 81.4753 196.722 85.53C201.411 89.5847 206.415 92.1689 209.571 91.1695C217.79 88.5666 216.596 83.4765 220.842 84.7091C222.871 85.298 227.154 89.2599 231.211 90.0808C234.457 90.7376 235.795 88.6234 235.494 87.7073" stroke="#703970" stroke-opacity="0.67" stroke-width="0.531645"/>
</g>
<path d="M78.3326 86.7517C85.2104 63.1818 101.874 23.0229 111.984 75.4604C116.16 97.1175 126.722 141.357 130.467 115.628L136.302 86.7517C140.232 66.6371 149.665 38.4767 155.953 86.7517C162.241 135.027 168.071 125.87 170.199 115.258C176.422 80.2114 186.706 22.1135 191.815 64.169C196.924 106.225 202.377 133.028 205.816 122.662C214.773 95.6648 213.471 42.8698 218.098 55.6543C220.309 61.7627 224.976 102.856 229.397 111.37C232.934 118.182 234.392 96.2537 234.064 86.7517" stroke="url(#paint0_linear_2515_11197)" stroke-width="0.531645"/>
<path d="M78.8215 87.1508C85.6556 64.9812 102.213 27.2079 112.26 76.5302C116.409 96.9008 126.905 138.512 130.625 114.312L136.424 87.1508C140.329 68.2312 149.701 41.7436 155.95 87.1508C162.198 132.558 167.991 123.945 170.106 113.963C176.289 80.999 186.508 26.3526 191.585 65.9097C196.662 105.467 202.08 130.678 205.497 120.928C214.397 95.5345 213.104 45.8758 217.701 57.9008C219.898 63.6463 224.535 102.298 228.929 110.307C232.443 116.714 233.892 96.0883 233.566 87.1508" stroke="url(#paint1_linear_2515_11197)" stroke-width="0.531645"/>
<path d="M78.3329 88.112C85.2106 67.4592 101.874 32.2704 111.985 78.2181C116.16 97.1949 126.723 135.959 130.467 113.414L136.302 88.112C140.232 70.4868 149.665 45.8116 155.953 88.112C162.241 130.412 168.071 122.389 170.2 113.09C176.422 82.3811 186.706 31.4736 191.815 68.3242C196.925 105.175 202.378 128.661 205.817 119.578C214.773 95.922 213.471 49.6611 218.098 60.8633C220.309 66.2157 224.976 102.223 229.397 109.684C232.934 115.653 234.392 96.438 234.064 88.112" stroke="url(#paint2_linear_2515_11197)" stroke-width="0.531645"/>
<path d="M78.3329 86.8033C85.2102 66.0339 101.872 30.6463 111.982 76.8536C116.158 95.9375 126.719 134.921 130.464 112.249L136.298 86.8033C140.228 69.0786 149.66 44.264 155.948 86.8033C162.236 129.343 168.065 121.274 170.194 111.922C176.416 81.0401 186.699 29.845 191.808 66.9038C196.917 103.963 202.369 127.581 205.808 118.447C214.764 94.6575 213.462 48.1352 218.089 59.4007C220.299 64.7833 224.966 100.994 229.387 108.497C232.924 114.5 234.381 95.1764 234.054 86.8033" stroke="url(#paint3_linear_2515_11197)" stroke-width="0.531645"/>
<path d="M78.3329 84.9366C85.2102 64.1672 101.872 28.7796 111.982 74.9869C116.158 94.0708 126.719 133.054 130.464 110.382L136.298 84.9366C140.228 67.2119 149.66 42.3973 155.948 84.9366C162.236 127.476 168.065 119.407 170.194 110.056C176.416 79.1734 186.699 27.9783 191.808 65.0371C196.917 102.096 202.369 125.714 205.808 116.58C214.764 92.7908 213.462 46.2685 218.089 57.534C220.299 62.9166 224.966 99.1273 229.387 106.63C232.924 112.633 234.381 93.3097 234.054 84.9366" stroke="url(#paint4_linear_2515_11197)" stroke-width="0.531645"/>
<path d="M78.8215 87.031C85.6556 68.4785 102.213 36.8682 112.26 78.1433C116.409 95.1902 126.905 130.013 130.625 109.76L136.424 87.031C140.329 71.1982 149.701 49.0324 155.95 87.031C162.198 125.03 167.991 117.822 170.106 109.469C176.289 81.8829 186.508 36.1525 191.585 69.2555C196.662 102.359 202.08 123.456 205.497 115.297C214.397 94.0468 213.104 52.4903 217.701 62.5533C219.898 67.3614 224.535 99.7069 228.929 106.409C232.443 111.771 233.892 94.5103 233.566 87.031" stroke="url(#paint5_linear_2515_11197)" stroke-width="0.531645"/>
<path d="M78.8215 86.314C85.6556 69.3951 102.213 40.5681 112.26 78.2088C116.409 93.7548 126.905 125.511 130.625 107.042L136.424 86.314C140.329 71.8753 149.701 51.6612 155.95 86.314C162.198 120.967 167.991 114.394 170.106 106.776C176.289 81.6192 186.508 39.9153 191.585 70.1037C196.662 100.292 202.08 119.532 205.497 112.091C214.397 92.7121 213.104 54.8147 217.701 63.9916C219.898 68.3764 224.535 97.8738 228.929 103.986C232.443 108.876 233.892 93.1347 233.566 86.314" stroke="url(#paint6_linear_2515_11197)" stroke-width="0.531645"/>
<path d="M78.3329 85.967C85.1886 70.4483 101.799 44.007 111.877 78.5326C116.039 92.792 126.568 121.92 130.3 104.98L136.117 85.967C140.034 72.7233 149.436 54.182 155.704 85.967C161.973 117.752 167.784 111.723 169.906 104.736C176.108 81.6608 186.359 43.4083 191.452 71.0983C196.545 98.7883 201.981 116.436 205.408 109.611C214.336 91.8356 213.039 57.0745 217.651 65.492C219.854 69.5139 224.506 96.5701 228.914 102.176C232.439 106.661 233.892 92.2233 233.566 85.967" stroke="url(#paint7_linear_2515_11197)" stroke-width="0.531645"/>
<path d="M78.8215 86.1816C85.6556 72.1798 102.213 48.323 112.26 79.4739C116.409 92.3395 126.905 118.621 130.625 103.336L136.424 86.1816C140.329 74.2324 149.701 57.5034 155.95 86.1816C162.198 114.86 167.991 109.42 170.106 103.116C176.289 82.2963 186.508 47.7828 191.585 72.7662C196.662 97.7497 202.08 113.672 205.497 107.514C214.397 91.4766 213.104 60.1132 217.701 67.7079C219.898 71.3367 224.535 95.7484 228.929 100.807C232.443 104.853 233.892 91.8264 233.566 86.1816" stroke="url(#paint8_linear_2515_11197)" stroke-width="0.531645"/>
<path d="M78.8215 86.7608C85.6556 73.809 102.213 51.7415 112.26 80.5561C116.409 92.4568 126.905 116.767 130.625 102.628L136.424 86.7608C140.329 75.7077 149.701 60.2334 155.95 86.7608C162.198 113.288 167.991 108.257 170.106 102.425C176.289 83.1668 186.508 51.2418 191.585 74.3515C196.662 97.4612 202.08 112.19 205.497 106.494C214.397 91.6586 213.104 62.6475 217.701 69.6726C219.898 73.0292 224.535 95.61 228.929 100.289C232.443 104.032 233.892 91.9822 233.566 86.7608" stroke="url(#paint9_linear_2515_11197)" stroke-width="0.531645"/>
<path d="M78.8215 86.4133C85.6556 74.8618 102.213 55.1799 112.26 80.8794C116.409 91.4936 126.905 113.175 130.625 100.565L136.424 86.4133C140.329 76.5552 149.701 62.7538 155.95 86.4133C162.198 110.073 167.991 105.585 170.106 100.384C176.289 83.2079 186.508 54.7342 191.585 75.3456C196.662 95.957 202.08 109.093 205.497 104.013C214.397 90.7816 213.104 64.9069 217.701 71.1725C219.898 74.1662 224.535 94.3059 228.929 98.4789C232.443 101.817 233.892 91.0702 233.566 86.4133" stroke="url(#paint10_linear_2515_11197)" stroke-width="0.531645"/>
<path d="M78.8215 86.4389C85.6556 76.2875 102.213 58.9913 112.26 81.5758C116.409 90.9034 126.905 109.957 130.625 98.8756L136.424 86.4389C140.329 77.7757 149.701 65.6472 155.95 86.4389C162.198 107.231 167.991 103.287 170.106 98.7162C176.289 83.622 186.508 58.5997 191.585 76.7127C196.662 94.8257 202.08 106.37 205.497 101.905C214.397 90.2777 213.104 67.5393 217.701 73.0455C219.898 75.6763 224.535 93.3748 228.929 97.042C232.443 99.9758 233.892 90.5313 233.566 86.4389" stroke="url(#paint11_linear_2515_11197)" stroke-width="0.531645"/>
<path d="M78.8215 86.8385C85.6556 78.0873 102.213 63.1768 112.26 82.6462C116.409 90.6872 126.905 107.113 130.625 97.5598L136.424 86.8385C140.329 79.3702 149.701 68.9146 155.95 86.8385C162.198 104.762 167.991 101.363 170.106 97.4224C176.289 84.4102 186.508 62.8392 191.585 78.4539C196.662 94.0685 202.08 104.02 205.497 100.171C214.397 90.1478 213.104 70.5457 217.701 75.2924C219.898 77.5604 224.535 92.8177 228.929 95.9791C232.443 98.5083 233.892 90.3665 233.566 86.8385" stroke="url(#paint12_linear_2515_11197)" stroke-width="0.531645"/>
<path d="M78.3329 86.6796C85.1886 79.4453 101.799 67.1193 111.877 83.2139C116.039 89.8611 126.568 103.44 130.3 95.5425L136.117 86.6796C140.034 80.5058 149.436 71.8625 155.704 86.6796C161.973 101.497 167.784 98.6863 169.906 95.4289C176.108 84.6722 186.359 66.8401 191.452 79.7483C196.545 92.6564 201.981 100.883 205.408 97.7015C214.336 89.4153 213.039 73.2109 217.651 77.1348C219.854 79.0097 224.506 91.6224 228.914 94.2358C232.439 96.3266 233.892 89.596 233.566 86.6796" stroke="url(#paint13_linear_2515_11197)" stroke-width="0.531645"/>
<path d="M78.8215 87.0702C85.6772 80.7693 102.287 70.0338 112.365 84.0517C116.528 89.8412 127.056 101.668 130.789 94.7895L136.605 87.0702C140.523 81.693 149.925 74.165 156.193 87.0702C162.461 99.9754 168.272 97.5276 170.394 94.6906C176.597 85.3218 186.848 69.7907 191.941 81.0332C197.033 92.2758 202.469 99.4409 205.897 96.6699C214.825 89.4529 213.527 75.3394 218.139 78.757C220.343 80.3899 224.995 91.3752 229.402 93.6514C232.928 95.4724 234.381 89.6103 234.054 87.0702" stroke="url(#paint14_linear_2515_11197)" stroke-width="0.531645"/>
<path d="M78.8215 87.2848C85.6772 82.5008 102.287 74.3497 112.365 84.993C116.528 89.3887 127.056 98.3681 130.789 93.1458L136.605 87.2848C140.523 83.2021 149.925 77.4864 156.193 87.2848C162.461 97.0832 168.272 95.2247 170.394 93.0706C176.597 85.9573 186.848 74.1652 191.941 82.7012C197.033 91.2372 202.469 96.6774 205.897 94.5734C214.825 89.0939 213.527 78.3781 218.139 80.9729C220.343 82.2128 224.995 90.5534 229.402 92.2816C232.928 93.6642 234.381 89.2134 234.054 87.2848" stroke="url(#paint15_linear_2515_11197)" stroke-width="0.531645"/>
<path d="M78.3329 87.3108C85.2317 83.9271 101.946 78.1617 112.088 85.6898C116.276 88.799 126.871 95.1503 130.627 91.4564L136.48 87.3108C140.422 84.4231 149.884 80.3803 156.191 87.3108C162.499 94.2414 168.346 92.9269 170.482 91.4033C176.723 86.3719 187.039 78.0311 192.164 84.0688C197.288 90.1065 202.758 93.9544 206.208 92.4663C215.191 88.5905 213.886 81.011 218.527 82.8464C220.744 83.7233 225.426 89.6228 229.861 90.8452C233.409 91.8232 234.871 88.675 234.542 87.3108" stroke="url(#paint16_linear_2515_11197)" stroke-width="0.531645"/>
<g opacity="0.5">
<g style="mix-blend-mode:hard-light" filter="url(#filter3_f_2515_11197)">
<ellipse cx="156.46" cy="86.8135" rx="93.8" ry="0.603077" fill="#FF377F" fill-opacity="0.69"/>
</g>
<g style="mix-blend-mode:hard-light" filter="url(#filter4_f_2515_11197)">
<rect x="78.6341" y="86.512" width="155.651" height="0.603077" rx="0.301538" stroke="#F32E7C" stroke-width="0.603077"/>
</g>
<g style="mix-blend-mode:hard-light" filter="url(#filter5_f_2515_11197)">
<rect x="78.6341" y="86.512" width="155.651" height="0.603077" rx="0.301538" stroke="#FF26C2" stroke-width="0.603077"/>
</g>
<g style="mix-blend-mode:hard-light" filter="url(#filter6_ddi_2515_11197)">
<rect x="78.6341" y="86.512" width="155.651" height="0.603077" rx="0.301538" stroke="#FB37FF" stroke-opacity="0.2" stroke-width="0.603077"/>
</g>
<g filter="url(#filter7_f_2515_11197)">
<rect x="78.6341" y="86.512" width="155.651" height="0.603077" rx="0.301538" stroke="#FB37FF" stroke-width="0.603077"/>
</g>
<g filter="url(#filter8_f_2515_11197)">
<rect x="78.6341" y="86.512" width="155.651" height="0.603077" rx="0.301538" stroke="white" stroke-width="0.603077"/>
</g>
</g>
<g opacity="0.6" filter="url(#filter9_f_2515_11197)">
<path d="M84.9819 81.4138C91.9219 61.9279 108.736 28.7272 118.938 72.0789C123.152 89.9836 133.81 126.558 137.588 105.287L143.476 81.4138C147.442 64.7845 156.959 41.5033 163.305 81.4138C169.65 121.324 175.532 113.754 177.68 104.981C183.959 76.0067 194.336 27.9754 199.492 62.744C204.647 97.5127 210.149 119.672 213.619 111.102C222.657 88.7826 221.344 45.1353 226.012 55.7046C228.243 60.7546 232.952 94.7275 237.414 101.767C240.983 107.398 242.453 89.2694 242.123 81.4138" stroke="#703970" stroke-width="0.531645"/>
<path d="M85.4747 82.0497C92.3712 63.901 109.08 32.9787 119.218 73.3554C123.405 90.0313 133.996 124.096 137.751 104.284L143.602 82.0497C147.543 66.5615 157.001 44.8781 163.306 82.0497C169.612 119.221 175.457 112.171 177.592 103.999C183.831 77.0136 194.143 32.2785 199.266 64.6611C204.39 97.0437 209.857 117.682 213.306 109.7C222.286 88.9127 220.981 48.2608 225.621 58.1048C227.838 62.8082 232.517 94.4496 236.951 101.006C240.497 106.251 241.959 89.3661 241.63 82.0497" stroke="#703970" stroke-width="0.531645"/>
<path d="M84.9819 82.9876C91.9219 65.9851 108.736 37.0159 118.938 74.8424C123.152 90.4651 133.81 122.378 137.588 103.818L143.476 82.9876C147.442 68.4776 156.959 48.1637 163.305 82.9876C169.65 117.811 175.532 111.206 177.68 103.551C183.959 78.2696 194.336 36.3599 199.492 66.6973C204.647 97.0346 210.149 116.369 213.619 108.892C222.657 89.4172 221.344 51.3327 226.012 60.555C228.243 64.9614 232.952 94.6044 237.414 100.747C240.983 105.66 242.453 89.842 242.123 82.9876" stroke="#703970" stroke-width="0.531645"/>
<path d="M84.9819 81.7649C91.9219 64.7625 108.736 35.7932 118.938 73.6197C123.152 89.2424 133.81 121.155 137.588 102.595L143.476 81.7649C147.442 67.255 156.959 46.941 163.305 81.7649C169.65 116.589 175.532 109.984 177.68 102.328C183.959 77.047 194.336 35.1372 199.492 65.4746C204.647 95.812 210.149 115.147 213.619 107.669C222.657 88.1945 221.344 50.1101 226.012 59.3323C228.243 63.7387 232.952 93.3818 237.414 99.524C240.983 104.438 242.453 88.6193 242.123 81.7649" stroke="#703970" stroke-width="0.531645"/>
<path d="M84.9819 80.2371C91.9219 63.2346 108.736 34.2654 118.938 72.0919C123.152 87.7146 133.81 119.628 137.588 101.067L143.476 80.2371C147.442 65.7271 156.959 45.4132 163.305 80.2371C169.65 115.061 175.532 108.456 177.68 100.8C183.959 75.5191 194.336 33.6094 199.492 63.9468C204.647 94.2841 210.149 113.619 213.619 106.141C222.657 86.6667 221.344 48.5823 226.012 57.8045C228.243 62.2109 232.952 91.8539 237.414 97.9962C240.983 102.91 242.453 87.0915 242.123 80.2371" stroke="#703970" stroke-width="0.531645"/>
<path d="M85.4747 81.9516C92.3712 66.7641 109.08 40.887 119.218 74.6759C123.405 88.631 133.996 117.138 137.751 100.558L143.602 81.9516C147.543 68.9905 157.001 50.8449 163.306 81.9516C169.612 113.058 175.457 107.158 177.592 100.32C183.831 77.7373 194.143 40.3011 199.266 67.4002C204.39 94.4993 209.857 111.77 213.306 105.091C222.286 87.695 220.981 53.6757 225.621 61.9136C227.838 65.8496 232.517 92.3285 236.951 97.8151C240.497 102.204 241.959 88.0744 241.63 81.9516" stroke="#703970" stroke-width="0.531645"/>
<path d="M85.4747 81.3653C92.3712 67.515 109.08 43.9164 119.218 74.7302C123.405 87.4565 133.996 113.453 137.751 98.3337L143.602 81.3653C147.543 69.5454 157.001 52.9975 163.306 81.3653C169.612 109.733 175.457 104.352 177.592 98.1162C183.831 77.522 194.143 43.3821 199.266 68.0951C204.39 92.8081 209.857 108.558 213.306 102.467C222.286 86.6029 220.981 55.5791 225.621 63.0916C227.838 66.6811 232.517 90.8285 236.951 95.832C240.497 99.8348 241.959 86.9489 241.63 81.3653" stroke="#703970" stroke-width="0.531645"/>
<path d="M84.9819 81.0806C91.9002 68.3765 108.662 46.7309 118.832 74.9946C123.032 86.6677 133.657 110.513 137.423 96.6447L143.293 81.0806C147.246 70.2389 156.734 55.0605 163.059 81.0806C169.384 107.101 175.248 102.165 177.39 96.4452C183.649 77.5553 193.993 46.2408 199.133 68.9086C204.272 91.5764 209.757 106.023 213.216 100.436C222.225 85.8847 220.916 57.4284 225.57 64.3191C227.794 67.6116 232.488 89.7606 236.936 94.35C240.494 98.0215 241.96 86.2021 241.63 81.0806" stroke="#703970" stroke-width="0.531645"/>
<path d="M85.4747 81.2561C92.3712 69.7938 109.08 50.2639 119.218 75.765C123.405 86.2971 133.996 107.811 137.751 95.2989L143.602 81.2561C147.543 71.4741 157.001 57.7793 163.306 81.2561C169.612 104.733 175.457 100.28 177.592 95.1189C183.831 78.0755 194.143 49.8217 199.266 70.2739C204.39 90.726 209.857 103.761 213.306 98.7196C222.286 85.5907 220.981 59.9158 225.621 66.133C227.838 69.1036 232.517 89.0877 236.951 93.2285C240.497 96.5412 241.959 85.877 241.63 81.2561" stroke="#703970" stroke-width="0.531645"/>
<path d="M85.4747 81.7307C92.3712 71.128 109.08 53.0629 119.218 76.6514C123.405 86.3936 133.996 106.294 137.751 94.7203L143.602 81.7307C147.543 72.6823 157.001 60.0146 163.306 81.7307C169.612 103.447 175.457 99.3277 177.592 94.5538C183.831 78.7886 194.143 52.6538 199.266 71.5721C204.39 90.4903 209.857 102.547 213.306 97.8844C222.286 85.7401 220.981 61.9908 225.621 67.7418C227.838 70.4896 232.517 88.9749 236.951 92.8051C240.497 95.8694 241.959 86.005 241.63 81.7307" stroke="#703970" stroke-width="0.531645"/>
<path d="M85.4747 81.4464C92.3712 71.99 109.08 55.8779 119.218 76.9162C123.405 85.6052 133.996 103.355 137.751 93.0317L143.602 81.4464C147.543 73.3763 157.001 62.0781 163.306 81.4464C169.612 100.815 175.457 97.1411 177.592 92.8832C183.831 78.8224 194.143 55.513 199.266 72.3861C204.39 89.2591 209.857 100.013 213.306 95.8538C222.286 85.0224 220.981 63.8406 225.621 68.9699C227.838 71.4206 232.517 87.9075 236.951 91.3236C240.497 94.0566 241.959 85.2587 241.63 81.4464" stroke="#703970" stroke-width="0.531645"/>
<path d="M85.4747 81.4668C92.3712 73.1566 109.08 58.9975 119.218 77.4858C123.405 85.1216 133.996 100.719 137.751 91.6479L143.602 81.4668C147.543 74.3749 157.001 64.4462 163.306 81.4668C169.612 98.4875 175.457 95.2591 177.592 91.5174C183.831 79.1609 194.143 58.6769 199.266 73.5047C204.39 88.3325 209.857 97.7826 213.306 94.1279C222.286 84.6094 220.981 65.9951 225.621 70.5026C227.838 72.6563 232.517 87.1447 236.951 90.1468C240.497 92.5485 241.959 84.817 241.63 81.4668" stroke="#703970" stroke-width="0.531645"/>
<path d="M85.4747 81.7939C92.3712 74.63 109.08 62.4238 119.218 78.362C123.405 84.9445 133.996 98.391 137.751 90.5707L143.602 81.7939C147.543 75.6802 157.001 67.1209 163.306 81.7939C169.612 96.4669 175.457 93.6838 177.592 90.4582C183.831 79.806 194.143 62.1474 199.266 74.93C204.39 87.7126 209.857 95.8593 213.306 92.7086C222.286 84.503 220.981 68.4562 225.621 72.342C227.838 74.1986 232.517 86.6886 236.951 89.2767C240.497 91.3471 241.959 84.682 241.63 81.7939" stroke="#703970" stroke-width="0.531645"/>
<path d="M84.9819 81.6638C91.9002 75.7416 108.662 65.6512 118.832 78.8267C123.032 84.2683 133.657 95.3841 137.423 88.9193L143.293 81.6638C147.246 76.6098 156.734 69.5341 163.059 81.6638C169.384 93.7934 175.248 91.4928 177.39 88.8262C183.649 80.0205 193.993 65.4227 199.133 75.9896C204.272 86.5566 209.757 93.2911 213.216 90.6866C222.225 83.9033 220.916 70.6379 225.57 73.8502C227.794 75.385 232.488 85.7101 236.936 87.8495C240.494 89.5611 241.96 84.0513 241.63 81.6638" stroke="#703970" stroke-width="0.531645"/>
<path d="M85.4747 81.9837C92.3929 76.8257 109.154 68.0373 119.325 79.5127C123.525 84.2522 134.149 93.9336 137.916 88.303L143.785 81.9837C147.739 77.5818 157.227 71.4192 163.552 81.9837C169.877 92.5483 175.741 90.5445 177.882 88.222C184.142 80.5524 194.486 67.8382 199.625 77.0417C204.765 86.2452 210.25 92.1108 213.709 89.8423C222.718 83.9343 221.409 72.3806 226.063 75.1783C228.287 76.5151 232.981 85.5079 237.429 87.3713C240.986 88.862 242.452 84.0631 242.123 81.9837" stroke="#703970" stroke-width="0.531645"/>
<path d="M85.4747 82.1598C92.3929 78.2435 109.154 71.5708 119.325 80.2836C123.525 83.8821 134.149 91.2328 137.916 86.9577L143.785 82.1598C147.739 78.8176 157.227 74.1385 163.552 82.1598C169.877 90.181 175.741 88.6596 177.882 86.8962C184.142 81.073 194.486 71.4197 199.625 78.4075C204.765 85.3953 210.25 89.8488 213.709 88.1265C222.718 83.6407 221.409 74.8685 226.063 76.9927C228.287 78.0077 232.981 84.8355 237.429 86.2503C240.986 87.3822 242.452 83.7386 242.123 82.1598" stroke="#703970" stroke-width="0.531645"/>
<path d="M84.9819 82.1807C91.9437 79.4106 108.811 74.6909 119.045 80.8537C123.271 83.3989 133.963 88.5982 137.753 85.5744L143.659 82.1807C147.638 79.8167 157.185 76.5071 163.55 82.1807C169.915 87.8542 175.816 86.7781 177.971 85.5309C184.27 81.412 194.679 74.584 199.851 79.5266C205.022 84.4692 210.542 87.6193 214.023 86.401C223.088 83.2282 221.771 77.0234 226.454 78.5259C228.692 79.2438 233.416 84.0733 237.891 85.074C241.472 85.8746 242.947 83.2974 242.615 82.1807" stroke="#703970" stroke-width="0.531645"/>
</g>
<g opacity="0.6" filter="url(#filter10_f_2515_11197)">
<path d="M53.6361 75.8137C62.102 56.3278 82.6134 23.1271 95.0587 66.4788C100.199 84.3835 113.2 120.958 117.809 99.6866L124.992 75.8137C129.83 59.1844 141.44 35.9032 149.18 75.8137C156.921 115.724 164.096 108.154 166.717 99.3805C174.376 70.4066 187.035 22.3753 193.324 57.1439C199.613 91.9126 206.325 114.071 210.558 105.502C221.583 83.1825 219.981 39.5352 225.676 50.1045C228.397 55.1545 234.142 89.1274 239.584 96.1668C243.938 101.798 245.732 83.6693 245.329 75.8137" stroke="#404AA3" stroke-opacity="0.18" stroke-width="0.531645"/>
<path d="M54.2368 76.4496C62.6497 58.3009 83.0324 27.3786 95.3997 67.7553C100.508 84.4312 113.427 118.496 118.008 98.6841L125.145 76.4496C129.953 60.9614 141.49 39.278 149.182 76.4496C156.874 113.621 164.005 106.571 166.609 98.399C174.22 71.4135 186.799 26.6784 193.049 59.061C199.299 91.4436 205.969 112.082 210.175 104.1C221.131 83.3126 219.539 42.6607 225.198 52.5047C227.902 57.2081 233.611 88.8496 239.019 95.4059C243.346 100.651 245.129 83.766 244.728 76.4496" stroke="#404AA3" stroke-opacity="0.18" stroke-width="0.531645"/>
<path d="M53.6359 77.3875C62.1019 60.385 82.6132 31.4158 95.0586 69.2423C100.199 84.865 113.2 116.778 117.809 98.2177L124.992 77.3875C129.829 62.8775 141.44 42.5636 149.18 77.3875C156.92 112.211 164.096 105.606 166.717 97.9506C174.376 72.6695 187.035 30.7598 193.324 61.0972C199.613 91.4345 206.325 110.769 210.558 103.292C221.583 83.8171 219.981 45.7326 225.676 54.9549C228.397 59.3613 234.142 89.0043 239.584 95.1466C243.938 100.06 245.732 84.2419 245.329 77.3875" stroke="#404AA3" stroke-opacity="0.18" stroke-width="0.531645"/>
<path d="M53.6359 76.1653C62.1019 59.1628 82.6132 30.1936 95.0586 68.0201C100.199 83.6428 113.2 115.556 117.809 96.9955L124.992 76.1653C129.829 61.6554 141.44 41.3414 149.18 76.1653C156.92 110.989 164.096 104.384 166.717 96.7285C174.376 71.4473 187.035 29.5376 193.324 59.875C199.613 90.2124 206.325 109.547 210.558 102.07C221.583 82.5949 219.981 44.5105 225.676 53.7327C228.397 58.1391 234.142 87.7821 239.584 93.9244C243.938 98.8382 245.732 83.0197 245.329 76.1653" stroke="#404AA3" stroke-opacity="0.18" stroke-width="0.531645"/>
<path d="M53.6359 74.637C62.1019 57.6345 82.6132 28.6653 95.0586 66.4918C100.199 82.1145 113.2 114.027 117.809 95.4672L124.992 74.637C129.829 60.127 141.44 39.8131 149.18 74.637C156.92 109.461 164.096 102.856 166.717 95.2002C174.376 69.919 187.035 28.0093 193.324 58.3467C199.613 88.684 206.325 108.019 210.558 100.541C221.583 81.0666 219.981 42.9822 225.676 52.2044C228.397 56.6108 234.142 86.2538 239.584 92.3961C243.938 97.3099 245.732 81.4914 245.329 74.637" stroke="#404AA3" stroke-opacity="0.18" stroke-width="0.531645"/>
<path d="M54.2368 76.3515C62.6497 61.164 83.0324 35.2869 95.3997 69.0758C100.508 83.0309 113.427 111.537 118.008 94.9583L125.145 76.3515C129.953 63.3904 141.49 45.2448 149.182 76.3515C156.874 107.458 164.005 101.558 166.609 94.7198C174.22 72.1372 186.799 34.701 193.049 61.8001C199.299 88.8992 205.969 106.17 210.175 99.4907C221.131 82.0949 219.539 48.0756 225.198 56.3135C227.902 60.2495 233.611 86.7284 239.019 92.215C243.346 96.6043 245.129 82.4743 244.728 76.3515" stroke="#404AA3" stroke-opacity="0.18" stroke-width="0.531645"/>
<path d="M54.2368 75.7652C62.6497 61.9149 83.0324 38.3163 95.3997 69.1301C100.508 81.8564 113.427 107.853 118.008 92.7336L125.145 75.7652C129.953 63.9453 141.49 47.3974 149.182 75.7652C156.874 104.133 164.005 98.7524 166.609 92.5161C174.22 71.9219 186.799 37.782 193.049 62.495C199.299 87.208 205.969 102.958 210.175 96.867C221.131 81.0028 219.539 49.979 225.198 57.4915C227.902 61.081 233.611 85.2284 239.019 90.2319C243.346 94.2347 245.129 81.3488 244.728 75.7652" stroke="#404AA3" stroke-opacity="0.18" stroke-width="0.531645"/>
<path d="M53.6359 75.4805C62.0753 62.7764 82.5224 41.1308 94.9287 69.3945C100.053 81.0676 113.013 104.913 117.608 91.0446L124.768 75.4805C129.591 64.6388 141.165 49.4604 148.881 75.4805C156.597 101.501 163.75 96.5652 166.362 90.8451C173.998 71.9552 186.617 40.6407 192.886 63.3085C199.155 85.9763 205.847 100.423 210.066 94.8359C221.056 80.2846 219.459 51.8283 225.137 58.719C227.849 62.0115 233.576 84.1605 239.001 88.7499C243.342 92.4214 245.13 80.602 244.728 75.4805" stroke="#404AA3" stroke-opacity="0.18" stroke-width="0.531645"/>
<path d="M54.2368 75.656C62.6497 64.1937 83.0324 44.6638 95.3997 70.1649C100.508 80.697 113.427 102.211 118.008 89.6988L125.145 75.656C129.953 65.874 141.49 52.1792 149.182 75.656C156.874 99.1328 164.005 94.6799 166.609 89.5188C174.22 72.4754 186.799 44.2216 193.049 64.6738C199.299 85.1259 205.969 98.1606 210.175 93.1195C221.131 79.9906 219.539 54.3157 225.198 60.5329C227.902 63.5035 233.611 83.4876 239.019 87.6284C243.346 90.9411 245.129 80.2769 244.728 75.656" stroke="#404AA3" stroke-opacity="0.18" stroke-width="0.531645"/>
<path d="M54.2368 76.1306C62.6497 65.5279 83.0324 47.4628 95.3997 71.0513C100.508 80.7935 113.427 100.694 118.008 89.1202L125.145 76.1306C129.953 67.0822 141.49 54.4145 149.182 76.1306C156.874 97.8466 164.005 93.7276 166.609 88.9537C174.22 73.1885 186.799 47.0537 193.049 65.972C199.299 84.8902 205.969 96.9473 210.175 92.2843C221.131 80.14 219.539 56.3907 225.198 62.1417C227.902 64.8895 233.611 83.3748 239.019 87.205C243.346 90.2693 245.129 80.4049 244.728 76.1306" stroke="#404AA3" stroke-opacity="0.18" stroke-width="0.531645"/>
<path d="M54.2368 75.8463C62.6497 66.3899 83.0324 50.2778 95.3997 71.3161C100.508 80.0051 113.427 97.7545 118.008 87.4316L125.145 75.8463C129.953 67.7762 141.49 56.478 149.182 75.8463C156.874 95.2146 164.005 91.541 166.609 87.2831C174.22 73.2223 186.799 49.9129 193.049 66.786C199.299 83.659 205.969 94.4126 210.175 90.2537C221.131 79.4223 219.539 58.2405 225.198 63.3698C227.902 65.8205 233.611 82.3074 239.019 85.7235C243.346 88.4565 245.129 79.6586 244.728 75.8463" stroke="#404AA3" stroke-opacity="0.18" stroke-width="0.531645"/>
<path d="M54.2368 75.8672C62.6497 67.557 83.0324 53.3979 95.3997 71.8862C100.508 79.522 113.427 95.1199 118.008 86.0483L125.145 75.8672C129.953 68.7753 141.49 58.8466 149.182 75.8672C156.874 92.8879 164.005 89.6595 166.609 85.9178C174.22 73.5613 186.799 53.0773 193.049 67.9051C199.299 82.7329 205.969 92.183 210.175 88.5283C221.131 79.0098 219.539 60.3955 225.198 64.903C227.902 67.0567 233.611 81.5451 239.019 84.5472C243.346 86.9489 245.129 79.2174 244.728 75.8672" stroke="#404AA3" stroke-opacity="0.18" stroke-width="0.531645"/>
<path d="M54.2368 76.1938C62.6497 69.0299 83.0324 56.8237 95.3997 72.7619C100.508 79.3444 113.427 92.7909 118.008 84.9706L125.145 76.1938C129.953 70.0801 141.49 61.5208 149.182 76.1938C156.874 90.8668 164.005 88.0837 166.609 84.8581C174.22 74.2059 186.799 56.5473 193.049 69.3299C199.299 82.1125 205.969 90.2592 210.175 87.1085C221.131 78.9029 219.539 62.8561 225.198 66.7419C227.902 68.5985 233.611 81.0885 239.019 83.6766C243.346 85.747 245.129 79.0819 244.728 76.1938" stroke="#404AA3" stroke-opacity="0.18" stroke-width="0.531645"/>
<path d="M53.6359 76.0642C62.0753 70.142 82.5224 60.0516 94.9287 73.2271C100.053 78.6687 113.013 89.7845 117.608 83.3196L124.768 76.0642C129.591 71.0102 141.165 63.9345 148.881 76.0642C156.597 88.1938 163.75 85.8932 166.362 83.2266C173.998 74.4208 186.617 59.8231 192.886 70.39C199.155 80.957 205.847 87.6915 210.066 85.087C221.056 78.3037 219.459 65.0383 225.137 68.2506C227.849 69.7854 233.576 80.1105 239.001 82.2499C243.342 83.9615 245.13 78.4517 244.728 76.0642" stroke="#404AA3" stroke-opacity="0.18" stroke-width="0.531645"/>
<path d="M54.2368 76.3841C62.6762 71.2261 83.1233 62.4376 95.5296 73.9131C100.654 78.6526 113.614 88.334 118.209 82.7034L125.369 76.3841C130.191 71.9822 141.765 65.8196 149.481 76.3841C157.198 86.9487 164.351 84.9449 166.963 82.6224C174.599 74.9528 187.218 62.2386 193.487 71.4421C199.756 80.6456 206.447 86.5112 210.667 84.2427C221.657 78.3347 220.06 66.781 225.737 69.5787C228.45 70.9155 234.177 79.9083 239.602 81.7717C243.942 83.2624 245.731 78.4635 245.329 76.3841" stroke="#404AA3" stroke-opacity="0.18" stroke-width="0.531645"/>
<path d="M54.2368 76.5597C62.6762 72.6434 83.1233 65.9707 95.5296 74.6835C100.654 78.282 113.614 85.6327 118.209 81.3576L125.369 76.5597C130.191 73.2175 141.765 68.5384 149.481 76.5597C157.198 84.5809 164.351 83.0595 166.963 81.2961C174.599 75.4729 187.218 65.8196 193.487 72.8074C199.756 79.7952 206.447 84.2487 210.667 82.5264C221.657 78.0406 220.06 69.2684 225.737 71.3926C228.45 72.4076 234.177 79.2354 239.602 80.6502C243.942 81.7821 245.731 78.1385 245.329 76.5597" stroke="#404AA3" stroke-opacity="0.18" stroke-width="0.531645"/>
<path d="M53.6359 76.5806C62.1284 73.8105 82.704 69.0908 95.1884 75.2536C100.345 77.7988 113.387 82.9981 118.01 79.9743L125.215 76.5806C130.068 74.2166 141.715 70.907 149.48 76.5806C157.244 82.2541 164.443 81.178 167.071 79.9308C174.755 75.8119 187.453 68.9839 193.762 73.9265C200.07 78.8691 206.804 82.0192 211.05 80.8009C222.109 77.6281 220.502 71.4233 226.215 72.9258C228.945 73.6437 234.708 78.4732 240.167 79.4739C244.535 80.2745 246.334 77.6973 245.93 76.5806" stroke="#404AA3" stroke-opacity="0.18" stroke-width="0.531645"/>
</g>
<g opacity="0.6" filter="url(#filter11_f_2515_11197)">
<path d="M255.01 88.5066C246.544 69.0206 226.032 35.8199 213.587 79.1717C208.447 97.0763 195.446 133.651 190.836 112.379L183.654 88.5066C178.816 71.8772 167.206 48.5961 159.465 88.5066C151.725 128.417 144.549 120.847 141.929 112.073C134.269 83.0995 121.611 35.0681 115.322 69.8368C109.033 104.605 102.32 126.764 98.0873 118.195C87.0629 95.8754 88.6649 52.228 82.9696 62.7974C80.2484 67.8474 74.5037 101.82 69.0613 108.86C64.7074 114.491 62.9134 96.3622 63.3165 88.5066" stroke="#A1A5CE" stroke-opacity="0.15" stroke-width="0.531645"/>
<path d="M254.408 89.1429C245.996 70.9942 225.613 40.072 213.246 80.4486C208.138 97.1245 195.218 131.189 190.638 111.377L183.5 89.1429C178.693 73.6548 167.155 51.9714 159.463 89.1429C151.772 126.314 144.641 119.264 142.037 111.092C134.425 84.1069 121.846 39.3718 115.596 71.7544C109.347 104.137 102.676 124.775 98.4701 116.794C87.5147 96.006 89.1066 55.3541 83.4471 65.198C80.743 69.9015 75.0342 101.543 69.626 108.099C65.2994 113.344 63.5166 96.4594 63.9172 89.1429" stroke="#A1A5CE" stroke-opacity="0.15" stroke-width="0.531645"/>
<path d="M255.01 90.0803C246.544 73.0779 226.032 44.1086 213.587 81.9352C208.447 97.5578 195.446 129.471 190.836 110.911L183.654 90.0803C178.816 75.5704 167.206 55.2565 159.465 90.0803C151.725 124.904 144.549 118.299 141.929 110.644C134.269 85.3624 121.611 43.4527 115.322 73.79C109.033 104.127 102.32 123.462 98.0874 115.985C87.0629 96.51 88.6649 58.4255 82.9696 67.6478C80.2484 72.0542 74.5037 101.697 69.0613 107.839C64.7074 112.753 62.9134 96.9347 63.3166 90.0803" stroke="#A1A5CE" stroke-opacity="0.15" stroke-width="0.531645"/>
<path d="M255.01 88.8582C246.544 71.8557 226.032 42.8865 213.587 80.713C208.447 96.3357 195.446 128.249 190.836 109.688L183.654 88.8582C178.816 74.3482 167.206 54.0343 159.465 88.8582C151.725 123.682 144.549 117.077 141.929 109.421C134.269 84.1402 121.611 42.2305 115.322 72.5679C109.033 102.905 102.32 122.24 98.0874 114.762C87.0629 95.2878 88.6649 57.2033 82.9696 66.4256C80.2484 70.832 74.5037 100.475 69.0613 106.617C64.7074 111.531 62.9134 95.7126 63.3166 88.8582" stroke="#A1A5CE" stroke-opacity="0.15" stroke-width="0.531645"/>
<path d="M255.01 87.3303C246.544 70.3279 226.032 41.3586 213.587 79.1852C208.447 94.8078 195.446 126.721 190.836 108.161L183.654 87.3303C178.816 72.8204 167.206 52.5065 159.465 87.3303C151.725 122.154 144.549 115.549 141.929 107.894C134.269 82.6124 121.611 40.7027 115.322 71.04C109.033 101.377 102.32 120.712 98.0874 113.235C87.0629 93.76 88.6649 55.6755 82.9696 64.8978C80.2484 69.3042 74.5037 98.9472 69.0613 105.089C64.7074 110.003 62.9134 94.1847 63.3166 87.3303" stroke="#A1A5CE" stroke-opacity="0.15" stroke-width="0.531645"/>
<path d="M254.408 89.0444C245.996 73.8568 225.613 47.9798 213.246 81.7687C208.138 95.7238 195.218 124.23 190.638 107.651L183.5 89.0444C178.693 76.0833 167.155 57.9377 159.463 89.0444C151.772 120.151 144.641 114.251 142.037 107.413C134.425 84.8301 121.846 47.3939 115.596 74.493C109.347 101.592 102.676 118.863 98.4701 112.184C87.5147 94.7877 89.1066 60.7685 83.4471 69.0063C80.743 72.9424 75.0342 99.4213 69.626 104.908C65.2994 109.297 63.5166 95.1672 63.9172 89.0444" stroke="#A1A5CE" stroke-opacity="0.15" stroke-width="0.531645"/>
<path d="M254.408 88.4576C245.996 74.6073 225.613 51.0087 213.246 81.8225C208.138 94.5488 195.218 120.545 190.638 105.426L183.5 88.4576C178.693 76.6377 167.155 60.0898 159.463 88.4576C151.772 116.825 144.641 111.445 142.037 105.208C134.425 84.6143 121.846 50.4744 115.596 75.1874C109.347 99.9004 102.676 115.651 98.4701 109.559C87.5147 93.6952 89.1066 62.6713 83.4471 70.1839C80.743 73.7733 75.0342 97.9207 69.626 102.924C65.2994 106.927 63.5166 94.0412 63.9172 88.4576" stroke="#A1A5CE" stroke-opacity="0.15" stroke-width="0.531645"/>
<path d="M255.01 88.1733C246.57 75.4693 226.123 53.8237 213.717 82.0873C208.593 93.7605 195.632 117.606 191.038 103.737L183.878 88.1733C179.055 77.3316 167.481 62.1532 159.765 88.1733C152.049 114.193 144.896 109.258 142.283 103.538C134.648 84.6481 122.029 53.3336 115.76 76.0014C109.49 98.6692 102.799 113.116 98.5793 107.529C87.5894 92.9775 89.1863 64.5211 83.5089 71.4119C80.7963 74.7043 75.0695 96.8533 69.6442 101.443C65.3039 105.114 63.5156 93.2949 63.9175 88.1733" stroke="#A1A5CE" stroke-opacity="0.15" stroke-width="0.531645"/>
<path d="M254.408 88.3489C245.996 76.8865 225.613 57.3567 213.246 82.8577C208.138 93.3899 195.218 114.904 190.638 102.392L183.5 88.3489C178.693 78.5669 167.155 64.8721 159.463 88.3489C151.772 111.826 144.641 107.373 142.037 102.212C134.425 85.1682 121.846 56.9145 115.596 77.3666C109.347 97.8188 102.676 110.853 98.4701 105.812C87.5147 92.6835 89.1066 67.0085 83.4471 73.2258C80.743 76.1964 75.0342 96.1804 69.626 100.321C65.2994 103.634 63.5166 92.9698 63.9172 88.3489" stroke="#A1A5CE" stroke-opacity="0.15" stroke-width="0.531645"/>
<path d="M254.408 88.8234C245.996 78.2208 225.613 60.1557 213.246 83.7441C208.138 93.4864 195.218 113.387 190.638 101.813L183.5 88.8234C178.693 79.7751 167.155 67.1074 159.463 88.8234C151.772 110.539 144.641 106.42 142.037 101.647C134.425 85.8813 121.846 59.7466 115.596 78.6649C109.347 97.5831 102.676 109.64 98.4701 104.977C87.5147 92.8329 89.1066 69.0836 83.4471 74.8346C80.743 77.5824 75.0342 96.0676 69.626 99.8979C65.2994 102.962 63.5166 93.0978 63.9172 88.8234" stroke="#A1A5CE" stroke-opacity="0.15" stroke-width="0.531645"/>
<path d="M254.408 88.5392C245.996 79.0828 225.613 62.9706 213.246 84.009C208.138 92.698 195.218 110.447 190.638 100.125L183.5 88.5392C178.693 80.469 167.155 69.1708 159.463 88.5392C151.772 107.908 144.641 104.234 142.037 99.976C134.425 85.9151 121.846 62.6058 115.596 79.4788C109.347 96.3519 102.676 107.105 98.4701 102.947C87.5147 92.1152 89.1066 70.9334 83.4471 76.0626C80.743 78.5134 75.0342 95.0002 69.626 98.4164C65.2994 101.149 63.5166 92.3514 63.9172 88.5392" stroke="#A1A5CE" stroke-opacity="0.15" stroke-width="0.531645"/>
<path d="M254.408 88.5601C245.996 80.2499 225.613 66.0908 213.246 84.579C208.138 92.2148 195.218 107.813 190.638 98.7412L183.5 88.5601C178.693 81.4682 167.155 71.5394 159.463 88.5601C151.772 105.581 144.641 102.352 142.037 98.6106C134.425 86.2541 121.846 65.7702 115.596 80.598C109.347 95.4258 102.676 104.876 98.4701 101.221C87.5147 91.7027 89.1066 73.0884 83.4471 77.5959C80.743 79.7496 75.0342 94.238 69.626 97.2401C65.2994 99.6418 63.5166 91.9103 63.9172 88.5601" stroke="#A1A5CE" stroke-opacity="0.15" stroke-width="0.531645"/>
<path d="M254.408 88.8867C245.996 81.7227 225.613 69.5166 213.246 85.4547C208.138 92.0373 195.218 105.484 190.638 97.6635L183.5 88.8867C178.693 82.7729 167.155 74.2137 159.463 88.8867C151.772 103.56 144.641 100.777 142.037 97.5509C134.425 86.8988 121.846 69.2402 115.596 82.0228C109.347 94.8054 102.676 102.952 98.4701 99.8014C87.5147 91.5958 89.1066 75.549 83.4471 79.4348C80.743 81.2914 75.0342 93.7814 69.626 96.3694C65.2994 98.4399 63.5166 91.7748 63.9172 88.8867" stroke="#A1A5CE" stroke-opacity="0.15" stroke-width="0.531645"/>
<path d="M255.01 88.757C246.57 82.8348 226.123 72.7444 213.717 85.92C208.593 91.3616 195.632 102.477 191.038 96.0125L183.878 88.757C179.055 83.703 167.481 76.6274 159.765 88.757C152.049 100.887 144.896 98.586 142.283 95.9195C134.648 87.1137 122.029 72.5159 115.76 83.0829C109.49 93.6498 102.799 100.384 98.5793 97.7799C87.5894 90.9966 89.1863 77.7312 83.5089 80.9435C80.7963 82.4783 75.0695 92.8034 69.6442 94.9428C65.3039 96.6543 63.5156 91.1445 63.9175 88.757" stroke="#A1A5CE" stroke-opacity="0.15" stroke-width="0.531645"/>
<path d="M254.408 89.0765C245.969 83.9185 225.522 75.13 213.116 86.6055C207.992 91.345 195.031 101.026 190.436 95.3958L183.276 89.0765C178.454 84.6746 166.88 78.512 159.164 89.0765C151.448 99.641 144.294 97.6372 141.682 95.3148C134.047 87.6452 121.428 74.931 115.158 84.1345C108.889 93.338 102.198 99.2036 97.9781 96.9351C86.9882 91.0271 88.5852 79.4733 82.9078 82.2711C80.1951 83.6079 74.4684 92.6007 69.043 94.4641C64.7028 95.9548 62.9144 91.1559 63.3163 89.0765" stroke="#A1A5CE" stroke-opacity="0.15" stroke-width="0.531645"/>
<path d="M254.408 89.2525C245.969 85.3362 225.522 78.6635 213.116 87.3764C207.992 90.9749 195.031 98.3256 190.436 94.0505L183.276 89.2525C178.454 85.9103 166.88 81.2313 159.164 89.2525C151.448 97.2738 144.294 95.7523 141.682 93.989C134.047 88.1658 121.428 78.5124 115.158 85.5003C108.889 92.4881 102.198 96.9416 97.9781 95.2192C86.9882 90.7335 88.5852 81.9612 82.9078 84.0855C80.1951 85.1004 74.4684 91.9283 69.043 93.3431C64.7028 94.4749 62.9144 90.8313 63.3163 89.2525" stroke="#A1A5CE" stroke-opacity="0.15" stroke-width="0.531645"/>
</g>
</g>
<defs>
<filter id="filter0_f_2515_11197" x="52.329" y="43.6711" width="203.988" height="86.3922" filterUnits="userSpaceOnUse" color-interpolation-filters="sRGB">
<feFlood flood-opacity="0" result="BackgroundImageFix"/>
<feBlend mode="normal" in="SourceGraphic" in2="BackgroundImageFix" result="shape"/>
<feGaussianBlur stdDeviation="0.531645" result="effect1_foregroundBlur_2515_11197"/>
</filter>
<filter id="filter1_f_2515_11197" x="53.1895" y="-3.31103" width="207.016" height="185.476" filterUnits="userSpaceOnUse" color-interpolation-filters="sRGB">
<feFlood flood-opacity="0" result="BackgroundImageFix"/>
<feBlend mode="normal" in="SourceGraphic" in2="BackgroundImageFix" result="shape"/>
<feGaussianBlur stdDeviation="26.5823" result="effect1_foregroundBlur_2515_11197"/>
</filter>
<filter id="filter2_f_2515_11197" x="91.2689" y="60.4709" width="145.595" height="53.8053" filterUnits="userSpaceOnUse" color-interpolation-filters="sRGB">
<feFlood flood-opacity="0" result="BackgroundImageFix"/>
<feBlend mode="normal" in="SourceGraphic" in2="BackgroundImageFix" result="shape"/>
<feGaussianBlur stdDeviation="0.531645" result="effect1_foregroundBlur_2515_11197"/>
</filter>
<filter id="filter3_f_2515_11197" x="51.8609" y="75.4114" width="209.198" height="22.8041" filterUnits="userSpaceOnUse" color-interpolation-filters="sRGB">
<feFlood flood-opacity="0" result="BackgroundImageFix"/>
<feBlend mode="normal" in="SourceGraphic" in2="BackgroundImageFix" result="shape"/>
<feGaussianBlur stdDeviation="5.39952" result="effect1_foregroundBlur_2515_11197"/>
</filter>
<filter id="filter4_f_2515_11197" x="67.5335" y="75.4114" width="177.852" height="22.8041" filterUnits="userSpaceOnUse" color-interpolation-filters="sRGB">
<feFlood flood-opacity="0" result="BackgroundImageFix"/>
<feBlend mode="normal" in="SourceGraphic" in2="BackgroundImageFix" result="shape"/>
<feGaussianBlur stdDeviation="5.39952" result="effect1_foregroundBlur_2515_11197"/>
</filter>
<filter id="filter5_f_2515_11197" x="74.7329" y="82.6108" width="163.454" height="8.40542" filterUnits="userSpaceOnUse" color-interpolation-filters="sRGB">
<feFlood flood-opacity="0" result="BackgroundImageFix"/>
<feBlend mode="normal" in="SourceGraphic" in2="BackgroundImageFix" result="shape"/>
<feGaussianBlur stdDeviation="1.79984" result="effect1_foregroundBlur_2515_11197"/>
</filter>
<filter id="filter6_ddi_2515_11197" x="73.653" y="85.1305" width="165.613" height="10.5652" filterUnits="userSpaceOnUse" color-interpolation-filters="sRGB">
<feFlood flood-opacity="0" result="BackgroundImageFix"/>
<feColorMatrix in="SourceAlpha" type="matrix" values="0 0 0 0 0 0 0 0 0 0 0 0 0 0 0 0 0 0 127 0" result="hardAlpha"/>
<feOffset dy="2.33979"/>
<feGaussianBlur stdDeviation="0.899921"/>
<feColorMatrix type="matrix" values="0 0 0 0 0.3 0 0 0 0 0 0 0 0 0 0.26 0 0 0 0.7 0"/>
<feBlend mode="multiply" in2="BackgroundImageFix" result="effect1_dropShadow_2515_11197"/>
<feColorMatrix in="SourceAlpha" type="matrix" values="0 0 0 0 0 0 0 0 0 0 0 0 0 0 0 0 0 0 127 0" result="hardAlpha"/>
<feOffset dy="3.59968"/>
<feGaussianBlur stdDeviation="2.33979"/>
<feColorMatrix type="matrix" values="0 0 0 0 0.6 0 0 0 0 0 0 0 0 0 0.6 0 0 0 1 0"/>
<feBlend mode="color-dodge" in2="effect1_dropShadow_2515_11197" result="effect2_dropShadow_2515_11197"/>
<feBlend mode="normal" in="SourceGraphic" in2="effect2_dropShadow_2515_11197" result="shape"/>
<feColorMatrix in="SourceAlpha" type="matrix" values="0 0 0 0 0 0 0 0 0 0 0 0 0 0 0 0 0 0 127 0" result="hardAlpha"/>
<feOffset dx="-0.233979" dy="0.467959"/>
<feGaussianBlur stdDeviation="0.11699"/>
<feComposite in2="hardAlpha" operator="arithmetic" k2="-1" k3="1"/>
<feColorMatrix type="matrix" values="0 0 0 0 1 0 0 0 0 1 0 0 0 0 1 0 0 0 0.5 0"/>
<feBlend mode="normal" in2="shape" result="effect3_innerShadow_2515_11197"/>
</filter>
<filter id="filter7_f_2515_11197" x="77.9726" y="85.8505" width="156.974" height="1.92599" filterUnits="userSpaceOnUse" color-interpolation-filters="sRGB">
<feFlood flood-opacity="0" result="BackgroundImageFix"/>
<feBlend mode="normal" in="SourceGraphic" in2="BackgroundImageFix" result="shape"/>
<feGaussianBlur stdDeviation="0.179984" result="effect1_foregroundBlur_2515_11197"/>
</filter>
<filter id="filter8_f_2515_11197" x="78.0926" y="85.9705" width="156.734" height="1.68601" filterUnits="userSpaceOnUse" color-interpolation-filters="sRGB">
<feFlood flood-opacity="0" result="BackgroundImageFix"/>
<feBlend mode="normal" in="SourceGraphic" in2="BackgroundImageFix" result="shape"/>
<feGaussianBlur stdDeviation="0.119989" result="effect1_foregroundBlur_2515_11197"/>
</filter>
<filter id="filter9_f_2515_11197" x="74.0986" y="39.7016" width="179.461" height="84.1447" filterUnits="userSpaceOnUse" color-interpolation-filters="sRGB">
<feFlood flood-opacity="0" result="BackgroundImageFix"/>
<feBlend mode="normal" in="SourceGraphic" in2="BackgroundImageFix" result="shape"/>
<feGaussianBlur stdDeviation="5.31645" result="effect1_foregroundBlur_2515_11197"/>
</filter>
<filter id="filter10_f_2515_11197" x="42.7594" y="34.1015" width="214.125" height="84.1442" filterUnits="userSpaceOnUse" color-interpolation-filters="sRGB">
<feFlood flood-opacity="0" result="BackgroundImageFix"/>
<feBlend mode="normal" in="SourceGraphic" in2="BackgroundImageFix" result="shape"/>
<feGaussianBlur stdDeviation="5.31645" result="effect1_foregroundBlur_2515_11197"/>
</filter>
<filter id="filter11_f_2515_11197" x="60.3372" y="54.769" width="197.574" height="68.1949" filterUnits="userSpaceOnUse" color-interpolation-filters="sRGB">
<feFlood flood-opacity="0" result="BackgroundImageFix"/>
<feBlend mode="normal" in="SourceGraphic" in2="BackgroundImageFix" result="shape"/>
<feGaussianBlur stdDeviation="1.32911" result="effect1_foregroundBlur_2515_11197"/>
</filter>
<linearGradient id="paint0_linear_2515_11197" x1="156.221" y1="49.48" x2="156.221" y2="124.893" gradientUnits="userSpaceOnUse">
<stop stop-color="#B44FB4" stop-opacity="0.21"/>
<stop offset="1" stop-color="#B80F74" stop-opacity="0.13"/>
</linearGradient>
<linearGradient id="paint1_linear_2515_11197" x1="156.216" y1="52.0933" x2="156.216" y2="123.027" gradientUnits="userSpaceOnUse">
<stop stop-color="#B44FB4" stop-opacity="0.21"/>
<stop offset="1" stop-color="#B80F74" stop-opacity="0.13"/>
</linearGradient>
<linearGradient id="paint2_linear_2515_11197" x1="156.221" y1="55.4531" x2="156.221" y2="121.533" gradientUnits="userSpaceOnUse">
<stop stop-color="#B44FB4" stop-opacity="0.21"/>
<stop offset="1" stop-color="#B80F74" stop-opacity="0.13"/>
</linearGradient>
<linearGradient id="paint3_linear_2515_11197" x1="156.216" y1="53.96" x2="156.216" y2="120.413" gradientUnits="userSpaceOnUse">
<stop stop-color="#B44FB4" stop-opacity="0.21"/>
<stop offset="1" stop-color="#B80F74" stop-opacity="0.13"/>
</linearGradient>
<linearGradient id="paint4_linear_2515_11197" x1="156.216" y1="52.0933" x2="156.216" y2="118.547" gradientUnits="userSpaceOnUse">
<stop stop-color="#B44FB4" stop-opacity="0.21"/>
<stop offset="1" stop-color="#B80F74" stop-opacity="0.13"/>
</linearGradient>
<linearGradient id="paint5_linear_2515_11197" x1="156.216" y1="57.6934" x2="156.216" y2="117.053" gradientUnits="userSpaceOnUse">
<stop stop-color="#B44FB4" stop-opacity="0.21"/>
<stop offset="1" stop-color="#B80F74" stop-opacity="0.13"/>
</linearGradient>
<linearGradient id="paint6_linear_2515_11197" x1="156.216" y1="59.5596" x2="156.216" y2="113.693" gradientUnits="userSpaceOnUse">
<stop stop-color="#B44FB4" stop-opacity="0.21"/>
<stop offset="1" stop-color="#B80F74" stop-opacity="0.13"/>
</linearGradient>
<linearGradient id="paint7_linear_2515_11197" x1="155.972" y1="61.4268" x2="155.972" y2="111.08" gradientUnits="userSpaceOnUse">
<stop stop-color="#B44FB4" stop-opacity="0.21"/>
<stop offset="1" stop-color="#B80F74" stop-opacity="0.13"/>
</linearGradient>
<linearGradient id="paint8_linear_2515_11197" x1="156.216" y1="64.04" x2="156.216" y2="108.84" gradientUnits="userSpaceOnUse">
<stop stop-color="#B44FB4" stop-opacity="0.21"/>
<stop offset="1" stop-color="#B80F74" stop-opacity="0.13"/>
</linearGradient>
<linearGradient id="paint9_linear_2515_11197" x1="156.216" y1="66.2798" x2="156.216" y2="107.72" gradientUnits="userSpaceOnUse">
<stop stop-color="#B44FB4" stop-opacity="0.21"/>
<stop offset="1" stop-color="#B80F74" stop-opacity="0.13"/>
</linearGradient>
<linearGradient id="paint10_linear_2515_11197" x1="156.216" y1="68.1465" x2="156.216" y2="105.106" gradientUnits="userSpaceOnUse">
<stop stop-color="#B44FB4" stop-opacity="0.21"/>
<stop offset="1" stop-color="#B80F74" stop-opacity="0.13"/>
</linearGradient>
<linearGradient id="paint11_linear_2515_11197" x1="156.216" y1="70.3862" x2="156.216" y2="102.866" gradientUnits="userSpaceOnUse">
<stop stop-color="#B44FB4" stop-opacity="0.21"/>
<stop offset="1" stop-color="#B80F74" stop-opacity="0.13"/>
</linearGradient>
<linearGradient id="paint12_linear_2515_11197" x1="156.216" y1="73" x2="156.216" y2="101" gradientUnits="userSpaceOnUse">
<stop stop-color="#B44FB4" stop-opacity="0.21"/>
<stop offset="1" stop-color="#B80F74" stop-opacity="0.13"/>
</linearGradient>
<linearGradient id="paint13_linear_2515_11197" x1="155.972" y1="75.2397" x2="155.972" y2="98.3864" gradientUnits="userSpaceOnUse">
<stop stop-color="#B44FB4" stop-opacity="0.21"/>
<stop offset="1" stop-color="#B80F74" stop-opacity="0.13"/>
</linearGradient>
<linearGradient id="paint14_linear_2515_11197" x1="156.46" y1="77.1064" x2="156.46" y2="97.2664" gradientUnits="userSpaceOnUse">
<stop stop-color="#B44FB4" stop-opacity="0.21"/>
<stop offset="1" stop-color="#B80F74" stop-opacity="0.13"/>
</linearGradient>
<linearGradient id="paint15_linear_2515_11197" x1="156.46" y1="79.7197" x2="156.46" y2="95.0264" gradientUnits="userSpaceOnUse">
<stop stop-color="#B44FB4" stop-opacity="0.21"/>
<stop offset="1" stop-color="#B80F74" stop-opacity="0.13"/>
</linearGradient>
<linearGradient id="paint16_linear_2515_11197" x1="156.46" y1="81.96" x2="156.46" y2="92.7866" gradientUnits="userSpaceOnUse">
<stop stop-color="#B44FB4" stop-opacity="0.21"/>
<stop offset="1" stop-color="#B80F74" stop-opacity="0.13"/>
</linearGradient>
</defs>
</svg>
