<svg width="375" height="349" viewBox="0 0 375 349" fill="none" xmlns="http://www.w3.org/2000/svg">
<g filter="url(#filter0_f_1526_138496)">
<g filter="url(#filter1_f_1526_138496)">
<ellipse cx="205.906" cy="174.564" rx="94.6933" ry="74.4356" fill="#A22EBF" fill-opacity="0.34"/>
</g>
<g opacity="0.6" filter="url(#filter2_f_1526_138496)">
<path d="M85.3066 170.147C97.1415 140.08 125.815 88.8489 143.213 155.743C150.399 183.371 168.574 239.807 175.017 206.985L185.058 170.147C191.821 144.487 208.051 108.563 218.872 170.147C229.692 231.732 239.724 220.051 243.387 206.512C254.095 161.804 271.791 87.6889 280.582 141.339C289.374 194.989 298.757 229.181 304.675 215.958C320.086 181.518 317.847 114.168 325.809 130.477C329.613 138.269 337.644 190.691 345.252 201.553C351.338 210.243 353.846 182.269 353.283 170.147" stroke="#703970" stroke-opacity="0.67"/>
<path d="M86.1465 171.129C97.9072 143.124 126.401 95.4093 143.69 157.713C150.83 183.445 168.891 236.008 175.295 205.438L185.272 171.129C191.993 147.229 208.122 113.771 218.874 171.129C229.627 228.486 239.596 217.607 243.236 204.998C253.876 163.358 271.461 94.3289 280.198 144.297C288.934 194.265 298.259 226.111 304.139 213.795C319.454 181.719 317.229 118.99 325.141 134.18C328.921 141.438 336.901 190.262 344.462 200.379C350.51 208.473 353.002 182.418 352.442 171.129" stroke="#703970" stroke-opacity="0.67"/>
<path d="M85.3066 172.576C97.1415 146.341 125.815 101.639 143.213 160.008C150.399 184.114 168.574 233.358 175.017 204.718L185.058 172.576C191.821 150.187 208.051 118.841 218.872 172.576C229.692 226.311 239.724 216.119 243.387 204.306C254.095 165.296 271.791 100.627 280.582 147.439C289.374 194.252 298.757 224.086 304.675 212.548C320.086 182.498 317.847 123.731 325.809 137.962C329.613 144.761 337.644 190.502 345.252 199.98C351.338 207.562 353.846 183.153 353.283 172.576" stroke="#703970" stroke-opacity="0.67"/>
<path d="M85.3066 170.69C97.1415 144.454 125.815 99.7526 143.213 158.121C150.399 182.228 168.574 231.471 175.017 202.832L185.058 170.69C191.821 148.3 208.051 116.954 218.872 170.69C229.692 224.425 239.724 214.233 243.387 202.42C254.095 163.409 271.791 98.7404 280.582 145.553C289.374 192.365 298.757 222.2 304.675 210.661C320.086 180.611 317.847 121.844 325.809 136.075C329.613 142.874 337.644 188.615 345.252 198.093C351.338 205.675 353.846 181.266 353.283 170.69" stroke="#703970" stroke-opacity="0.67"/>
<path d="M85.3066 168.332C97.1415 142.096 125.815 97.3947 143.213 155.763C150.399 179.87 168.574 229.113 175.017 200.474L185.058 168.332C191.821 145.942 208.051 114.596 218.872 168.332C229.692 222.067 239.724 211.875 243.387 200.062C254.095 161.052 271.791 96.3825 280.582 143.195C289.374 190.007 298.757 219.842 304.675 208.303C320.086 178.253 317.847 119.486 325.809 133.717C329.613 140.516 337.644 186.257 345.252 195.735C351.338 203.317 353.846 178.908 353.283 168.332" stroke="#703970" stroke-opacity="0.67"/>
<path d="M86.1465 170.977C97.9072 147.542 126.401 107.612 143.69 159.751C150.83 181.284 168.891 225.271 175.295 199.689L185.272 170.977C191.993 150.978 208.122 122.978 218.874 170.977C229.627 218.977 239.596 209.873 243.236 199.321C253.876 164.474 271.461 106.708 280.198 148.524C288.934 190.339 298.259 216.989 304.139 206.683C319.454 179.84 317.229 127.346 325.141 140.058C328.921 146.131 336.901 186.989 344.462 195.456C350.51 202.229 353.002 180.425 352.442 170.977" stroke="#703970" stroke-opacity="0.67"/>
<path d="M86.1465 170.072C97.9072 148.7 126.401 112.287 143.69 159.834C150.83 179.471 168.891 219.586 175.295 196.256L185.272 170.072C191.993 151.833 208.122 126.299 218.874 170.072C229.627 213.845 239.596 205.543 243.236 195.92C253.876 164.142 271.461 111.462 280.198 149.596C288.934 187.729 298.259 212.033 304.139 202.634C319.454 178.154 317.229 130.283 325.141 141.875C328.921 147.414 336.901 184.674 344.462 192.395C350.51 198.572 353.002 178.688 352.442 170.072" stroke="#703970" stroke-opacity="0.67"/>
<path d="M85.3066 169.633C97.1044 150.03 125.688 116.63 143.032 160.242C150.195 178.255 168.313 215.049 174.736 193.65L184.745 169.633C191.487 152.904 207.667 129.483 218.453 169.633C229.24 209.784 239.24 202.168 242.892 193.342C253.566 164.194 271.206 115.874 279.97 150.851C288.734 185.829 298.088 208.121 303.987 199.5C319.351 177.046 317.118 133.137 325.055 143.769C328.847 148.85 336.853 183.027 344.437 190.109C350.504 195.774 353.004 177.536 352.443 169.633" stroke="#703970" stroke-opacity="0.67"/>
<path d="M86.1465 169.904C97.9072 152.217 126.401 122.081 143.69 161.431C150.83 177.683 168.891 210.881 175.295 191.573L185.272 169.904C191.993 154.81 208.122 133.678 218.874 169.904C229.627 206.13 239.596 199.259 243.236 191.295C253.876 164.996 271.461 121.399 280.198 152.958C288.934 184.517 298.259 204.63 304.139 196.851C319.454 176.593 317.229 136.975 325.141 146.568C328.921 151.152 336.901 181.989 344.462 188.378C350.51 193.49 353.002 177.034 352.442 169.904" stroke="#703970" stroke-opacity="0.67"/>
<path d="M86.1465 170.636C97.9072 154.275 126.401 126.4 143.69 162.798C150.83 177.831 168.891 208.539 175.295 190.679L185.272 170.636C191.993 156.673 208.122 137.126 218.874 170.636C229.627 204.145 239.596 197.789 243.236 190.422C253.876 166.096 271.461 125.768 280.198 154.96C288.934 184.152 298.259 202.757 304.139 195.562C319.454 176.822 317.229 140.176 325.141 149.05C328.921 153.29 336.901 181.814 344.462 187.724C350.51 192.452 353.002 177.231 352.442 170.636" stroke="#703970" stroke-opacity="0.67"/>
<path d="M86.1465 170.197C97.9072 155.605 126.401 130.743 143.69 163.207C150.83 176.614 168.891 204.003 175.295 188.074L185.272 170.197C191.993 157.744 208.122 140.311 218.874 170.197C229.627 200.083 239.596 194.415 243.236 187.845C253.876 166.148 271.461 130.18 280.198 156.216C288.934 182.252 298.259 198.846 304.139 192.428C319.454 175.715 317.229 143.03 325.141 150.945C328.921 154.727 336.901 180.167 344.462 185.438C350.51 189.655 353.002 176.08 352.442 170.197" stroke="#703970" stroke-opacity="0.67"/>
<path d="M86.1465 170.23C97.9072 157.407 126.401 135.559 143.69 164.087C150.83 175.87 168.891 199.938 175.295 185.94L185.272 170.23C191.993 159.287 208.122 143.966 218.874 170.23C229.627 196.494 239.596 191.512 243.236 185.739C253.876 166.672 271.461 135.064 280.198 157.944C288.934 180.824 298.259 195.406 304.139 189.767C319.454 175.079 317.229 146.356 325.141 153.312C328.921 156.635 336.901 178.991 344.462 183.624C350.51 187.33 353.002 175.4 352.442 170.23" stroke="#703970" stroke-opacity="0.67"/>
<path d="M86.1465 170.734C97.9072 159.68 126.401 140.845 143.69 165.438C150.83 175.596 168.891 196.344 175.295 184.277L185.272 170.734C191.993 161.3 208.122 148.093 218.874 170.734C229.627 193.375 239.596 189.081 243.236 184.104C253.876 167.667 271.461 140.418 280.198 160.143C288.934 179.867 298.259 192.438 304.139 187.576C319.454 174.914 317.229 150.153 325.141 156.149C328.921 159.014 336.901 178.287 344.462 182.28C350.51 185.475 353.002 175.191 352.442 170.734" stroke="#703970" stroke-opacity="0.67"/>
<path d="M85.3066 170.533C97.1044 161.395 125.688 145.825 143.032 166.155C150.195 174.552 168.313 191.704 174.736 181.729L184.745 170.533C191.487 162.735 207.667 151.816 218.453 170.533C229.24 189.25 239.24 185.7 242.892 181.585C253.566 167.997 271.206 145.472 279.97 161.778C288.734 178.083 298.088 188.475 303.987 184.456C319.351 173.989 317.118 153.52 325.055 158.476C328.847 160.845 336.853 176.777 344.437 180.078C350.504 182.719 353.004 174.217 352.443 170.533" stroke="#703970" stroke-opacity="0.67"/>
<path d="M86.1465 171.027C97.9443 163.068 126.528 149.507 143.871 167.214C151.034 174.527 169.152 189.466 175.576 180.778L185.585 171.027C192.327 164.235 208.507 154.725 219.293 171.027C230.08 187.329 240.08 184.237 243.731 180.653C254.406 168.818 272.046 149.2 280.81 163.401C289.574 177.603 298.928 186.654 304.827 183.153C320.19 174.037 317.958 156.209 325.895 160.526C329.687 162.589 337.692 176.465 345.277 179.34C351.344 181.641 353.844 174.236 353.282 171.027" stroke="#703970" stroke-opacity="0.67"/>
<path d="M86.1465 171.298C97.9443 165.255 126.528 154.959 143.871 168.403C151.034 173.956 169.152 185.299 175.576 178.702L185.585 171.298C192.327 166.141 208.507 158.921 219.293 171.298C230.08 183.675 240.08 181.328 243.731 178.607C254.406 169.621 272.046 154.726 280.81 165.508C289.574 176.291 298.928 183.163 304.827 180.505C320.19 173.584 317.958 160.047 325.895 163.325C329.687 164.891 337.692 175.427 345.277 177.61C351.344 179.357 353.844 173.734 353.282 171.298" stroke="#703970" stroke-opacity="0.67"/>
<path d="M85.3066 171.331C97.1786 167.057 125.942 159.774 143.395 169.283C150.603 173.211 168.835 181.234 175.298 176.568L185.371 171.331C192.155 167.683 208.436 162.576 219.291 171.331C230.145 180.086 240.208 178.425 243.883 176.5C254.624 170.145 272.375 159.609 281.195 167.236C290.014 174.862 299.427 179.723 305.363 177.843C320.822 172.947 318.576 163.373 326.563 165.691C330.379 166.799 338.435 174.251 346.067 175.796C352.172 177.031 354.688 173.054 354.123 171.331" stroke="#703970" stroke-opacity="0.67"/>
</g>
<path d="M58.5068 169.533C71.4435 125.199 102.787 49.6622 121.804 148.295C129.659 189.031 149.526 272.243 156.569 223.848L167.545 169.533C174.937 131.699 192.679 78.7301 204.507 169.533C216.334 260.336 227.3 243.113 231.304 223.151C243.009 157.231 262.352 47.9518 271.962 127.056C281.572 206.161 291.829 256.576 298.298 237.078C315.144 186.298 312.696 86.9934 321.399 111.04C325.557 122.53 334.335 199.824 342.652 215.84C349.305 228.652 352.046 187.406 351.43 169.533" stroke="url(#paint0_linear_1526_138496)"/>
<path d="M59.4248 170.284C72.2795 128.584 103.424 57.534 122.321 150.307C130.126 188.623 149.867 266.893 156.866 221.372L167.772 170.284C175.117 134.697 192.747 84.8751 204.499 170.284C216.252 255.693 227.148 239.493 231.127 220.717C242.758 158.713 261.978 55.9252 271.528 130.33C281.077 204.736 291.269 252.156 297.696 233.816C314.436 186.053 312.003 92.6475 320.651 115.266C324.783 126.073 333.506 198.775 341.769 213.84C348.38 225.891 351.104 187.095 350.492 170.284" stroke="url(#paint1_linear_1526_138496)"/>
<path d="M58.5068 172.092C71.4435 133.245 102.787 67.0565 121.804 153.482C129.659 189.176 149.526 262.091 156.569 219.684L167.545 172.092C174.937 138.94 192.679 92.5269 204.507 172.092C216.334 251.657 227.3 236.566 231.304 219.074C243.009 161.312 262.352 65.5578 271.962 134.872C281.572 204.186 291.829 248.362 298.298 231.277C315.144 186.782 312.696 99.7675 321.399 120.838C325.557 130.906 334.335 198.634 342.652 212.668C349.305 223.895 352.046 187.753 351.43 172.092" stroke="url(#paint2_linear_1526_138496)"/>
<path d="M58.5068 169.63C71.4427 130.564 102.784 64.0016 121.8 150.915C129.654 186.811 149.52 260.138 156.562 217.492L167.537 169.63C174.929 136.291 192.67 89.6159 204.497 169.63C216.324 249.645 227.288 234.468 231.292 216.878C242.996 158.79 262.338 62.4944 271.948 132.2C281.557 201.906 291.814 246.331 298.281 229.15C315.127 184.404 312.679 96.8974 321.381 118.087C325.539 128.212 334.317 196.322 342.633 210.435C349.286 221.726 352.027 185.38 351.411 169.63" stroke="url(#paint3_linear_1526_138496)"/>
<path d="M58.5068 166.119C71.4427 127.053 102.784 60.4904 121.8 147.404C129.654 183.3 149.52 256.626 156.562 213.981L167.537 166.119C174.929 132.78 192.67 86.1046 204.497 166.119C216.324 246.134 227.288 230.957 231.292 213.367C242.996 155.279 262.338 58.9831 271.948 128.689C281.557 198.395 291.814 242.82 298.281 225.639C315.127 180.892 312.679 93.3861 321.381 114.576C325.539 124.701 334.317 192.811 342.633 206.924C349.286 218.214 352.027 181.868 351.411 166.119" stroke="url(#paint4_linear_1526_138496)"/>
<path d="M59.4248 170.058C72.2795 135.162 103.424 75.7044 122.321 153.341C130.126 185.405 149.867 250.904 156.866 212.811L167.772 170.058C175.117 140.278 192.747 98.5846 204.499 170.058C216.252 241.532 227.148 227.975 231.127 212.263C242.758 160.375 261.978 74.3581 271.528 136.623C281.077 198.889 291.269 238.572 297.696 223.225C314.436 183.255 312.003 105.089 320.651 124.017C324.783 133.061 333.506 193.901 341.769 206.507C348.38 216.593 351.104 184.126 350.492 170.058" stroke="url(#paint5_linear_1526_138496)"/>
<path d="M59.4248 168.711C72.2795 136.887 103.424 82.6646 122.321 153.465C130.126 182.706 149.867 242.438 156.866 207.699L167.772 168.711C175.117 141.552 192.747 103.53 204.499 168.711C216.252 233.891 227.148 221.528 231.127 207.199C242.758 159.88 261.978 81.4369 271.528 138.22C281.077 195.003 291.269 231.192 297.696 217.196C314.436 180.745 312.003 109.462 320.651 126.723C324.783 134.971 333.506 190.454 341.769 201.951C348.38 211.148 351.104 181.54 350.492 168.711" stroke="url(#paint6_linear_1526_138496)"/>
<path d="M58.5068 168.057C71.4021 138.867 102.645 89.1322 121.602 154.073C129.431 180.895 149.234 235.683 156.255 203.819L167.196 168.057C174.564 143.146 192.249 108.271 204.039 168.057C215.829 227.843 226.759 216.503 230.751 203.36C242.418 159.957 261.699 88.006 271.279 140.09C280.858 192.173 291.082 225.367 297.53 212.53C314.322 179.096 311.882 113.712 320.557 129.545C324.702 137.109 333.452 188.001 341.742 198.546C348.374 206.982 351.107 179.825 350.493 168.057" stroke="url(#paint7_linear_1526_138496)"/>
<path d="M59.4248 168.461C72.2795 142.124 103.424 97.2504 122.321 155.844C130.126 180.043 149.867 229.477 156.866 200.727L167.772 168.461C175.117 145.985 192.747 114.518 204.499 168.461C216.252 222.403 227.148 212.172 231.127 200.313C242.758 161.153 261.978 96.2343 271.528 143.227C281.077 190.22 291.269 220.169 297.696 208.587C314.436 178.42 312.003 119.427 320.651 133.713C324.783 140.538 333.506 186.455 341.769 195.97C348.38 203.581 351.104 179.078 350.492 168.461" stroke="url(#paint8_linear_1526_138496)"/>
<path d="M59.4248 169.55C72.2795 145.189 103.424 103.681 122.321 157.879C130.126 180.264 149.867 225.99 156.866 199.396L167.772 169.55C175.117 148.76 192.747 119.653 204.499 169.55C216.252 219.447 227.148 209.983 231.127 199.014C242.758 162.79 261.978 102.741 271.528 146.209C281.077 189.677 291.269 217.381 297.696 206.667C314.436 178.763 312.003 124.194 320.651 137.408C324.783 143.722 333.506 186.195 341.769 194.996C348.38 202.037 351.104 179.371 350.492 169.55" stroke="url(#paint9_linear_1526_138496)"/>
<path d="M59.4248 168.897C72.2795 147.169 103.424 110.148 122.321 158.488C130.126 178.452 149.867 219.235 156.866 195.516L167.772 168.897C175.117 150.354 192.747 124.394 204.499 168.897C216.252 213.399 227.148 204.958 231.127 195.175C242.758 162.867 261.978 109.31 271.528 148.079C281.077 186.848 291.269 211.556 297.696 202C314.436 177.113 312.003 128.444 320.651 140.229C324.783 145.86 333.506 183.742 341.769 191.591C348.38 197.871 351.104 177.656 350.492 168.897" stroke="url(#paint10_linear_1526_138496)"/>
<path d="M59.4248 168.945C72.2795 149.851 103.424 117.318 122.321 159.798C130.126 177.343 149.867 213.182 156.866 192.338L167.772 168.945C175.117 152.65 192.747 129.837 204.499 168.945C216.252 208.053 227.148 200.636 231.127 192.038C242.758 163.647 261.978 116.581 271.528 150.651C281.077 184.721 291.269 206.434 297.696 198.036C314.436 176.166 312.003 133.396 320.651 143.753C324.783 148.701 333.506 181.991 341.769 188.889C348.38 194.408 351.104 176.643 350.492 168.945" stroke="url(#paint11_linear_1526_138496)"/>
<path d="M59.4248 169.696C72.2795 153.236 103.424 125.19 122.321 161.811C130.126 176.935 149.867 207.831 156.866 189.862L167.772 169.696C175.117 155.649 192.747 135.982 204.499 169.696C216.252 203.41 227.148 197.015 231.127 189.604C242.758 165.128 261.978 124.555 271.528 153.925C281.077 183.295 291.269 202.014 297.696 194.775C314.436 175.921 312.003 139.05 320.651 147.978C324.783 152.244 333.506 180.943 341.769 186.889C348.38 191.646 351.104 176.332 350.492 169.696" stroke="url(#paint12_linear_1526_138496)"/>
<path d="M58.5068 169.398C71.4021 155.79 102.645 132.606 121.602 162.879C129.431 175.382 149.234 200.923 156.255 186.068L167.196 169.398C174.564 157.785 192.249 141.527 204.039 169.398C215.829 197.268 226.759 191.982 230.751 185.855C242.418 165.622 261.699 132.081 271.279 156.36C280.858 180.64 291.082 196.114 297.53 190.129C314.322 174.543 311.882 144.064 320.557 151.444C324.702 154.971 333.452 178.695 341.742 183.611C348.374 187.543 351.107 174.883 350.493 169.398" stroke="url(#paint13_linear_1526_138496)"/>
<path d="M59.4248 170.132C72.3201 158.281 103.563 138.088 122.52 164.455C130.349 175.345 150.152 197.59 157.173 184.652L168.113 170.132C175.482 160.018 193.167 145.858 204.957 170.132C216.747 194.406 227.677 189.802 231.669 184.466C243.336 166.844 262.617 137.63 272.197 158.777C281.776 179.924 292 193.401 298.448 188.189C315.24 174.614 312.8 148.067 321.475 154.496C325.62 157.567 334.37 178.23 342.66 182.511C349.292 185.937 352.025 174.91 351.41 170.132" stroke="url(#paint14_linear_1526_138496)"/>
<path d="M59.4248 170.536C72.3201 161.538 103.563 146.206 122.52 166.225C130.349 174.494 150.152 191.383 157.173 181.56L168.113 170.536C175.482 162.857 193.167 152.106 204.957 170.536C216.747 188.966 227.677 185.471 231.669 181.419C243.336 168.039 262.617 145.859 272.197 161.915C281.776 177.97 292 188.203 298.448 184.246C315.24 173.939 312.8 153.783 321.475 158.664C325.62 160.996 334.37 176.684 342.66 179.935C349.292 182.536 352.025 174.164 351.41 170.536" stroke="url(#paint15_linear_1526_138496)"/>
<path d="M58.5068 170.585C71.4832 164.22 102.922 153.376 121.998 167.536C129.877 173.384 149.805 185.33 156.87 178.382L167.879 170.585C175.294 165.153 193.09 157.549 204.954 170.585C216.819 183.621 227.818 181.148 231.834 178.282C243.575 168.819 262.977 153.13 272.617 164.487C282.257 175.843 292.545 183.081 299.033 180.282C315.931 172.992 313.476 158.735 322.205 162.187C326.376 163.837 335.182 174.933 343.524 177.233C350.197 179.072 352.947 173.151 352.329 170.585" stroke="url(#paint16_linear_1526_138496)"/>
<g opacity="0.5">
<g style="mix-blend-mode:hard-light" filter="url(#filter3_f_1526_138496)">
<ellipse cx="205.46" cy="169.649" rx="176.433" ry="1.13436" fill="#FF377F" fill-opacity="0.69"/>
</g>
<g style="mix-blend-mode:hard-light" filter="url(#filter4_f_1526_138496)">
<rect x="59.074" y="169.082" width="292.772" height="1.13436" rx="0.567179" stroke="#F32E7C" stroke-width="1.13436"/>
</g>
<g style="mix-blend-mode:hard-light" filter="url(#filter5_f_1526_138496)">
<rect x="59.074" y="169.082" width="292.772" height="1.13436" rx="0.567179" stroke="#FF26C2" stroke-width="1.13436"/>
</g>
<g style="mix-blend-mode:hard-light" filter="url(#filter6_ddi_1526_138496)">
<rect x="59.074" y="169.082" width="292.772" height="1.13436" rx="0.567179" stroke="#FB37FF" stroke-opacity="0.2" stroke-width="1.13436"/>
</g>
<g filter="url(#filter7_f_1526_138496)">
<rect x="59.074" y="169.082" width="292.772" height="1.13436" rx="0.567179" stroke="#FB37FF" stroke-width="1.13436"/>
</g>
<g filter="url(#filter8_f_1526_138496)">
<rect x="59.074" y="169.082" width="292.772" height="1.13436" rx="0.567179" stroke="white" stroke-width="1.13436"/>
</g>
</g>
<g opacity="0.6" filter="url(#filter9_f_1526_138496)">
<path d="M71.0127 159.492C84.0665 122.84 115.693 60.3912 134.883 141.934C142.808 175.612 162.855 244.406 169.962 204.396L181.037 159.492C188.497 128.213 206.399 84.4226 218.334 159.492C230.269 234.562 241.333 220.323 245.374 203.82C257.184 149.322 276.703 58.9772 286.4 124.375C296.097 189.774 306.447 231.453 312.974 215.334C329.972 173.353 327.502 91.2541 336.284 111.135C340.48 120.633 349.338 184.535 357.73 197.776C364.443 208.368 367.209 174.268 366.587 159.492" stroke="#703970"/>
<path d="M71.9395 160.689C84.9114 126.552 116.34 68.3885 135.409 144.335C143.285 175.702 163.206 239.775 170.269 202.511L181.274 160.689C188.687 131.556 206.477 90.7707 218.337 160.689C230.197 230.607 241.192 217.345 245.207 201.975C256.944 151.216 276.34 67.0715 285.976 127.982C295.613 188.892 305.898 227.711 312.383 212.698C329.276 173.598 326.821 97.1334 335.548 115.649C339.717 124.496 348.52 184.012 356.859 196.345C363.53 206.21 366.279 174.451 365.661 160.689" stroke="#703970"/>
<path d="M71.0127 162.453C84.0665 130.472 115.693 75.9825 134.883 147.132C142.808 176.518 162.855 236.545 169.962 201.634L181.037 162.453C188.497 135.161 206.399 96.951 218.334 162.453C230.269 227.955 241.333 215.531 245.374 201.131C257.184 153.579 276.703 74.7486 286.4 131.812C296.097 188.875 306.447 225.243 312.974 211.178C329.972 174.547 327.502 102.912 336.284 120.258C340.48 128.547 349.338 184.304 357.73 195.857C364.443 205.1 367.209 175.346 366.587 162.453" stroke="#703970"/>
<path d="M71.0127 160.153C84.0665 128.172 115.693 73.6827 134.883 144.833C142.808 174.218 162.855 234.245 169.962 199.334L181.037 160.153C188.497 132.861 206.399 94.6512 218.334 160.153C230.269 225.655 241.333 213.231 245.374 198.832C257.184 151.279 276.703 72.4488 286.4 129.512C296.097 186.575 306.447 222.943 312.974 208.878C329.972 172.247 327.502 100.612 336.284 117.959C340.48 126.247 349.338 182.004 357.73 193.557C364.443 202.8 367.209 173.046 366.587 160.153" stroke="#703970"/>
<path d="M71.0127 157.279C84.0665 125.298 115.693 70.8086 134.883 141.959C142.808 171.344 162.855 231.371 169.962 196.46L181.037 157.279C188.497 129.987 206.399 91.7772 218.334 157.279C230.269 222.781 241.333 210.357 245.374 195.958C257.184 148.405 276.703 69.5748 286.4 126.638C296.097 183.701 306.447 220.069 312.974 206.004C329.972 169.373 327.502 97.738 336.284 115.085C340.48 123.373 349.338 179.13 357.73 190.683C364.443 199.926 367.209 170.172 366.587 157.279" stroke="#703970"/>
<path d="M71.9395 160.504C84.9114 131.937 116.34 83.2631 135.409 146.818C143.285 173.067 163.206 226.687 170.269 195.502L181.274 160.504C188.687 136.124 206.477 101.993 218.337 160.504C230.197 219.014 241.192 207.916 245.207 195.053C256.944 152.577 276.34 82.1609 285.976 133.133C295.613 184.105 305.898 216.591 312.383 204.027C329.276 171.307 326.821 107.318 335.548 122.813C339.717 130.217 348.52 180.022 356.859 190.342C363.53 198.598 366.279 172.02 365.661 160.504" stroke="#703970"/>
<path d="M71.9395 159.401C84.9114 133.349 116.34 88.961 135.409 146.92C143.285 170.858 163.206 219.756 170.269 191.317L181.274 159.401C188.687 137.168 206.477 106.042 218.337 159.401C230.197 212.759 241.192 202.638 245.207 190.908C256.944 152.172 276.34 87.9559 285.976 134.44C295.613 180.924 305.898 210.549 312.383 199.092C329.276 169.252 326.821 110.898 335.548 125.029C339.717 131.78 348.52 177.2 356.859 186.612C363.53 194.141 366.279 169.903 365.661 159.401" stroke="#703970"/>
<path d="M71.0127 158.866C84.0255 134.97 115.553 94.2557 134.683 147.418C142.583 169.375 162.567 214.226 169.652 188.141L180.692 158.866C188.128 138.473 205.975 109.923 217.872 158.866C229.769 207.808 240.799 198.525 244.827 187.766C256.601 152.235 276.058 93.3337 285.725 135.971C295.391 178.608 305.709 205.781 312.215 195.272C329.161 167.902 326.698 114.377 335.452 127.338C339.635 133.531 348.465 175.192 356.831 183.825C363.523 190.731 366.281 168.499 365.661 158.866" stroke="#703970"/>
<path d="M71.9395 159.196C84.9114 137.636 116.34 100.901 135.409 148.868C143.285 168.678 163.206 209.146 170.269 185.61L181.274 159.196C188.687 140.797 206.477 115.037 218.337 159.196C230.197 203.355 241.192 194.979 245.207 185.271C256.944 153.214 276.34 100.07 285.976 138.539C295.613 177.009 305.898 201.526 312.383 192.044C329.276 167.349 326.821 119.056 335.548 130.75C339.717 136.338 348.52 173.927 356.859 181.716C363.53 187.947 366.279 167.888 365.661 159.196" stroke="#703970"/>
<path d="M71.9395 160.088C84.9114 140.145 116.34 106.166 135.409 150.534C143.285 168.859 163.206 206.292 170.269 184.521L181.274 160.088C188.687 143.069 206.477 119.242 218.337 160.088C230.197 200.935 241.192 193.188 245.207 184.208C256.944 154.554 276.34 105.396 285.976 140.981C295.613 176.565 305.898 199.244 312.383 190.473C329.276 167.63 326.821 122.959 335.548 133.776C339.717 138.945 348.52 173.714 356.859 180.919C363.53 186.683 366.279 168.128 365.661 160.088" stroke="#703970"/>
<path d="M71.9395 159.554C84.9114 141.766 116.34 111.46 135.409 151.032C143.285 167.376 163.206 200.762 170.269 181.345L181.274 159.554C188.687 144.374 206.477 123.123 218.337 159.554C230.197 195.984 241.192 189.074 245.207 181.066C256.944 154.618 276.34 110.774 285.976 142.511C295.613 174.249 305.898 194.476 312.383 186.653C329.276 166.28 326.821 126.438 335.548 136.086C339.717 140.695 348.52 171.706 356.859 178.132C363.53 183.273 366.279 166.724 365.661 159.554" stroke="#703970"/>
<path d="M71.9395 159.593C84.9114 143.962 116.34 117.329 135.409 152.105C143.285 166.467 163.206 195.806 170.269 178.743L181.274 159.593C188.687 146.253 206.477 127.578 218.337 159.593C230.197 191.608 241.192 185.536 245.207 178.497C256.944 155.255 276.34 116.726 285.976 144.617C295.613 172.507 305.898 190.282 312.383 183.408C329.276 165.504 326.821 130.491 335.548 138.97C339.717 143.021 348.52 170.273 356.859 175.92C363.53 180.437 366.279 165.894 365.661 159.593" stroke="#703970"/>
<path d="M71.9395 160.208C84.9114 146.733 116.34 123.774 135.409 153.753C143.285 166.134 163.206 191.426 170.269 176.717L181.274 160.208C188.687 148.708 206.477 132.609 218.337 160.208C230.197 187.807 241.192 182.572 245.207 176.505C256.944 156.469 276.34 123.254 285.976 147.297C295.613 171.341 305.898 186.664 312.383 180.738C329.276 165.304 326.821 135.12 335.548 142.429C339.717 145.922 348.52 169.415 356.859 174.283C363.53 178.177 366.279 165.64 365.661 160.208" stroke="#703970"/>
<path d="M71.0127 159.963C84.0255 148.824 115.553 129.844 134.683 154.627C142.583 164.862 162.567 185.77 169.652 173.61L180.692 159.963C188.128 150.457 205.975 137.148 217.872 159.963C229.769 182.779 240.799 178.451 244.827 173.435C256.601 156.872 276.058 129.414 285.725 149.29C295.391 169.166 305.709 181.834 312.215 176.935C329.161 164.176 326.698 139.224 335.452 145.266C339.635 148.153 348.465 167.574 356.831 171.598C363.523 174.818 366.281 164.454 365.661 159.963" stroke="#703970"/>
<path d="M71.9395 160.565C84.9523 150.863 116.48 134.332 135.609 155.917C143.51 164.832 163.494 183.042 170.579 172.451L181.619 160.565C189.055 152.285 206.901 140.693 218.799 160.565C230.696 180.436 241.726 176.667 245.754 172.299C257.528 157.873 276.985 133.958 286.652 151.269C296.318 168.58 306.636 179.613 313.142 175.346C330.087 164.234 327.625 142.502 336.379 147.764C340.562 150.279 349.392 167.194 357.757 170.699C364.45 173.503 367.207 164.476 366.588 160.565" stroke="#703970"/>
<path d="M71.9395 160.895C84.9523 153.529 116.48 140.978 135.609 157.366C143.51 164.135 163.494 177.961 170.579 169.92L181.619 160.895C189.055 154.609 206.901 145.808 218.799 160.895C230.696 175.983 241.726 173.121 245.754 169.804C257.528 158.851 276.985 140.694 286.652 153.837C296.318 166.981 306.636 175.358 313.142 172.118C330.087 163.681 327.625 147.181 336.379 151.176C340.562 153.085 349.392 165.928 357.757 168.589C364.45 170.718 367.207 163.865 366.588 160.895" stroke="#703970"/>
<path d="M71.0127 160.935C84.1074 155.725 115.833 146.847 135.083 158.439C143.034 163.227 163.143 173.006 170.273 167.318L181.382 160.935C188.865 156.489 206.823 150.263 218.796 160.935C230.768 171.607 241.867 169.583 245.92 167.237C257.768 159.489 277.348 146.646 287.075 155.943C296.803 165.24 307.185 171.165 313.732 168.873C330.784 162.905 328.306 151.235 337.116 154.061C341.325 155.411 350.21 164.495 358.628 166.377C365.363 167.883 368.138 163.036 367.514 160.935" stroke="#703970"/>
</g>
<g opacity="0.6" filter="url(#filter10_f_1526_138496)">
<path d="M12.0527 148.959C27.9768 112.307 66.5576 49.858 89.9668 131.401C99.6349 165.078 124.09 233.873 132.76 193.863L146.27 148.959C155.369 117.68 177.208 73.8894 191.767 148.959C206.326 224.029 219.823 209.79 224.752 193.287C239.16 138.789 262.97 48.444 274.799 113.842C286.629 179.24 299.254 220.92 307.216 204.801C327.953 162.82 324.939 80.7209 335.652 100.601C340.77 110.1 351.576 174.002 361.813 187.242C370.002 197.835 373.377 163.735 372.618 148.959" stroke="#404AA3" stroke-opacity="0.18"/>
<path d="M13.1836 150.155C29.0078 116.019 67.3467 57.8553 90.6091 133.802C100.217 165.168 124.518 229.242 133.134 191.977L146.559 150.155C155.601 121.023 177.303 80.2375 191.771 150.155C206.239 220.073 219.652 206.812 224.55 191.441C238.867 140.683 262.528 56.5383 274.283 117.448C286.038 178.359 298.584 217.178 306.496 202.165C327.103 163.065 324.108 86.6002 334.754 105.116C339.84 113.963 350.578 173.479 360.751 185.811C368.889 195.677 372.242 163.917 371.489 150.155" stroke="#404AA3" stroke-opacity="0.18"/>
<path d="M12.0527 151.92C27.9768 119.939 66.5576 65.4493 89.9668 136.599C99.6349 165.985 124.09 226.012 132.76 191.101L146.27 151.92C155.369 124.627 177.208 86.4178 191.767 151.92C206.326 217.422 219.823 204.998 224.752 190.598C239.16 143.046 262.97 64.2154 274.799 121.279C286.629 178.342 299.254 214.709 307.216 200.645C327.953 164.014 324.939 92.3786 335.652 109.725C340.77 118.014 351.576 173.771 361.813 185.324C370.002 194.567 373.377 164.813 372.618 151.92" stroke="#404AA3" stroke-opacity="0.18"/>
<path d="M12.0527 149.62C27.9768 117.639 66.5576 63.1495 89.9668 134.299C99.6349 163.685 124.09 223.712 132.76 188.801L146.27 149.62C155.369 122.328 177.208 84.118 191.767 149.62C206.326 215.122 219.823 202.698 224.752 188.298C239.16 140.746 262.97 61.9156 274.799 118.979C286.629 176.042 299.254 212.41 307.216 198.345C327.953 161.714 324.939 90.0788 335.652 107.425C340.77 115.714 351.576 171.471 361.813 183.024C370.002 192.267 373.377 162.513 372.618 149.62" stroke="#404AA3" stroke-opacity="0.18"/>
<path d="M12.0527 146.746C27.9768 114.765 66.5576 60.2754 89.9668 131.425C99.6349 160.811 124.09 220.838 132.76 185.927L146.27 146.746C155.369 119.454 177.208 81.244 191.767 146.746C206.326 212.248 219.823 199.824 224.752 185.424C239.16 137.872 262.97 59.0416 274.799 116.105C286.629 173.168 299.254 209.536 307.216 195.471C327.953 158.84 324.939 87.2048 335.652 104.551C340.77 112.84 351.576 168.597 361.813 180.15C370.002 189.393 373.377 159.639 372.618 146.746" stroke="#404AA3" stroke-opacity="0.18"/>
<path d="M13.1836 149.97C29.0078 121.403 67.3467 72.7298 90.6091 136.285C100.217 162.534 124.518 216.153 133.134 184.969L146.559 149.97C155.601 125.591 177.303 91.4602 191.771 149.97C206.239 208.481 219.652 197.383 224.55 184.52C238.867 142.043 262.528 71.6277 274.283 122.6C286.038 173.572 298.584 206.058 306.496 193.494C327.103 160.773 324.108 96.7847 334.754 112.28C339.84 119.683 350.578 169.489 360.751 179.809C368.889 188.065 372.242 161.487 371.489 149.97" stroke="#404AA3" stroke-opacity="0.18"/>
<path d="M13.1836 148.867C29.0078 122.816 67.3467 78.4278 90.6091 136.387C100.217 160.325 124.518 209.223 133.134 180.784L146.559 148.867C155.601 126.635 177.303 95.509 191.771 148.867C206.239 202.226 219.652 192.105 224.55 180.375C238.867 141.638 262.528 77.4227 274.283 123.907C286.038 170.391 298.584 200.016 306.496 188.559C327.103 158.719 324.108 100.365 334.754 114.495C339.84 121.247 350.578 166.667 360.751 176.079C368.889 183.608 372.242 159.37 371.489 148.867" stroke="#404AA3" stroke-opacity="0.18"/>
<path d="M12.0527 148.333C27.9268 124.437 66.3868 83.7225 89.7225 136.885C99.3604 158.842 123.738 203.693 132.381 177.608L145.849 148.333C154.92 127.94 176.69 99.39 191.203 148.333C205.717 197.275 219.172 187.992 224.086 177.233C238.448 141.702 262.183 82.8005 273.976 125.438C285.768 168.075 298.354 195.248 306.291 184.739C326.962 157.369 323.958 103.844 334.637 116.805C339.74 122.998 350.512 164.659 360.716 173.292C368.88 180.198 372.244 157.966 371.488 148.333" stroke="#404AA3" stroke-opacity="0.18"/>
<path d="M13.1836 148.662C29.0078 127.102 67.3467 90.3677 90.6091 138.334C100.217 158.144 124.518 198.612 133.134 175.076L146.559 148.662C155.601 130.263 177.303 104.504 191.771 148.662C206.239 192.821 219.652 184.445 224.55 174.738C238.867 142.68 262.528 89.5359 274.283 128.005C286.038 166.475 298.584 190.992 306.496 181.511C327.103 156.816 324.108 108.522 334.754 120.217C339.84 125.804 350.578 163.393 360.751 171.182C368.889 177.413 372.242 157.354 371.489 148.662" stroke="#404AA3" stroke-opacity="0.18"/>
<path d="M13.1836 149.555C29.0078 129.612 67.3467 95.6325 90.6091 140.001C100.217 158.326 124.518 195.758 133.134 173.988L146.559 149.555C155.601 132.536 177.303 108.708 191.771 149.555C206.239 190.402 219.652 182.654 224.55 173.675C238.867 144.021 262.528 94.8631 274.283 130.447C286.038 166.032 298.584 188.71 306.496 179.94C327.103 157.097 324.108 112.426 334.754 123.243C339.84 128.411 350.578 163.181 360.751 170.386C368.889 176.149 372.242 157.595 371.489 149.555" stroke="#404AA3" stroke-opacity="0.18"/>
<path d="M13.1836 149.02C29.0078 131.233 67.3467 100.927 90.6091 140.499C100.217 156.843 124.518 190.229 133.134 170.812L146.559 149.02C155.601 133.841 177.303 112.589 191.771 149.02C206.239 185.451 219.652 178.541 224.55 170.532C238.867 144.085 262.528 100.241 274.283 131.978C286.038 163.716 298.584 183.943 306.496 176.12C327.103 155.747 324.108 115.905 334.754 125.553C339.84 130.162 350.578 161.173 360.751 167.599C368.889 172.74 372.242 156.191 371.489 149.02" stroke="#404AA3" stroke-opacity="0.18"/>
<path d="M13.1836 149.06C29.0078 133.429 67.3467 106.796 90.6091 141.571C100.217 155.934 124.518 185.273 133.134 168.21L146.559 149.06C155.601 135.72 177.303 117.045 191.771 149.06C206.239 181.075 219.652 175.002 224.55 167.964C238.867 144.722 262.528 106.193 274.283 134.083C286.038 161.974 298.584 179.749 306.496 172.875C327.103 154.971 324.108 119.958 334.754 128.436C339.84 132.487 350.578 159.74 360.751 165.386C368.889 169.904 372.242 155.361 371.489 149.06" stroke="#404AA3" stroke-opacity="0.18"/>
<path d="M13.1836 149.674C29.0078 136.199 67.3467 113.24 90.6091 143.219C100.217 155.6 124.518 180.893 133.134 166.183L146.559 149.674C155.601 138.175 177.303 122.075 191.771 149.674C206.239 177.273 219.652 172.039 224.55 165.971C238.867 145.935 262.528 112.72 274.283 136.764C286.038 160.807 298.584 176.131 306.496 170.204C327.103 154.77 324.108 124.587 334.754 131.896C339.84 135.388 350.578 158.881 360.751 163.749C368.889 167.643 372.242 155.107 371.489 149.674" stroke="#404AA3" stroke-opacity="0.18"/>
<path d="M12.0527 149.43C27.9268 138.291 66.3868 119.311 89.7225 144.094C99.3604 154.329 123.738 175.237 132.381 163.077L145.849 149.43C154.92 139.924 176.69 126.615 191.203 149.43C205.717 172.245 219.172 167.918 224.086 162.902C238.448 146.339 262.183 118.881 273.976 138.757C285.768 158.633 298.354 171.3 306.291 166.401C326.962 153.642 323.958 128.691 334.637 134.733C339.74 137.62 350.512 157.041 360.716 161.065C368.88 164.284 372.244 153.921 371.488 149.43" stroke="#404AA3" stroke-opacity="0.18"/>
<path d="M13.1836 150.032C29.0577 140.33 67.5176 123.799 90.8534 145.384C100.491 154.298 124.869 172.509 133.512 161.918L146.98 150.032C156.051 141.752 177.821 130.16 192.334 150.032C206.848 169.903 220.303 166.134 225.216 161.765C239.579 147.339 263.314 123.425 275.106 140.736C286.899 158.047 299.485 169.08 307.422 164.813C328.093 153.701 325.089 131.969 335.768 137.231C340.871 139.745 351.642 156.66 361.847 160.165C370.011 162.969 373.375 153.943 372.619 150.032" stroke="#404AA3" stroke-opacity="0.18"/>
<path d="M13.1836 150.362C29.0577 142.996 67.5176 130.445 90.8534 146.833C100.491 153.602 124.869 167.428 133.512 159.387L146.98 150.362C156.051 144.076 177.821 135.274 192.334 150.362C206.848 165.45 220.303 162.588 225.216 159.271C239.579 148.318 263.314 130.16 275.106 143.304C286.899 156.448 299.485 164.825 307.422 161.585C328.093 153.148 325.089 136.647 335.768 140.643C340.871 142.552 351.642 155.395 361.847 158.056C370.011 160.185 373.375 153.332 372.619 150.362" stroke="#404AA3" stroke-opacity="0.18"/>
<path d="M12.0527 150.402C28.0267 145.192 66.7285 136.314 90.211 147.906C99.9095 152.693 124.441 162.473 133.138 156.785L146.69 150.402C155.818 145.955 177.725 139.73 192.33 150.402C206.935 161.074 220.475 159.049 225.419 156.703C239.872 148.956 263.757 136.113 275.623 145.41C287.489 154.707 300.154 160.632 308.141 158.34C328.943 152.372 325.92 140.701 336.666 143.527C341.801 144.878 352.64 153.962 362.909 155.844C371.124 157.35 374.509 152.502 373.749 150.402" stroke="#404AA3" stroke-opacity="0.18"/>
</g>
<g opacity="0.6" filter="url(#filter11_f_1526_138496)">
<path d="M390.827 172.835C374.903 136.182 336.322 73.7335 312.913 155.276C303.245 188.954 278.79 257.749 270.12 217.738L256.61 172.835C247.511 141.556 225.672 97.7649 211.113 172.835C196.554 247.904 183.056 233.666 178.128 217.163C163.72 162.664 139.91 72.3195 128.081 137.718C116.251 203.116 103.626 244.796 95.6638 228.676C74.9274 186.695 77.9406 104.596 67.2281 124.477C62.1096 133.976 51.304 197.877 41.0671 211.118C32.8776 221.711 29.5033 187.611 30.2616 172.835" stroke="#A1A5CE" stroke-opacity="0.15"/>
<path d="M389.696 174.031C373.872 139.894 335.533 81.7308 312.271 157.677C302.663 189.044 278.362 253.117 269.746 215.853L256.321 174.031C247.279 144.898 225.577 104.113 211.109 174.031C196.641 243.949 183.228 230.687 178.33 215.317C164.013 164.558 140.352 80.4138 128.597 141.324C116.842 202.234 104.296 241.053 96.3836 226.04C75.7771 186.94 78.7714 110.476 68.1261 128.992C63.0397 137.839 52.3019 197.355 42.1292 209.687C33.9911 219.553 30.6378 187.793 31.3914 174.031" stroke="#A1A5CE" stroke-opacity="0.15"/>
<path d="M390.827 175.795C374.903 143.814 336.322 89.3243 312.913 160.474C303.245 189.86 278.79 249.887 270.12 214.976L256.61 175.795C247.511 148.502 225.672 110.293 211.113 175.795C196.554 241.297 183.056 228.873 178.128 214.473C163.72 166.921 139.91 88.0904 128.081 145.154C116.251 202.217 103.626 238.584 95.6638 224.52C74.9274 187.889 77.9406 116.254 67.2281 133.6C62.1096 141.889 51.304 197.646 41.0671 209.199C32.8776 218.442 29.5033 188.688 30.2616 175.795" stroke="#A1A5CE" stroke-opacity="0.15"/>
<path d="M390.827 173.496C374.903 141.515 336.322 87.0249 312.913 158.175C303.245 187.56 278.79 247.587 270.12 212.676L256.61 173.496C247.511 146.203 225.672 107.994 211.113 173.496C196.554 238.998 183.056 226.574 178.128 212.174C163.72 164.621 139.91 85.7911 128.081 142.854C116.251 199.917 103.626 236.285 95.6638 222.22C74.9274 185.589 77.9406 113.954 67.2281 131.301C62.1096 139.589 51.304 195.346 41.0671 206.9C32.8776 216.142 29.5033 186.388 30.2616 173.496" stroke="#A1A5CE" stroke-opacity="0.15"/>
<path d="M390.827 170.622C374.903 138.641 336.322 84.1509 312.913 155.301C303.245 184.686 278.79 244.713 270.12 209.802L256.61 170.622C247.511 143.329 225.672 105.119 211.113 170.622C196.554 236.124 183.056 223.7 178.128 209.3C163.72 161.747 139.91 82.9171 128.081 139.98C116.251 197.043 103.626 233.411 95.6638 219.346C74.9274 182.715 77.9406 111.08 67.2281 128.427C62.1096 136.715 51.304 192.472 41.0671 204.026C32.8776 213.268 29.5033 183.514 30.2616 170.622" stroke="#A1A5CE" stroke-opacity="0.15"/>
<path d="M389.696 173.846C373.872 145.279 335.533 96.6053 312.271 160.161C302.663 186.409 278.362 240.029 269.746 208.844L256.321 173.846C247.279 149.467 225.577 115.336 211.109 173.846C196.641 232.356 183.228 221.258 178.33 208.396C164.013 165.919 140.352 95.5032 128.597 146.475C116.842 197.447 104.296 229.933 96.3836 217.37C75.7771 184.649 78.7714 120.66 68.1261 136.155C63.0397 143.559 52.3019 193.364 42.1292 203.684C33.9911 211.94 30.6378 185.363 31.3914 173.846" stroke="#A1A5CE" stroke-opacity="0.15"/>
<path d="M389.696 172.743C373.872 146.691 335.533 102.303 312.271 160.263C302.663 184.2 278.362 233.098 269.746 204.66L256.321 172.743C247.279 150.51 225.577 119.384 211.109 172.743C196.641 226.101 183.228 215.981 178.33 204.251C164.013 165.514 140.352 101.298 128.597 147.782C116.842 194.266 104.296 223.892 96.3836 212.434C75.7771 182.595 78.7714 124.24 68.1261 138.371C63.0397 145.123 52.3019 190.543 42.1292 199.954C33.9911 207.483 30.6378 183.245 31.3914 172.743" stroke="#A1A5CE" stroke-opacity="0.15"/>
<path d="M390.827 172.208C374.953 148.312 336.493 107.598 313.157 160.761C303.52 182.717 279.141 227.569 270.499 201.483L257.031 172.208C247.96 151.815 226.19 123.265 211.676 172.208C197.163 221.151 183.708 211.867 178.794 201.108C164.432 165.577 140.696 106.676 128.904 149.313C117.112 191.95 104.526 219.124 96.5891 208.615C75.9177 181.244 78.9214 127.719 68.2425 140.681C63.1401 146.873 52.3684 188.535 42.1636 197.167C33.9998 204.073 30.636 181.841 31.3919 172.208" stroke="#A1A5CE" stroke-opacity="0.15"/>
<path d="M389.696 172.538C373.872 150.978 335.533 114.243 312.271 162.209C302.663 182.02 278.362 222.487 269.746 198.952L256.321 172.538C247.279 154.139 225.577 128.379 211.109 172.538C196.641 216.697 183.228 208.321 178.33 198.613C164.013 166.555 140.352 113.411 128.597 151.881C116.842 190.35 104.296 214.868 96.3836 205.386C75.7771 180.691 78.7714 132.398 68.1261 144.092C63.0397 149.68 52.3019 187.269 42.1292 195.058C33.9911 201.289 30.6378 181.23 31.3914 172.538" stroke="#A1A5CE" stroke-opacity="0.15"/>
<path d="M389.696 173.43C373.872 153.487 335.533 119.507 312.271 163.876C302.663 182.201 278.362 219.633 269.746 197.863L256.321 173.43C247.279 156.411 225.577 132.583 211.109 173.43C196.641 214.277 183.228 206.529 178.33 197.55C164.013 167.896 140.352 118.738 128.597 154.322C116.842 189.907 104.296 212.585 96.3836 203.815C75.7771 180.972 78.7714 136.301 68.1261 147.118C63.0397 152.286 52.3019 187.056 42.1292 194.261C33.9911 200.024 30.6378 181.47 31.3914 173.43" stroke="#A1A5CE" stroke-opacity="0.15"/>
<path d="M389.696 172.895C373.872 155.108 335.533 124.802 312.271 164.374C302.663 180.718 278.362 214.104 269.746 194.687L256.321 172.895C247.279 157.716 225.577 136.464 211.109 172.895C196.641 209.326 183.228 202.416 178.33 194.407C164.013 167.96 140.352 124.116 128.597 155.853C116.842 187.591 104.296 207.818 96.3836 199.995C75.7771 179.622 78.7714 139.78 68.1261 149.428C63.0397 154.037 52.3019 185.048 42.1292 191.474C33.9911 196.615 30.6378 180.066 31.3914 172.895" stroke="#A1A5CE" stroke-opacity="0.15"/>
<path d="M389.696 172.935C373.872 157.304 335.533 130.671 312.271 165.447C302.663 179.81 278.362 209.148 269.746 192.085L256.321 172.935C247.279 159.596 225.577 140.92 211.109 172.935C196.641 204.95 183.228 198.878 178.33 191.84C164.013 168.598 140.352 130.068 128.597 157.959C116.842 185.849 104.296 203.624 96.3836 196.75C75.7771 178.846 78.7714 143.834 68.1261 152.312C63.0397 156.363 52.3019 183.615 42.1292 189.262C33.9911 193.779 30.6378 179.237 31.3914 172.935" stroke="#A1A5CE" stroke-opacity="0.15"/>
<path d="M389.696 173.55C373.872 160.075 335.533 137.115 312.271 167.094C302.663 179.476 278.362 204.768 269.746 190.058L256.321 173.55C247.279 162.05 225.577 145.951 211.109 173.55C196.641 201.149 183.228 195.914 178.33 189.847C164.013 169.811 140.352 136.596 128.597 160.639C116.842 184.683 104.296 200.006 96.3836 194.08C75.7771 178.645 78.7714 148.462 68.1261 155.771C63.0397 159.263 52.3019 182.757 42.1292 187.624C33.9911 191.519 30.6378 178.982 31.3914 173.55" stroke="#A1A5CE" stroke-opacity="0.15"/>
<path d="M390.827 173.305C374.953 162.166 336.493 143.186 313.157 167.969C303.52 178.204 279.141 199.113 270.499 186.953L257.031 173.305C247.96 163.799 226.19 150.49 211.676 173.305C197.163 196.121 183.708 191.793 178.794 186.778C164.432 170.214 140.696 142.757 128.904 162.633C117.112 182.509 104.526 195.176 96.5891 190.277C75.9177 177.518 78.9214 152.566 68.2425 158.608C63.1401 161.495 52.3684 180.916 42.1636 184.941C33.9998 188.16 30.636 177.796 31.3919 173.305" stroke="#A1A5CE" stroke-opacity="0.15"/>
<path d="M389.696 173.907C373.822 164.205 335.362 147.674 312.027 169.259C302.389 178.174 278.011 196.384 269.368 185.793L255.9 173.907C246.829 165.627 225.059 154.036 210.546 173.907C196.032 193.778 182.577 190.009 177.663 185.641C163.301 171.215 139.566 147.3 127.773 164.611C115.981 181.923 103.395 192.956 95.4583 188.689C74.7868 177.576 77.7906 155.844 67.1116 161.106C62.0092 163.621 51.2375 180.536 41.0327 184.041C32.8689 186.845 29.5051 177.818 30.261 173.907" stroke="#A1A5CE" stroke-opacity="0.15"/>
<path d="M389.696 174.238C373.822 166.871 335.362 154.32 312.027 170.709C302.389 177.477 278.011 191.304 269.368 183.262L255.9 174.238C246.829 167.951 225.059 159.15 210.546 174.238C196.032 189.325 182.577 186.463 177.663 183.147C163.301 172.193 139.566 154.036 127.773 167.18C115.981 180.323 103.395 188.7 95.4583 185.461C74.7868 177.023 77.7906 160.523 67.1116 164.519C62.0092 166.428 51.2375 179.271 41.0327 181.932C32.8689 184.061 29.5051 177.207 30.261 174.238" stroke="#A1A5CE" stroke-opacity="0.15"/>
</g>
</g>
<defs>
<filter id="filter0_f_1526_138496" x="9.59424" y="88.5" width="383.691" height="162.5" filterUnits="userSpaceOnUse" color-interpolation-filters="sRGB">
<feFlood flood-opacity="0" result="BackgroundImageFix"/>
<feBlend mode="normal" in="SourceGraphic" in2="BackgroundImageFix" result="shape"/>
<feGaussianBlur stdDeviation="1" result="effect1_foregroundBlur_1526_138496"/>
</filter>
<filter id="filter1_f_1526_138496" x="11.2129" y="0.128906" width="389.387" height="348.871" filterUnits="userSpaceOnUse" color-interpolation-filters="sRGB">
<feFlood flood-opacity="0" result="BackgroundImageFix"/>
<feBlend mode="normal" in="SourceGraphic" in2="BackgroundImageFix" result="shape"/>
<feGaussianBlur stdDeviation="50" result="effect1_foregroundBlur_1526_138496"/>
</filter>
<filter id="filter2_f_1526_138496" x="82.8413" y="120.1" width="273.859" height="101.206" filterUnits="userSpaceOnUse" color-interpolation-filters="sRGB">
<feFlood flood-opacity="0" result="BackgroundImageFix"/>
<feBlend mode="normal" in="SourceGraphic" in2="BackgroundImageFix" result="shape"/>
<feGaussianBlur stdDeviation="1" result="effect1_foregroundBlur_1526_138496"/>
</filter>
<filter id="filter3_f_1526_138496" x="8.71387" y="148.202" width="393.492" height="42.8936" filterUnits="userSpaceOnUse" color-interpolation-filters="sRGB">
<feFlood flood-opacity="0" result="BackgroundImageFix"/>
<feBlend mode="normal" in="SourceGraphic" in2="BackgroundImageFix" result="shape"/>
<feGaussianBlur stdDeviation="10.1562" result="effect1_foregroundBlur_1526_138496"/>
</filter>
<filter id="filter4_f_1526_138496" x="38.1943" y="148.202" width="334.532" height="42.8936" filterUnits="userSpaceOnUse" color-interpolation-filters="sRGB">
<feFlood flood-opacity="0" result="BackgroundImageFix"/>
<feBlend mode="normal" in="SourceGraphic" in2="BackgroundImageFix" result="shape"/>
<feGaussianBlur stdDeviation="10.1562" result="effect1_foregroundBlur_1526_138496"/>
</filter>
<filter id="filter5_f_1526_138496" x="51.736" y="161.744" width="307.448" height="15.8102" filterUnits="userSpaceOnUse" color-interpolation-filters="sRGB">
<feFlood flood-opacity="0" result="BackgroundImageFix"/>
<feBlend mode="normal" in="SourceGraphic" in2="BackgroundImageFix" result="shape"/>
<feGaussianBlur stdDeviation="3.38542" result="effect1_foregroundBlur_1526_138496"/>
</filter>
<filter id="filter6_ddi_1526_138496" x="49.7048" y="166.483" width="311.511" height="19.8727" filterUnits="userSpaceOnUse" color-interpolation-filters="sRGB">
<feFlood flood-opacity="0" result="BackgroundImageFix"/>
<feColorMatrix in="SourceAlpha" type="matrix" values="0 0 0 0 0 0 0 0 0 0 0 0 0 0 0 0 0 0 127 0" result="hardAlpha"/>
<feOffset dy="4.40104"/>
<feGaussianBlur stdDeviation="1.69271"/>
<feColorMatrix type="matrix" values="0 0 0 0 0.3 0 0 0 0 0 0 0 0 0 0.26 0 0 0 0.7 0"/>
<feBlend mode="multiply" in2="BackgroundImageFix" result="effect1_dropShadow_1526_138496"/>
<feColorMatrix in="SourceAlpha" type="matrix" values="0 0 0 0 0 0 0 0 0 0 0 0 0 0 0 0 0 0 127 0" result="hardAlpha"/>
<feOffset dy="6.77083"/>
<feGaussianBlur stdDeviation="4.40104"/>
<feColorMatrix type="matrix" values="0 0 0 0 0.6 0 0 0 0 0 0 0 0 0 0.6 0 0 0 1 0"/>
<feBlend mode="color-dodge" in2="effect1_dropShadow_1526_138496" result="effect2_dropShadow_1526_138496"/>
<feBlend mode="normal" in="SourceGraphic" in2="effect2_dropShadow_1526_138496" result="shape"/>
<feColorMatrix in="SourceAlpha" type="matrix" values="0 0 0 0 0 0 0 0 0 0 0 0 0 0 0 0 0 0 127 0" result="hardAlpha"/>
<feOffset dx="-0.440104" dy="0.880208"/>
<feGaussianBlur stdDeviation="0.220052"/>
<feComposite in2="hardAlpha" operator="arithmetic" k2="-1" k3="1"/>
<feColorMatrix type="matrix" values="0 0 0 0 1 0 0 0 0 1 0 0 0 0 1 0 0 0 0.5 0"/>
<feBlend mode="normal" in2="shape" result="effect3_innerShadow_1526_138496"/>
</filter>
<filter id="filter7_f_1526_138496" x="57.8298" y="167.838" width="295.261" height="3.62272" filterUnits="userSpaceOnUse" color-interpolation-filters="sRGB">
<feFlood flood-opacity="0" result="BackgroundImageFix"/>
<feBlend mode="normal" in="SourceGraphic" in2="BackgroundImageFix" result="shape"/>
<feGaussianBlur stdDeviation="0.338542" result="effect1_foregroundBlur_1526_138496"/>
</filter>
<filter id="filter8_f_1526_138496" x="58.0554" y="168.063" width="294.81" height="3.17133" filterUnits="userSpaceOnUse" color-interpolation-filters="sRGB">
<feFlood flood-opacity="0" result="BackgroundImageFix"/>
<feBlend mode="normal" in="SourceGraphic" in2="BackgroundImageFix" result="shape"/>
<feGaussianBlur stdDeviation="0.225694" result="effect1_foregroundBlur_1526_138496"/>
</filter>
<filter id="filter9_f_1526_138496" x="50.5415" y="81.0332" width="337.558" height="158.273" filterUnits="userSpaceOnUse" color-interpolation-filters="sRGB">
<feFlood flood-opacity="0" result="BackgroundImageFix"/>
<feBlend mode="normal" in="SourceGraphic" in2="BackgroundImageFix" result="shape"/>
<feGaussianBlur stdDeviation="10" result="effect1_foregroundBlur_1526_138496"/>
</filter>
<filter id="filter10_f_1526_138496" x="-8.40576" y="70.5" width="402.759" height="158.272" filterUnits="userSpaceOnUse" color-interpolation-filters="sRGB">
<feFlood flood-opacity="0" result="BackgroundImageFix"/>
<feBlend mode="normal" in="SourceGraphic" in2="BackgroundImageFix" result="shape"/>
<feGaussianBlur stdDeviation="10" result="effect1_foregroundBlur_1526_138496"/>
</filter>
<filter id="filter11_f_1526_138496" x="24.6577" y="109.375" width="371.628" height="128.272" filterUnits="userSpaceOnUse" color-interpolation-filters="sRGB">
<feFlood flood-opacity="0" result="BackgroundImageFix"/>
<feBlend mode="normal" in="SourceGraphic" in2="BackgroundImageFix" result="shape"/>
<feGaussianBlur stdDeviation="2.5" result="effect1_foregroundBlur_1526_138496"/>
</filter>
<linearGradient id="paint0_linear_1526_138496" x1="205.011" y1="99.4268" x2="205.011" y2="241.276" gradientUnits="userSpaceOnUse">
<stop stop-color="#B44FB4" stop-opacity="0.21"/>
<stop offset="1" stop-color="#B80F74" stop-opacity="0.13"/>
</linearGradient>
<linearGradient id="paint1_linear_1526_138496" x1="205" y1="104.342" x2="205" y2="237.765" gradientUnits="userSpaceOnUse">
<stop stop-color="#B44FB4" stop-opacity="0.21"/>
<stop offset="1" stop-color="#B80F74" stop-opacity="0.13"/>
</linearGradient>
<linearGradient id="paint2_linear_1526_138496" x1="205.011" y1="110.662" x2="205.011" y2="234.955" gradientUnits="userSpaceOnUse">
<stop stop-color="#B44FB4" stop-opacity="0.21"/>
<stop offset="1" stop-color="#B80F74" stop-opacity="0.13"/>
</linearGradient>
<linearGradient id="paint3_linear_1526_138496" x1="205.001" y1="107.854" x2="205.001" y2="232.849" gradientUnits="userSpaceOnUse">
<stop stop-color="#B44FB4" stop-opacity="0.21"/>
<stop offset="1" stop-color="#B80F74" stop-opacity="0.13"/>
</linearGradient>
<linearGradient id="paint4_linear_1526_138496" x1="205.001" y1="104.342" x2="205.001" y2="229.338" gradientUnits="userSpaceOnUse">
<stop stop-color="#B44FB4" stop-opacity="0.21"/>
<stop offset="1" stop-color="#B80F74" stop-opacity="0.13"/>
</linearGradient>
<linearGradient id="paint5_linear_1526_138496" x1="205" y1="114.875" x2="205" y2="226.529" gradientUnits="userSpaceOnUse">
<stop stop-color="#B44FB4" stop-opacity="0.21"/>
<stop offset="1" stop-color="#B80F74" stop-opacity="0.13"/>
</linearGradient>
<linearGradient id="paint6_linear_1526_138496" x1="205" y1="118.387" x2="205" y2="220.209" gradientUnits="userSpaceOnUse">
<stop stop-color="#B44FB4" stop-opacity="0.21"/>
<stop offset="1" stop-color="#B80F74" stop-opacity="0.13"/>
</linearGradient>
<linearGradient id="paint7_linear_1526_138496" x1="204.542" y1="121.898" x2="204.542" y2="215.294" gradientUnits="userSpaceOnUse">
<stop stop-color="#B44FB4" stop-opacity="0.21"/>
<stop offset="1" stop-color="#B80F74" stop-opacity="0.13"/>
</linearGradient>
<linearGradient id="paint8_linear_1526_138496" x1="205" y1="126.813" x2="205" y2="211.08" gradientUnits="userSpaceOnUse">
<stop stop-color="#B44FB4" stop-opacity="0.21"/>
<stop offset="1" stop-color="#B80F74" stop-opacity="0.13"/>
</linearGradient>
<linearGradient id="paint9_linear_1526_138496" x1="205" y1="131.026" x2="205" y2="208.973" gradientUnits="userSpaceOnUse">
<stop stop-color="#B44FB4" stop-opacity="0.21"/>
<stop offset="1" stop-color="#B80F74" stop-opacity="0.13"/>
</linearGradient>
<linearGradient id="paint10_linear_1526_138496" x1="205" y1="134.538" x2="205" y2="204.058" gradientUnits="userSpaceOnUse">
<stop stop-color="#B44FB4" stop-opacity="0.21"/>
<stop offset="1" stop-color="#B80F74" stop-opacity="0.13"/>
</linearGradient>
<linearGradient id="paint11_linear_1526_138496" x1="205" y1="138.751" x2="205" y2="199.844" gradientUnits="userSpaceOnUse">
<stop stop-color="#B44FB4" stop-opacity="0.21"/>
<stop offset="1" stop-color="#B80F74" stop-opacity="0.13"/>
</linearGradient>
<linearGradient id="paint12_linear_1526_138496" x1="205" y1="143.667" x2="205" y2="196.333" gradientUnits="userSpaceOnUse">
<stop stop-color="#B44FB4" stop-opacity="0.21"/>
<stop offset="1" stop-color="#B80F74" stop-opacity="0.13"/>
</linearGradient>
<linearGradient id="paint13_linear_1526_138496" x1="204.542" y1="147.88" x2="204.542" y2="191.418" gradientUnits="userSpaceOnUse">
<stop stop-color="#B44FB4" stop-opacity="0.21"/>
<stop offset="1" stop-color="#B80F74" stop-opacity="0.13"/>
</linearGradient>
<linearGradient id="paint14_linear_1526_138496" x1="205.46" y1="151.391" x2="205.46" y2="189.311" gradientUnits="userSpaceOnUse">
<stop stop-color="#B44FB4" stop-opacity="0.21"/>
<stop offset="1" stop-color="#B80F74" stop-opacity="0.13"/>
</linearGradient>
<linearGradient id="paint15_linear_1526_138496" x1="205.46" y1="156.307" x2="205.46" y2="185.098" gradientUnits="userSpaceOnUse">
<stop stop-color="#B44FB4" stop-opacity="0.21"/>
<stop offset="1" stop-color="#B80F74" stop-opacity="0.13"/>
</linearGradient>
<linearGradient id="paint16_linear_1526_138496" x1="205.46" y1="160.52" x2="205.46" y2="180.884" gradientUnits="userSpaceOnUse">
<stop stop-color="#B44FB4" stop-opacity="0.21"/>
<stop offset="1" stop-color="#B80F74" stop-opacity="0.13"/>
</linearGradient>
</defs>
</svg>
