<svg width="20" height="20" viewBox="0 0 20 20" fill="none" xmlns="http://www.w3.org/2000/svg">
<path d="M7.44163 1.6665H4.18329C2.49996 1.6665 1.66663 2.49984 1.66663 4.18317V7.44984C1.66663 9.1665 2.49996 9.99984 4.18329 9.95817H7.44996C9.16663 9.99984 9.99996 9.1665 9.95829 7.4415V4.18317C9.99996 2.49984 9.16663 1.6665 7.44163 1.6665ZM7.50829 8.13317C6.94163 8.13317 6.39163 7.9165 5.93329 7.53317C5.41663 7.90817 4.79163 8.13317 4.11663 8.13317C3.77496 8.13317 3.49163 7.84984 3.49163 7.50817C3.49163 7.1665 3.77496 6.88317 4.11663 6.88317C4.96663 6.88317 5.67496 6.29984 5.93329 5.49984H4.11663C3.77496 5.49984 3.49163 5.2165 3.49163 4.87484C3.49163 4.53317 3.77496 4.24984 4.11663 4.24984H5.19163C5.22496 3.93317 5.48329 3.68317 5.80829 3.68317C6.13329 3.68317 6.39163 3.93317 6.42496 4.24984H6.64163C6.64996 4.24984 6.65829 4.24984 6.65829 4.24984H6.67496H7.49996C7.84163 4.24984 8.12496 4.53317 8.12496 4.87484C8.12496 5.2165 7.84996 5.49984 7.49996 5.49984H7.22496C7.14996 5.89984 6.99163 6.27484 6.78329 6.6165C7.00829 6.78317 7.24996 6.88317 7.50829 6.88317C7.84996 6.88317 8.13329 7.1665 8.13329 7.50817C8.13329 7.84984 7.84996 8.13317 7.50829 8.13317Z" fill="#222C27"/>
<path d="M7.49996 18.9583C3.94163 18.9583 1.04163 16.0583 1.04163 12.5C1.04163 12.1583 1.32496 11.875 1.66663 11.875C2.00829 11.875 2.29163 12.1583 2.29163 12.5C2.29163 14.9667 4.00829 17.0333 6.31663 17.575L6.09163 17.2C5.91663 16.9 6.00829 16.5167 6.30829 16.3417C6.59996 16.1667 6.99163 16.2583 7.16663 16.5583L8.04163 18.0167C8.15829 18.2083 8.15829 18.45 8.04996 18.6417C7.93329 18.8333 7.72496 18.9583 7.49996 18.9583Z" fill="#222C27"/>
<path d="M18.3333 8.12484C17.9917 8.12484 17.7083 7.8415 17.7083 7.49984C17.7083 5.03317 15.9917 2.9665 13.6833 2.42484L13.9083 2.79984C14.0833 3.09984 13.9917 3.48317 13.6917 3.65817C13.4 3.83317 13.0083 3.7415 12.8333 3.4415L11.9583 1.98317C11.8417 1.7915 11.8417 1.54984 11.95 1.35817C12.0667 1.1665 12.275 1.0415 12.5 1.0415C16.0583 1.0415 18.9583 3.9415 18.9583 7.49984C18.9583 7.8415 18.675 8.12484 18.3333 8.12484Z" fill="#222C27"/>
<path d="M14.1 9.875C11.7667 9.875 9.8667 11.7667 9.8667 14.1083C9.8667 16.4417 11.7584 18.3417 14.1 18.3417C16.4334 18.3417 18.3334 16.45 18.3334 14.1083C18.3334 11.7667 16.4417 9.875 14.1 9.875ZM16.1667 16.1167C15.8584 16.2667 15.4834 16.15 15.325 15.8333L15.1834 15.55H13.025L12.8834 15.8333C12.775 16.05 12.55 16.175 12.325 16.175C12.2334 16.175 12.1334 16.15 12.05 16.1083C11.7417 15.95 11.6167 15.575 11.7667 15.2667L13.55 11.7083C13.6584 11.5 13.875 11.3667 14.1084 11.3667C14.3417 11.3667 14.5584 11.5 14.6667 11.7167L16.45 15.275C16.6 15.5833 16.475 15.9583 16.1667 16.1167Z" fill="#222C27"/>
<path d="M13.65 14.2999H14.5584L14.1 13.3916L13.65 14.2999Z" fill="#222C27"/>
</svg>
