<svg width="17" height="16" viewBox="0 0 17 16" fill="none" xmlns="http://www.w3.org/2000/svg">
<path d="M8.83333 7.9987C10.6743 7.9987 12.1667 6.50631 12.1667 4.66536C12.1667 2.82442 10.6743 1.33203 8.83333 1.33203C6.99238 1.33203 5.5 2.82442 5.5 4.66536C5.5 6.50631 6.99238 7.9987 8.83333 7.9987Z" stroke="white" stroke-width="0.8" stroke-linecap="round" stroke-linejoin="round"/>
<path d="M3.10669 14.6667C3.10669 12.0867 5.67335 10 8.83335 10C9.47335 10 10.0934 10.0867 10.6734 10.2467" stroke="white" stroke-width="0.8" stroke-linecap="round" stroke-linejoin="round"/>
<path d="M15.5 11.9987C15.5 12.212 15.4734 12.4187 15.42 12.6187C15.36 12.8854 15.2534 13.1454 15.1134 13.372C14.6534 14.1454 13.8067 14.6654 12.8334 14.6654C12.1467 14.6654 11.5267 14.4053 11.06 13.9787C10.86 13.8053 10.6867 13.5987 10.5533 13.372C10.3067 12.972 10.1667 12.4987 10.1667 11.9987C10.1667 11.2787 10.4534 10.6187 10.92 10.1387C11.4067 9.63871 12.0867 9.33203 12.8334 9.33203C13.62 9.33203 14.3334 9.67204 14.8134 10.2187C15.24 10.692 15.5 11.3187 15.5 11.9987Z" stroke="white" stroke-width="0.8" stroke-miterlimit="10" stroke-linecap="round" stroke-linejoin="round"/>
<path d="M13.8267 11.9883H11.84" stroke="white" stroke-width="0.8" stroke-miterlimit="10" stroke-linecap="round" stroke-linejoin="round"/>
<path d="M12.8333 11.0156V13.009" stroke="white" stroke-width="0.8" stroke-miterlimit="10" stroke-linecap="round" stroke-linejoin="round"/>
</svg>
