<svg width="17" height="16" viewBox="0 0 17 16" fill="none" xmlns="http://www.w3.org/2000/svg">
<path d="M8.72834 13.6134H4.51501C2.40834 13.6134 1.70834 12.2134 1.70834 10.8067V5.19339C1.70834 3.08672 2.40834 2.38672 4.51501 2.38672H8.72834C10.835 2.38672 11.535 3.08672 11.535 5.19339V10.8067C11.535 12.9134 10.8283 13.6134 8.72834 13.6134Z" stroke="#C0C0C3" stroke-linecap="round" stroke-linejoin="round"/>
<path d="M13.3883 11.4001L11.535 10.1001V5.89342L13.3883 4.59342C14.295 3.96009 15.0417 4.34675 15.0417 5.46009V10.5401C15.0417 11.6534 14.295 12.0401 13.3883 11.4001Z" stroke="#C0C0C3" stroke-linecap="round" stroke-linejoin="round"/>
<path d="M8.04166 7.33203C8.59394 7.33203 9.04166 6.88432 9.04166 6.33203C9.04166 5.77975 8.59394 5.33203 8.04166 5.33203C7.48937 5.33203 7.04166 5.77975 7.04166 6.33203C7.04166 6.88432 7.48937 7.33203 8.04166 7.33203Z" stroke="#C0C0C3" stroke-linecap="round" stroke-linejoin="round"/>
</svg>
