<svg width="17" height="16" viewBox="0 0 17 16" fill="none" xmlns="http://www.w3.org/2000/svg">
<path d="M14.475 4.11464C14.2017 3.96797 13.6284 3.81464 12.8484 4.3613L11.8684 5.05464C11.795 2.9813 10.895 2.16797 8.70835 2.16797H4.70835C2.42835 2.16797 1.54169 3.05464 1.54169 5.33464V10.668C1.54169 12.2013 2.37502 13.8346 4.70835 13.8346H8.70835C10.895 13.8346 11.795 13.0213 11.8684 10.948L12.8484 11.6413C13.2617 11.9346 13.6217 12.028 13.9084 12.028C14.155 12.028 14.3484 11.9546 14.475 11.888C14.7484 11.748 15.2084 11.368 15.2084 10.4146V5.58797C15.2084 4.63464 14.7484 4.25464 14.475 4.11464ZM7.70835 7.58797C7.02169 7.58797 6.45502 7.02797 6.45502 6.33464C6.45502 5.6413 7.02169 5.0813 7.70835 5.0813C8.39502 5.0813 8.96169 5.6413 8.96169 6.33464C8.96169 7.02797 8.39502 7.58797 7.70835 7.58797Z" fill="#4534B8"/>
</svg>
