<svg width="26" height="26" viewBox="0 0 26 26" fill="none" xmlns="http://www.w3.org/2000/svg">
<path d="M19.0665 17.805C18.9047 17.805 18.753 17.7545 18.6115 17.6534C18.2778 17.4006 18.207 16.9254 18.4598 16.5917C20.0472 14.4785 20.0472 11.526 18.4598 9.41283C18.207 9.07916 18.2778 8.60394 18.6115 8.35116C18.9451 8.09838 19.4204 8.16916 19.6731 8.50283C21.6549 11.1519 21.6549 14.8526 19.6731 17.5017C19.5215 17.7039 19.299 17.805 19.0665 17.805Z" fill="white"/>
<path d="M20.9169 20.3333C20.7551 20.3333 20.6034 20.2827 20.4619 20.1816C20.1282 19.9288 20.0574 19.4536 20.3102 19.1199C23.0099 15.5204 23.0099 10.485 20.3102 6.88548C20.0574 6.55182 20.1282 6.0766 20.4619 5.82382C20.7955 5.57104 21.2708 5.64182 21.5235 5.97548C24.6277 10.1109 24.6277 15.8945 21.5235 20.0299C21.382 20.2322 21.1494 20.3333 20.9169 20.3333Z" fill="white"/>
<path d="M15.0425 4.68815C13.9101 4.06126 12.4642 4.22304 10.9879 5.14315L8.0355 6.99348C7.83328 7.11482 7.60073 7.18559 7.36817 7.18559H6.42784H5.92228C3.47539 7.18559 2.13062 8.53037 2.13062 10.9773V15.0217C2.13062 17.4686 3.47539 18.8134 5.92228 18.8134H6.42784H7.36817C7.60073 18.8134 7.83328 18.8841 8.0355 19.0055L10.9879 20.8558C11.8777 21.4119 12.7473 21.6849 13.5562 21.6849C14.0819 21.6849 14.5875 21.5636 15.0425 21.3108C16.1648 20.6839 16.7917 19.3796 16.7917 17.6405V8.35848C16.7917 6.61937 16.1648 5.31504 15.0425 4.68815Z" fill="white"/>
</svg>
